<?xml version="1.0" encoding="utf-8" standalone="no"?>
<!DOCTYPE svg PUBLIC "-//W3C//DTD SVG 1.1//EN"
  "http://www.w3.org/Graphics/SVG/1.1/DTD/svg11.dtd">
<svg xmlns:xlink="http://www.w3.org/1999/xlink" width="469.19952pt" height="353.99952pt" viewBox="0 0 469.19952 353.99952" xmlns="http://www.w3.org/2000/svg" version="1.1">
 <metadata>
  <rdf:RDF xmlns:dc="http://purl.org/dc/elements/1.1/" xmlns:cc="http://creativecommons.org/ns#" xmlns:rdf="http://www.w3.org/1999/02/22-rdf-syntax-ns#">
   <cc:Work>
    <dc:type rdf:resource="http://purl.org/dc/dcmitype/StillImage"/>
    <dc:date>2025-12-27T13:09:16.736846</dc:date>
    <dc:format>image/svg+xml</dc:format>
    <dc:creator>
     <cc:Agent>
      <dc:title>made/written by /home/con/Scripts/python/matplotlib/MatPlotLib-Simple/t/01.all.tests.t called using "plt" in /home/con/perl5/perlbrew/perls/perl-5.42.0/lib/site_perl/5.42.0/x86_64-linux/Matplotlib/Simple.pm</dc:title>
     </cc:Agent>
    </dc:creator>
   </cc:Work>
  </rdf:RDF>
 </metadata>
 <defs>
  <style type="text/css">*{stroke-linejoin: round; stroke-linecap: butt}</style>
 </defs>
 <g id="figure_1">
  <g id="patch_1">
   <path d="M 0 353.99952 
L 469.19952 353.99952 
L 469.19952 0 
L 0 0 
z
" style="fill: #ffffff"/>
  </g>
  <g id="axes_1">
   <g id="patch_2">
    <path d="M 33.2875 330.121395 
L 461.99952 330.121395 
L 461.99952 22.318125 
L 33.2875 22.318125 
z
" style="fill: #ffffff"/>
   </g>
   <g id="FillBetweenPolyCollection_1">
    <defs>
     <path id="m2440650023" d="M 93.954993 -37.869183 
L 89.541467 -37.869183 
L 89.711355 -47.518188 
L 90.140882 -57.167193 
L 90.632917 -66.816199 
L 90.968174 -76.465204 
L 90.95128 -86.114209 
L 90.38962 -95.763215 
L 89.07461 -105.41222 
L 86.839541 -115.061225 
L 83.673523 -124.710231 
L 79.773853 -134.359236 
L 75.446057 -144.008241 
L 70.922611 -153.657247 
L 66.29475 -163.306252 
L 61.661169 -172.955257 
L 57.369448 -182.604263 
L 54.115934 -192.253268 
L 52.77441 -201.902273 
L 54.007424 -211.551279 
L 57.859914 -221.200284 
L 63.609185 -230.849289 
L 70.042109 -240.498295 
L 76.008282 -250.1473 
L 80.842562 -259.796305 
L 84.391768 -269.445311 
L 86.774071 -279.094316 
L 88.181723 -288.743321 
L 88.856228 -298.392327 
L 89.117168 -308.041332 
L 89.301733 -317.690337 
L 94.194727 -317.690337 
L 94.194727 -317.690337 
L 94.379292 -308.041332 
L 94.640232 -298.392327 
L 95.314737 -288.743321 
L 96.722389 -279.094316 
L 99.104692 -269.445311 
L 102.653898 -259.796305 
L 107.488178 -250.1473 
L 113.454351 -240.498295 
L 119.887275 -230.849289 
L 125.636546 -221.200284 
L 129.489036 -211.551279 
L 130.72205 -201.902273 
L 129.380526 -192.253268 
L 126.127012 -182.604263 
L 121.835291 -172.955257 
L 117.20171 -163.306252 
L 112.573849 -153.657247 
L 108.050403 -144.008241 
L 103.722607 -134.359236 
L 99.822937 -124.710231 
L 96.656919 -115.061225 
L 94.42185 -105.41222 
L 93.10684 -95.763215 
L 92.54518 -86.114209 
L 92.528286 -76.465204 
L 92.863543 -66.816199 
L 93.355578 -57.167193 
L 93.785105 -47.518188 
L 93.954993 -37.869183 
z
" style="stroke: #000000; stroke-opacity: 0.3"/>
    </defs>
    <g clip-path="url(#pf8e9b3f4fb)">
     <use xlink:href="#m2440650023" x="0" y="353.99952" style="fill: #008000; fill-opacity: 0.3; stroke: #000000; stroke-opacity: 0.3"/>
    </g>
   </g>
   <g id="FillBetweenPolyCollection_2">
    <defs>
     <path id="ma1c975ffee" d="M 259.448881 -137.199636 
L 235.838139 -137.199636 
L 233.087655 -143.423453 
L 230.448287 -149.64727 
L 227.89346 -155.871088 
L 225.29625 -162.094905 
L 222.524576 -168.318722 
L 219.542275 -174.54254 
L 216.45889 -180.766357 
L 213.512059 -186.990174 
L 211.012897 -193.213991 
L 209.294283 -199.437809 
L 208.66969 -205.661626 
L 209.377568 -211.885443 
L 211.497888 -218.109261 
L 214.87677 -224.333078 
L 219.124886 -230.556895 
L 223.720947 -236.780712 
L 228.17603 -243.00453 
L 232.167339 -249.228347 
L 235.573728 -255.452164 
L 238.41524 -261.675982 
L 240.75508 -267.899799 
L 242.628486 -274.123616 
L 244.028748 -280.347434 
L 244.939969 -286.571251 
L 245.384566 -292.795068 
L 245.454383 -299.018885 
L 245.307768 -305.242703 
L 245.131847 -311.46652 
L 245.085517 -317.690337 
L 250.201503 -317.690337 
L 250.201503 -317.690337 
L 250.155173 -311.46652 
L 249.979252 -305.242703 
L 249.832637 -299.018885 
L 249.902454 -292.795068 
L 250.347051 -286.571251 
L 251.258272 -280.347434 
L 252.658534 -274.123616 
L 254.53194 -267.899799 
L 256.87178 -261.675982 
L 259.713292 -255.452164 
L 263.119681 -249.228347 
L 267.11099 -243.00453 
L 271.566073 -236.780712 
L 276.162134 -230.556895 
L 280.41025 -224.333078 
L 283.789132 -218.109261 
L 285.909452 -211.885443 
L 286.61733 -205.661626 
L 285.992737 -199.437809 
L 284.274123 -193.213991 
L 281.774961 -186.990174 
L 278.82813 -180.766357 
L 275.744745 -174.54254 
L 272.762444 -168.318722 
L 269.99077 -162.094905 
L 267.39356 -155.871088 
L 264.838733 -149.64727 
L 262.199365 -143.423453 
L 259.448881 -137.199636 
z
" style="stroke: #000000; stroke-opacity: 0.3"/>
    </defs>
    <g clip-path="url(#pf8e9b3f4fb)">
     <use xlink:href="#ma1c975ffee" x="0" y="353.99952" style="fill: #800080; fill-opacity: 0.3; stroke: #000000; stroke-opacity: 0.3"/>
    </g>
   </g>
   <g id="FillBetweenPolyCollection_3">
    <defs>
     <path id="m6835e48c0f" d="M 411.591423 -40.89755 
L 395.486157 -40.89755 
L 394.162631 -46.02489 
L 392.731616 -51.152229 
L 391.173653 -56.279568 
L 389.512198 -61.406908 
L 387.828138 -66.534247 
L 386.247086 -71.661587 
L 384.897957 -76.788926 
L 383.85559 -81.916265 
L 383.090594 -87.043605 
L 382.45073 -92.170944 
L 381.688612 -97.298284 
L 380.533315 -102.425623 
L 378.785118 -107.552963 
L 376.400371 -112.680302 
L 373.533255 -117.807641 
L 370.514511 -122.934981 
L 367.770253 -128.06232 
L 365.707626 -133.18966 
L 364.607939 -138.316999 
L 364.56497 -143.444338 
L 365.487301 -148.571678 
L 367.157431 -153.699017 
L 369.319149 -158.826357 
L 371.757405 -163.953696 
L 374.34319 -169.081035 
L 377.034112 -174.208375 
L 379.840019 -179.335714 
L 382.774615 -184.463054 
L 385.815251 -189.590393 
L 421.262329 -189.590393 
L 421.262329 -189.590393 
L 424.302965 -184.463054 
L 427.237561 -179.335714 
L 430.043468 -174.208375 
L 432.73439 -169.081035 
L 435.320175 -163.953696 
L 437.758431 -158.826357 
L 439.920149 -153.699017 
L 441.590279 -148.571678 
L 442.51261 -143.444338 
L 442.469641 -138.316999 
L 441.369954 -133.18966 
L 439.307327 -128.06232 
L 436.563069 -122.934981 
L 433.544325 -117.807641 
L 430.677209 -112.680302 
L 428.292462 -107.552963 
L 426.544265 -102.425623 
L 425.388968 -97.298284 
L 424.62685 -92.170944 
L 423.986986 -87.043605 
L 423.22199 -81.916265 
L 422.179623 -76.788926 
L 420.830494 -71.661587 
L 419.249442 -66.534247 
L 417.565382 -61.406908 
L 415.903927 -56.279568 
L 414.345964 -51.152229 
L 412.914949 -46.02489 
L 411.591423 -40.89755 
z
" style="stroke: #000000; stroke-opacity: 0.3"/>
    </defs>
    <g clip-path="url(#pf8e9b3f4fb)">
     <use xlink:href="#m6835e48c0f" x="0" y="353.99952" style="fill: #ffff00; fill-opacity: 0.3; stroke: #000000; stroke-opacity: 0.3"/>
    </g>
   </g>
   <g id="matplotlib.axis_1">
    <g id="xtick_1">
     <g id="line2d_1">
      <defs>
       <path id="mdc2f32aa1c" d="M 0 0 
L 0 3.5 
" style="stroke: #000000; stroke-width: 0.8"/>
      </defs>
      <g>
       <use xlink:href="#mdc2f32aa1c" x="91.74823" y="330.121395" style="stroke: #000000; stroke-width: 0.8"/>
      </g>
     </g>
     <g id="text_1">
      <!-- A (31) -->
      <g transform="translate(76.474793 344.719832) scale(0.1 -0.1)">
       <defs>
        <path id="DejaVuSans-41" d="M 2188 4044 
L 1331 1722 
L 3047 1722 
L 2188 4044 
z
M 1831 4666 
L 2547 4666 
L 4325 0 
L 3669 0 
L 3244 1197 
L 1141 1197 
L 716 0 
L 50 0 
L 1831 4666 
z
" transform="scale(0.015625)"/>
        <path id="DejaVuSans-20" transform="scale(0.015625)"/>
        <path id="DejaVuSans-28" d="M 1984 4856 
Q 1566 4138 1362 3434 
Q 1159 2731 1159 2009 
Q 1159 1288 1364 580 
Q 1569 -128 1984 -844 
L 1484 -844 
Q 1016 -109 783 600 
Q 550 1309 550 2009 
Q 550 2706 781 3412 
Q 1013 4119 1484 4856 
L 1984 4856 
z
" transform="scale(0.015625)"/>
        <path id="DejaVuSans-33" d="M 2597 2516 
Q 3050 2419 3304 2112 
Q 3559 1806 3559 1356 
Q 3559 666 3084 287 
Q 2609 -91 1734 -91 
Q 1441 -91 1130 -33 
Q 819 25 488 141 
L 488 750 
Q 750 597 1062 519 
Q 1375 441 1716 441 
Q 2309 441 2620 675 
Q 2931 909 2931 1356 
Q 2931 1769 2642 2001 
Q 2353 2234 1838 2234 
L 1294 2234 
L 1294 2753 
L 1863 2753 
Q 2328 2753 2575 2939 
Q 2822 3125 2822 3475 
Q 2822 3834 2567 4026 
Q 2313 4219 1838 4219 
Q 1578 4219 1281 4162 
Q 984 4106 628 3988 
L 628 4550 
Q 988 4650 1302 4700 
Q 1616 4750 1894 4750 
Q 2613 4750 3031 4423 
Q 3450 4097 3450 3541 
Q 3450 3153 3228 2886 
Q 3006 2619 2597 2516 
z
" transform="scale(0.015625)"/>
        <path id="DejaVuSans-31" d="M 794 531 
L 1825 531 
L 1825 4091 
L 703 3866 
L 703 4441 
L 1819 4666 
L 2450 4666 
L 2450 531 
L 3481 531 
L 3481 0 
L 794 0 
L 794 531 
z
" transform="scale(0.015625)"/>
        <path id="DejaVuSans-29" d="M 513 4856 
L 1013 4856 
Q 1481 4119 1714 3412 
Q 1947 2706 1947 2009 
Q 1947 1309 1714 600 
Q 1481 -109 1013 -844 
L 513 -844 
Q 928 -128 1133 580 
Q 1338 1288 1338 2009 
Q 1338 2731 1133 3434 
Q 928 4138 513 4856 
z
" transform="scale(0.015625)"/>
       </defs>
       <use xlink:href="#DejaVuSans-41"/>
       <use xlink:href="#DejaVuSans-20" transform="translate(68.408203 0)"/>
       <use xlink:href="#DejaVuSans-28" transform="translate(100.195312 0)"/>
       <use xlink:href="#DejaVuSans-33" transform="translate(139.208984 0)"/>
       <use xlink:href="#DejaVuSans-31" transform="translate(202.832031 0)"/>
       <use xlink:href="#DejaVuSans-29" transform="translate(266.455078 0)"/>
      </g>
     </g>
    </g>
    <g id="xtick_2">
     <g id="line2d_2">
      <g>
       <use xlink:href="#mdc2f32aa1c" x="247.64351" y="330.121395" style="stroke: #000000; stroke-width: 0.8"/>
      </g>
     </g>
     <g id="text_2">
      <!-- B (31) -->
      <g transform="translate(232.359916 344.719832) scale(0.1 -0.1)">
       <defs>
        <path id="DejaVuSans-42" d="M 1259 2228 
L 1259 519 
L 2272 519 
Q 2781 519 3026 730 
Q 3272 941 3272 1375 
Q 3272 1813 3026 2020 
Q 2781 2228 2272 2228 
L 1259 2228 
z
M 1259 4147 
L 1259 2741 
L 2194 2741 
Q 2656 2741 2882 2914 
Q 3109 3088 3109 3444 
Q 3109 3797 2882 3972 
Q 2656 4147 2194 4147 
L 1259 4147 
z
M 628 4666 
L 2241 4666 
Q 2963 4666 3353 4366 
Q 3744 4066 3744 3513 
Q 3744 3084 3544 2831 
Q 3344 2578 2956 2516 
Q 3422 2416 3680 2098 
Q 3938 1781 3938 1306 
Q 3938 681 3513 340 
Q 3088 0 2303 0 
L 628 0 
L 628 4666 
z
" transform="scale(0.015625)"/>
       </defs>
       <use xlink:href="#DejaVuSans-42"/>
       <use xlink:href="#DejaVuSans-20" transform="translate(68.603516 0)"/>
       <use xlink:href="#DejaVuSans-28" transform="translate(100.390625 0)"/>
       <use xlink:href="#DejaVuSans-33" transform="translate(139.404297 0)"/>
       <use xlink:href="#DejaVuSans-31" transform="translate(203.027344 0)"/>
       <use xlink:href="#DejaVuSans-29" transform="translate(266.650391 0)"/>
      </g>
     </g>
    </g>
    <g id="xtick_3">
     <g id="line2d_3">
      <g>
       <use xlink:href="#mdc2f32aa1c" x="403.53879" y="330.121395" style="stroke: #000000; stroke-width: 0.8"/>
      </g>
     </g>
     <g id="text_3">
      <!-- E (30) -->
      <g transform="translate(388.52629 344.719832) scale(0.1 -0.1)">
       <defs>
        <path id="DejaVuSans-45" d="M 628 4666 
L 3578 4666 
L 3578 4134 
L 1259 4134 
L 1259 2753 
L 3481 2753 
L 3481 2222 
L 1259 2222 
L 1259 531 
L 3634 531 
L 3634 0 
L 628 0 
L 628 4666 
z
" transform="scale(0.015625)"/>
        <path id="DejaVuSans-30" d="M 2034 4250 
Q 1547 4250 1301 3770 
Q 1056 3291 1056 2328 
Q 1056 1369 1301 889 
Q 1547 409 2034 409 
Q 2525 409 2770 889 
Q 3016 1369 3016 2328 
Q 3016 3291 2770 3770 
Q 2525 4250 2034 4250 
z
M 2034 4750 
Q 2819 4750 3233 4129 
Q 3647 3509 3647 2328 
Q 3647 1150 3233 529 
Q 2819 -91 2034 -91 
Q 1250 -91 836 529 
Q 422 1150 422 2328 
Q 422 3509 836 4129 
Q 1250 4750 2034 4750 
z
" transform="scale(0.015625)"/>
       </defs>
       <use xlink:href="#DejaVuSans-45"/>
       <use xlink:href="#DejaVuSans-20" transform="translate(63.183594 0)"/>
       <use xlink:href="#DejaVuSans-28" transform="translate(94.970703 0)"/>
       <use xlink:href="#DejaVuSans-33" transform="translate(133.984375 0)"/>
       <use xlink:href="#DejaVuSans-30" transform="translate(197.607422 0)"/>
       <use xlink:href="#DejaVuSans-29" transform="translate(261.230469 0)"/>
      </g>
     </g>
    </g>
   </g>
   <g id="matplotlib.axis_2">
    <g id="ytick_1">
     <g id="line2d_4">
      <defs>
       <path id="mdfd78a9643" d="M 0 0 
L -3.5 0 
" style="stroke: #000000; stroke-width: 0.8"/>
      </defs>
      <g>
       <use xlink:href="#mdfd78a9643" x="33.2875" y="300.9885" style="stroke: #000000; stroke-width: 0.8"/>
      </g>
     </g>
     <g id="text_4">
      <!-- 60 -->
      <g transform="translate(13.5625 304.787719) scale(0.1 -0.1)">
       <defs>
        <path id="DejaVuSans-36" d="M 2113 2584 
Q 1688 2584 1439 2293 
Q 1191 2003 1191 1497 
Q 1191 994 1439 701 
Q 1688 409 2113 409 
Q 2538 409 2786 701 
Q 3034 994 3034 1497 
Q 3034 2003 2786 2293 
Q 2538 2584 2113 2584 
z
M 3366 4563 
L 3366 3988 
Q 3128 4100 2886 4159 
Q 2644 4219 2406 4219 
Q 1781 4219 1451 3797 
Q 1122 3375 1075 2522 
Q 1259 2794 1537 2939 
Q 1816 3084 2150 3084 
Q 2853 3084 3261 2657 
Q 3669 2231 3669 1497 
Q 3669 778 3244 343 
Q 2819 -91 2113 -91 
Q 1303 -91 875 529 
Q 447 1150 447 2328 
Q 447 3434 972 4092 
Q 1497 4750 2381 4750 
Q 2619 4750 2861 4703 
Q 3103 4656 3366 4563 
z
" transform="scale(0.015625)"/>
       </defs>
       <use xlink:href="#DejaVuSans-36"/>
       <use xlink:href="#DejaVuSans-30" transform="translate(63.623047 0)"/>
      </g>
     </g>
    </g>
    <g id="ytick_2">
     <g id="line2d_5">
      <g>
       <use xlink:href="#mdfd78a9643" x="33.2875" y="240.42115" style="stroke: #000000; stroke-width: 0.8"/>
      </g>
     </g>
     <g id="text_5">
      <!-- 80 -->
      <g transform="translate(13.5625 244.220369) scale(0.1 -0.1)">
       <defs>
        <path id="DejaVuSans-38" d="M 2034 2216 
Q 1584 2216 1326 1975 
Q 1069 1734 1069 1313 
Q 1069 891 1326 650 
Q 1584 409 2034 409 
Q 2484 409 2743 651 
Q 3003 894 3003 1313 
Q 3003 1734 2745 1975 
Q 2488 2216 2034 2216 
z
M 1403 2484 
Q 997 2584 770 2862 
Q 544 3141 544 3541 
Q 544 4100 942 4425 
Q 1341 4750 2034 4750 
Q 2731 4750 3128 4425 
Q 3525 4100 3525 3541 
Q 3525 3141 3298 2862 
Q 3072 2584 2669 2484 
Q 3125 2378 3379 2068 
Q 3634 1759 3634 1313 
Q 3634 634 3220 271 
Q 2806 -91 2034 -91 
Q 1263 -91 848 271 
Q 434 634 434 1313 
Q 434 1759 690 2068 
Q 947 2378 1403 2484 
z
M 1172 3481 
Q 1172 3119 1398 2916 
Q 1625 2713 2034 2713 
Q 2441 2713 2670 2916 
Q 2900 3119 2900 3481 
Q 2900 3844 2670 4047 
Q 2441 4250 2034 4250 
Q 1625 4250 1398 4047 
Q 1172 3844 1172 3481 
z
" transform="scale(0.015625)"/>
       </defs>
       <use xlink:href="#DejaVuSans-38"/>
       <use xlink:href="#DejaVuSans-30" transform="translate(63.623047 0)"/>
      </g>
     </g>
    </g>
    <g id="ytick_3">
     <g id="line2d_6">
      <g>
       <use xlink:href="#mdfd78a9643" x="33.2875" y="179.853801" style="stroke: #000000; stroke-width: 0.8"/>
      </g>
     </g>
     <g id="text_6">
      <!-- 100 -->
      <g transform="translate(7.2 183.65302) scale(0.1 -0.1)">
       <use xlink:href="#DejaVuSans-31"/>
       <use xlink:href="#DejaVuSans-30" transform="translate(63.623047 0)"/>
       <use xlink:href="#DejaVuSans-30" transform="translate(127.246094 0)"/>
      </g>
     </g>
    </g>
    <g id="ytick_4">
     <g id="line2d_7">
      <g>
       <use xlink:href="#mdfd78a9643" x="33.2875" y="119.286451" style="stroke: #000000; stroke-width: 0.8"/>
      </g>
     </g>
     <g id="text_7">
      <!-- 120 -->
      <g transform="translate(7.2 123.08567) scale(0.1 -0.1)">
       <defs>
        <path id="DejaVuSans-32" d="M 1228 531 
L 3431 531 
L 3431 0 
L 469 0 
L 469 531 
Q 828 903 1448 1529 
Q 2069 2156 2228 2338 
Q 2531 2678 2651 2914 
Q 2772 3150 2772 3378 
Q 2772 3750 2511 3984 
Q 2250 4219 1831 4219 
Q 1534 4219 1204 4116 
Q 875 4013 500 3803 
L 500 4441 
Q 881 4594 1212 4672 
Q 1544 4750 1819 4750 
Q 2544 4750 2975 4387 
Q 3406 4025 3406 3419 
Q 3406 3131 3298 2873 
Q 3191 2616 2906 2266 
Q 2828 2175 2409 1742 
Q 1991 1309 1228 531 
z
" transform="scale(0.015625)"/>
       </defs>
       <use xlink:href="#DejaVuSans-31"/>
       <use xlink:href="#DejaVuSans-32" transform="translate(63.623047 0)"/>
       <use xlink:href="#DejaVuSans-30" transform="translate(127.246094 0)"/>
      </g>
     </g>
    </g>
    <g id="ytick_5">
     <g id="line2d_8">
      <g>
       <use xlink:href="#mdfd78a9643" x="33.2875" y="58.719102" style="stroke: #000000; stroke-width: 0.8"/>
      </g>
     </g>
     <g id="text_8">
      <!-- 140 -->
      <g transform="translate(7.2 62.518321) scale(0.1 -0.1)">
       <defs>
        <path id="DejaVuSans-34" d="M 2419 4116 
L 825 1625 
L 2419 1625 
L 2419 4116 
z
M 2253 4666 
L 3047 4666 
L 3047 1625 
L 3713 1625 
L 3713 1100 
L 3047 1100 
L 3047 0 
L 2419 0 
L 2419 1100 
L 313 1100 
L 313 1709 
L 2253 4666 
z
" transform="scale(0.015625)"/>
       </defs>
       <use xlink:href="#DejaVuSans-31"/>
       <use xlink:href="#DejaVuSans-34" transform="translate(63.623047 0)"/>
       <use xlink:href="#DejaVuSans-30" transform="translate(127.246094 0)"/>
      </g>
     </g>
    </g>
   </g>
   <g id="LineCollection_1">
    <path d="M 72.26132 36.309183 
L 111.23514 36.309183 
" clip-path="url(#pf8e9b3f4fb)" style="fill: none; stroke: #1f77b4; stroke-width: 1.5"/>
    <path d="M 228.1566 36.309183 
L 267.13042 36.309183 
" clip-path="url(#pf8e9b3f4fb)" style="fill: none; stroke: #1f77b4; stroke-width: 1.5"/>
    <path d="M 384.05188 164.409127 
L 423.0257 164.409127 
" clip-path="url(#pf8e9b3f4fb)" style="fill: none; stroke: #1f77b4; stroke-width: 1.5"/>
   </g>
   <g id="LineCollection_2">
    <path d="M 72.26132 316.130337 
L 111.23514 316.130337 
" clip-path="url(#pf8e9b3f4fb)" style="fill: none; stroke: #1f77b4; stroke-width: 1.5"/>
    <path d="M 228.1566 216.799884 
L 267.13042 216.799884 
" clip-path="url(#pf8e9b3f4fb)" style="fill: none; stroke: #1f77b4; stroke-width: 1.5"/>
    <path d="M 384.05188 313.10197 
L 423.0257 313.10197 
" clip-path="url(#pf8e9b3f4fb)" style="fill: none; stroke: #1f77b4; stroke-width: 1.5"/>
   </g>
   <g id="LineCollection_3">
    <path d="M 91.74823 316.130337 
L 91.74823 36.309183 
" clip-path="url(#pf8e9b3f4fb)" style="fill: none; stroke: #1f77b4; stroke-width: 1.5"/>
    <path d="M 247.64351 216.799884 
L 247.64351 36.309183 
" clip-path="url(#pf8e9b3f4fb)" style="fill: none; stroke: #1f77b4; stroke-width: 1.5"/>
    <path d="M 403.53879 313.10197 
L 403.53879 164.409127 
" clip-path="url(#pf8e9b3f4fb)" style="fill: none; stroke: #1f77b4; stroke-width: 1.5"/>
   </g>
   <g id="LineCollection_4">
    <path d="M 72.26132 156.232535 
L 111.23514 156.232535 
" clip-path="url(#pf8e9b3f4fb)" style="fill: none; stroke: #1f77b4; stroke-width: 1.5"/>
    <path d="M 228.1566 155.324024 
L 267.13042 155.324024 
" clip-path="url(#pf8e9b3f4fb)" style="fill: none; stroke: #1f77b4; stroke-width: 1.5"/>
    <path d="M 384.05188 220.585343 
L 423.0257 220.585343 
" clip-path="url(#pf8e9b3f4fb)" style="fill: none; stroke: #1f77b4; stroke-width: 1.5"/>
   </g>
   <g id="LineCollection_5">
    <path d="M 91.74823 177.12827 
L 91.74823 135.639636 
" clip-path="url(#pf8e9b3f4fb)" style="fill: none; stroke: #000000; stroke-width: 5"/>
    <path d="M 247.64351 173.342811 
L 247.64351 133.065524 
" clip-path="url(#pf8e9b3f4fb)" style="fill: none; stroke: #000000; stroke-width: 5"/>
    <path d="M 403.53879 258.969901 
L 403.53879 194.692802 
" clip-path="url(#pf8e9b3f4fb)" style="fill: none; stroke: #000000; stroke-width: 5"/>
   </g>
   <g id="LineCollection_6">
    <path d="M 91.74823 239.361222 
L 91.74823 162.894943 
" clip-path="url(#pf8e9b3f4fb)" style="fill: none; stroke: #000000"/>
    <path d="M 247.64351 173.342811 
L 247.64351 162.894943 
" clip-path="url(#pf8e9b3f4fb)" style="fill: none; stroke: #000000"/>
    <path d="M 403.53879 258.969901 
L 403.53879 313.10197 
" clip-path="url(#pf8e9b3f4fb)" style="fill: none; stroke: #000000"/>
   </g>
   <g id="line2d_9">
    <defs>
     <path id="m9740d1e1e3" d="M 0 3 
C 0.795609 3 1.55874 2.683901 2.12132 2.12132 
C 2.683901 1.55874 3 0.795609 3 0 
C 3 -0.795609 2.683901 -1.55874 2.12132 -2.12132 
C 1.55874 -2.683901 0.795609 -3 0 -3 
C -0.795609 -3 -1.55874 -2.683901 -2.12132 -2.12132 
C -2.683901 -1.55874 -3 -0.795609 -3 0 
C -3 0.795609 -2.683901 1.55874 -2.12132 2.12132 
C -1.55874 2.683901 -0.795609 3 0 3 
z
" style="stroke: #ff0000"/>
    </defs>
    <g clip-path="url(#pf8e9b3f4fb)">
     <use xlink:href="#m9740d1e1e3" x="91.74823" y="158.000711" style="fill: #ff0000; stroke: #ff0000"/>
    </g>
   </g>
   <g id="line2d_10">
    <g clip-path="url(#pf8e9b3f4fb)">
     <use xlink:href="#m9740d1e1e3" x="247.64351" y="151.455529" style="fill: #ff0000; stroke: #ff0000"/>
    </g>
   </g>
   <g id="line2d_11">
    <g clip-path="url(#pf8e9b3f4fb)">
     <use xlink:href="#m9740d1e1e3" x="403.53879" y="225.794136" style="fill: #ff0000; stroke: #ff0000"/>
    </g>
   </g>
   <g id="patch_3">
    <path d="M 33.2875 330.121395 
L 33.2875 22.318125 
" style="fill: none; stroke: #000000; stroke-width: 0.8; stroke-linejoin: miter; stroke-linecap: square"/>
   </g>
   <g id="patch_4">
    <path d="M 461.99952 330.121395 
L 461.99952 22.318125 
" style="fill: none; stroke: #000000; stroke-width: 0.8; stroke-linejoin: miter; stroke-linecap: square"/>
   </g>
   <g id="patch_5">
    <path d="M 33.2875 330.121395 
L 461.99952 330.121395 
" style="fill: none; stroke: #000000; stroke-width: 0.8; stroke-linejoin: miter; stroke-linecap: square"/>
   </g>
   <g id="patch_6">
    <path d="M 33.2875 22.318125 
L 461.99952 22.318125 
" style="fill: none; stroke: #000000; stroke-width: 0.8; stroke-linejoin: miter; stroke-linecap: square"/>
   </g>
   <g id="text_9">
    <!-- Single Violin Plot: Specified Colors -->
    <g transform="translate(145.449447 16.318125) scale(0.12 -0.12)">
     <defs>
      <path id="DejaVuSans-53" d="M 3425 4513 
L 3425 3897 
Q 3066 4069 2747 4153 
Q 2428 4238 2131 4238 
Q 1616 4238 1336 4038 
Q 1056 3838 1056 3469 
Q 1056 3159 1242 3001 
Q 1428 2844 1947 2747 
L 2328 2669 
Q 3034 2534 3370 2195 
Q 3706 1856 3706 1288 
Q 3706 609 3251 259 
Q 2797 -91 1919 -91 
Q 1588 -91 1214 -16 
Q 841 59 441 206 
L 441 856 
Q 825 641 1194 531 
Q 1563 422 1919 422 
Q 2459 422 2753 634 
Q 3047 847 3047 1241 
Q 3047 1584 2836 1778 
Q 2625 1972 2144 2069 
L 1759 2144 
Q 1053 2284 737 2584 
Q 422 2884 422 3419 
Q 422 4038 858 4394 
Q 1294 4750 2059 4750 
Q 2388 4750 2728 4690 
Q 3069 4631 3425 4513 
z
" transform="scale(0.015625)"/>
      <path id="DejaVuSans-69" d="M 603 3500 
L 1178 3500 
L 1178 0 
L 603 0 
L 603 3500 
z
M 603 4863 
L 1178 4863 
L 1178 4134 
L 603 4134 
L 603 4863 
z
" transform="scale(0.015625)"/>
      <path id="DejaVuSans-6e" d="M 3513 2113 
L 3513 0 
L 2938 0 
L 2938 2094 
Q 2938 2591 2744 2837 
Q 2550 3084 2163 3084 
Q 1697 3084 1428 2787 
Q 1159 2491 1159 1978 
L 1159 0 
L 581 0 
L 581 3500 
L 1159 3500 
L 1159 2956 
Q 1366 3272 1645 3428 
Q 1925 3584 2291 3584 
Q 2894 3584 3203 3211 
Q 3513 2838 3513 2113 
z
" transform="scale(0.015625)"/>
      <path id="DejaVuSans-67" d="M 2906 1791 
Q 2906 2416 2648 2759 
Q 2391 3103 1925 3103 
Q 1463 3103 1205 2759 
Q 947 2416 947 1791 
Q 947 1169 1205 825 
Q 1463 481 1925 481 
Q 2391 481 2648 825 
Q 2906 1169 2906 1791 
z
M 3481 434 
Q 3481 -459 3084 -895 
Q 2688 -1331 1869 -1331 
Q 1566 -1331 1297 -1286 
Q 1028 -1241 775 -1147 
L 775 -588 
Q 1028 -725 1275 -790 
Q 1522 -856 1778 -856 
Q 2344 -856 2625 -561 
Q 2906 -266 2906 331 
L 2906 616 
Q 2728 306 2450 153 
Q 2172 0 1784 0 
Q 1141 0 747 490 
Q 353 981 353 1791 
Q 353 2603 747 3093 
Q 1141 3584 1784 3584 
Q 2172 3584 2450 3431 
Q 2728 3278 2906 2969 
L 2906 3500 
L 3481 3500 
L 3481 434 
z
" transform="scale(0.015625)"/>
      <path id="DejaVuSans-6c" d="M 603 4863 
L 1178 4863 
L 1178 0 
L 603 0 
L 603 4863 
z
" transform="scale(0.015625)"/>
      <path id="DejaVuSans-65" d="M 3597 1894 
L 3597 1613 
L 953 1613 
Q 991 1019 1311 708 
Q 1631 397 2203 397 
Q 2534 397 2845 478 
Q 3156 559 3463 722 
L 3463 178 
Q 3153 47 2828 -22 
Q 2503 -91 2169 -91 
Q 1331 -91 842 396 
Q 353 884 353 1716 
Q 353 2575 817 3079 
Q 1281 3584 2069 3584 
Q 2775 3584 3186 3129 
Q 3597 2675 3597 1894 
z
M 3022 2063 
Q 3016 2534 2758 2815 
Q 2500 3097 2075 3097 
Q 1594 3097 1305 2825 
Q 1016 2553 972 2059 
L 3022 2063 
z
" transform="scale(0.015625)"/>
      <path id="DejaVuSans-56" d="M 1831 0 
L 50 4666 
L 709 4666 
L 2188 738 
L 3669 4666 
L 4325 4666 
L 2547 0 
L 1831 0 
z
" transform="scale(0.015625)"/>
      <path id="DejaVuSans-6f" d="M 1959 3097 
Q 1497 3097 1228 2736 
Q 959 2375 959 1747 
Q 959 1119 1226 758 
Q 1494 397 1959 397 
Q 2419 397 2687 759 
Q 2956 1122 2956 1747 
Q 2956 2369 2687 2733 
Q 2419 3097 1959 3097 
z
M 1959 3584 
Q 2709 3584 3137 3096 
Q 3566 2609 3566 1747 
Q 3566 888 3137 398 
Q 2709 -91 1959 -91 
Q 1206 -91 779 398 
Q 353 888 353 1747 
Q 353 2609 779 3096 
Q 1206 3584 1959 3584 
z
" transform="scale(0.015625)"/>
      <path id="DejaVuSans-50" d="M 1259 4147 
L 1259 2394 
L 2053 2394 
Q 2494 2394 2734 2622 
Q 2975 2850 2975 3272 
Q 2975 3691 2734 3919 
Q 2494 4147 2053 4147 
L 1259 4147 
z
M 628 4666 
L 2053 4666 
Q 2838 4666 3239 4311 
Q 3641 3956 3641 3272 
Q 3641 2581 3239 2228 
Q 2838 1875 2053 1875 
L 1259 1875 
L 1259 0 
L 628 0 
L 628 4666 
z
" transform="scale(0.015625)"/>
      <path id="DejaVuSans-74" d="M 1172 4494 
L 1172 3500 
L 2356 3500 
L 2356 3053 
L 1172 3053 
L 1172 1153 
Q 1172 725 1289 603 
Q 1406 481 1766 481 
L 2356 481 
L 2356 0 
L 1766 0 
Q 1100 0 847 248 
Q 594 497 594 1153 
L 594 3053 
L 172 3053 
L 172 3500 
L 594 3500 
L 594 4494 
L 1172 4494 
z
" transform="scale(0.015625)"/>
      <path id="DejaVuSans-3a" d="M 750 794 
L 1409 794 
L 1409 0 
L 750 0 
L 750 794 
z
M 750 3309 
L 1409 3309 
L 1409 2516 
L 750 2516 
L 750 3309 
z
" transform="scale(0.015625)"/>
      <path id="DejaVuSans-70" d="M 1159 525 
L 1159 -1331 
L 581 -1331 
L 581 3500 
L 1159 3500 
L 1159 2969 
Q 1341 3281 1617 3432 
Q 1894 3584 2278 3584 
Q 2916 3584 3314 3078 
Q 3713 2572 3713 1747 
Q 3713 922 3314 415 
Q 2916 -91 2278 -91 
Q 1894 -91 1617 61 
Q 1341 213 1159 525 
z
M 3116 1747 
Q 3116 2381 2855 2742 
Q 2594 3103 2138 3103 
Q 1681 3103 1420 2742 
Q 1159 2381 1159 1747 
Q 1159 1113 1420 752 
Q 1681 391 2138 391 
Q 2594 391 2855 752 
Q 3116 1113 3116 1747 
z
" transform="scale(0.015625)"/>
      <path id="DejaVuSans-63" d="M 3122 3366 
L 3122 2828 
Q 2878 2963 2633 3030 
Q 2388 3097 2138 3097 
Q 1578 3097 1268 2742 
Q 959 2388 959 1747 
Q 959 1106 1268 751 
Q 1578 397 2138 397 
Q 2388 397 2633 464 
Q 2878 531 3122 666 
L 3122 134 
Q 2881 22 2623 -34 
Q 2366 -91 2075 -91 
Q 1284 -91 818 406 
Q 353 903 353 1747 
Q 353 2603 823 3093 
Q 1294 3584 2113 3584 
Q 2378 3584 2631 3529 
Q 2884 3475 3122 3366 
z
" transform="scale(0.015625)"/>
      <path id="DejaVuSans-66" d="M 2375 4863 
L 2375 4384 
L 1825 4384 
Q 1516 4384 1395 4259 
Q 1275 4134 1275 3809 
L 1275 3500 
L 2222 3500 
L 2222 3053 
L 1275 3053 
L 1275 0 
L 697 0 
L 697 3053 
L 147 3053 
L 147 3500 
L 697 3500 
L 697 3744 
Q 697 4328 969 4595 
Q 1241 4863 1831 4863 
L 2375 4863 
z
" transform="scale(0.015625)"/>
      <path id="DejaVuSans-64" d="M 2906 2969 
L 2906 4863 
L 3481 4863 
L 3481 0 
L 2906 0 
L 2906 525 
Q 2725 213 2448 61 
Q 2172 -91 1784 -91 
Q 1150 -91 751 415 
Q 353 922 353 1747 
Q 353 2572 751 3078 
Q 1150 3584 1784 3584 
Q 2172 3584 2448 3432 
Q 2725 3281 2906 2969 
z
M 947 1747 
Q 947 1113 1208 752 
Q 1469 391 1925 391 
Q 2381 391 2643 752 
Q 2906 1113 2906 1747 
Q 2906 2381 2643 2742 
Q 2381 3103 1925 3103 
Q 1469 3103 1208 2742 
Q 947 2381 947 1747 
z
" transform="scale(0.015625)"/>
      <path id="DejaVuSans-43" d="M 4122 4306 
L 4122 3641 
Q 3803 3938 3442 4084 
Q 3081 4231 2675 4231 
Q 1875 4231 1450 3742 
Q 1025 3253 1025 2328 
Q 1025 1406 1450 917 
Q 1875 428 2675 428 
Q 3081 428 3442 575 
Q 3803 722 4122 1019 
L 4122 359 
Q 3791 134 3420 21 
Q 3050 -91 2638 -91 
Q 1578 -91 968 557 
Q 359 1206 359 2328 
Q 359 3453 968 4101 
Q 1578 4750 2638 4750 
Q 3056 4750 3426 4639 
Q 3797 4528 4122 4306 
z
" transform="scale(0.015625)"/>
      <path id="DejaVuSans-72" d="M 2631 2963 
Q 2534 3019 2420 3045 
Q 2306 3072 2169 3072 
Q 1681 3072 1420 2755 
Q 1159 2438 1159 1844 
L 1159 0 
L 581 0 
L 581 3500 
L 1159 3500 
L 1159 2956 
Q 1341 3275 1631 3429 
Q 1922 3584 2338 3584 
Q 2397 3584 2469 3576 
Q 2541 3569 2628 3553 
L 2631 2963 
z
" transform="scale(0.015625)"/>
      <path id="DejaVuSans-73" d="M 2834 3397 
L 2834 2853 
Q 2591 2978 2328 3040 
Q 2066 3103 1784 3103 
Q 1356 3103 1142 2972 
Q 928 2841 928 2578 
Q 928 2378 1081 2264 
Q 1234 2150 1697 2047 
L 1894 2003 
Q 2506 1872 2764 1633 
Q 3022 1394 3022 966 
Q 3022 478 2636 193 
Q 2250 -91 1575 -91 
Q 1294 -91 989 -36 
Q 684 19 347 128 
L 347 722 
Q 666 556 975 473 
Q 1284 391 1588 391 
Q 1994 391 2212 530 
Q 2431 669 2431 922 
Q 2431 1156 2273 1281 
Q 2116 1406 1581 1522 
L 1381 1569 
Q 847 1681 609 1914 
Q 372 2147 372 2553 
Q 372 3047 722 3315 
Q 1072 3584 1716 3584 
Q 2034 3584 2315 3537 
Q 2597 3491 2834 3397 
z
" transform="scale(0.015625)"/>
     </defs>
     <use xlink:href="#DejaVuSans-53"/>
     <use xlink:href="#DejaVuSans-69" transform="translate(63.476562 0)"/>
     <use xlink:href="#DejaVuSans-6e" transform="translate(91.259766 0)"/>
     <use xlink:href="#DejaVuSans-67" transform="translate(154.638672 0)"/>
     <use xlink:href="#DejaVuSans-6c" transform="translate(218.115234 0)"/>
     <use xlink:href="#DejaVuSans-65" transform="translate(245.898438 0)"/>
     <use xlink:href="#DejaVuSans-20" transform="translate(307.421875 0)"/>
     <use xlink:href="#DejaVuSans-56" transform="translate(339.208984 0)"/>
     <use xlink:href="#DejaVuSans-69" transform="translate(405.367188 0)"/>
     <use xlink:href="#DejaVuSans-6f" transform="translate(433.150391 0)"/>
     <use xlink:href="#DejaVuSans-6c" transform="translate(494.332031 0)"/>
     <use xlink:href="#DejaVuSans-69" transform="translate(522.115234 0)"/>
     <use xlink:href="#DejaVuSans-6e" transform="translate(549.898438 0)"/>
     <use xlink:href="#DejaVuSans-20" transform="translate(613.277344 0)"/>
     <use xlink:href="#DejaVuSans-50" transform="translate(645.064453 0)"/>
     <use xlink:href="#DejaVuSans-6c" transform="translate(705.367188 0)"/>
     <use xlink:href="#DejaVuSans-6f" transform="translate(733.150391 0)"/>
     <use xlink:href="#DejaVuSans-74" transform="translate(794.332031 0)"/>
     <use xlink:href="#DejaVuSans-3a" transform="translate(833.541016 0)"/>
     <use xlink:href="#DejaVuSans-20" transform="translate(867.232422 0)"/>
     <use xlink:href="#DejaVuSans-53" transform="translate(899.019531 0)"/>
     <use xlink:href="#DejaVuSans-70" transform="translate(962.496094 0)"/>
     <use xlink:href="#DejaVuSans-65" transform="translate(1025.972656 0)"/>
     <use xlink:href="#DejaVuSans-63" transform="translate(1087.496094 0)"/>
     <use xlink:href="#DejaVuSans-69" transform="translate(1142.476562 0)"/>
     <use xlink:href="#DejaVuSans-66" transform="translate(1170.259766 0)"/>
     <use xlink:href="#DejaVuSans-69" transform="translate(1205.464844 0)"/>
     <use xlink:href="#DejaVuSans-65" transform="translate(1233.248047 0)"/>
     <use xlink:href="#DejaVuSans-64" transform="translate(1294.771484 0)"/>
     <use xlink:href="#DejaVuSans-20" transform="translate(1358.248047 0)"/>
     <use xlink:href="#DejaVuSans-43" transform="translate(1390.035156 0)"/>
     <use xlink:href="#DejaVuSans-6f" transform="translate(1459.859375 0)"/>
     <use xlink:href="#DejaVuSans-6c" transform="translate(1521.041016 0)"/>
     <use xlink:href="#DejaVuSans-6f" transform="translate(1548.824219 0)"/>
     <use xlink:href="#DejaVuSans-72" transform="translate(1610.005859 0)"/>
     <use xlink:href="#DejaVuSans-73" transform="translate(1651.119141 0)"/>
    </g>
   </g>
  </g>
 </g>
 <defs>
  <clipPath id="pf8e9b3f4fb">
   <rect x="33.2875" y="22.318125" width="428.71202" height="307.80327"/>
  </clipPath>
 </defs>
</svg>
