<?xml version="1.0" encoding="utf-8" standalone="no"?>
<!DOCTYPE svg PUBLIC "-//W3C//DTD SVG 1.1//EN"
  "http://www.w3.org/Graphics/SVG/1.1/DTD/svg11.dtd">
<svg xmlns:xlink="http://www.w3.org/1999/xlink" width="469.19952pt" height="353.99952pt" viewBox="0 0 469.19952 353.99952" xmlns="http://www.w3.org/2000/svg" version="1.1">
 <metadata>
  <rdf:RDF xmlns:dc="http://purl.org/dc/elements/1.1/" xmlns:cc="http://creativecommons.org/ns#" xmlns:rdf="http://www.w3.org/1999/02/22-rdf-syntax-ns#">
   <cc:Work>
    <dc:type rdf:resource="http://purl.org/dc/dcmitype/StillImage"/>
    <dc:date>2025-12-27T13:09:15.464017</dc:date>
    <dc:format>image/svg+xml</dc:format>
    <dc:creator>
     <cc:Agent>
      <dc:title>made/written by /home/con/Scripts/python/matplotlib/MatPlotLib-Simple/t/01.all.tests.t called using "plt" in /home/con/perl5/perlbrew/perls/perl-5.42.0/lib/site_perl/5.42.0/x86_64-linux/Matplotlib/Simple.pm</dc:title>
     </cc:Agent>
    </dc:creator>
   </cc:Work>
  </rdf:RDF>
 </metadata>
 <defs>
  <style type="text/css">*{stroke-linejoin: round; stroke-linecap: butt}</style>
 </defs>
 <g id="figure_1">
  <g id="patch_1">
   <path d="M 0 353.99952 
L 469.19952 353.99952 
L 469.19952 0 
L 0 0 
z
" style="fill: #ffffff"/>
  </g>
  <g id="axes_1">
   <g id="patch_2">
    <path d="M 28.942187 330.121395 
L 461.99952 330.121395 
L 461.99952 22.318125 
L 28.942187 22.318125 
z
" style="fill: #ffffff"/>
   </g>
   <g id="FillBetweenPolyCollection_1">
    <defs>
     <path id="ma04517f089" d="M 442.315096 -305.695845 
L 442.315096 -294.993206 
L 438.378211 -295.4639 
L 434.441326 -298.643608 
L 430.504441 -302.31857 
L 426.567556 -295.562479 
L 422.630672 -293.435086 
L 418.693787 -300.527412 
L 414.756902 -295.894341 
L 410.820017 -300.393973 
L 406.883132 -301.438123 
L 402.946247 -298.513798 
L 399.009363 -299.155337 
L 395.072478 -300.045238 
L 391.135593 -296.341767 
L 387.198708 -296.233718 
L 383.261823 -295.290185 
L 379.324938 -294.809071 
L 375.388054 -290.2638 
L 371.451169 -290.336 
L 367.514284 -294.575457 
L 363.577399 -290.353509 
L 359.640514 -290.519695 
L 355.703629 -291.803603 
L 351.766744 -289.061329 
L 347.82986 -294.941652 
L 343.892975 -293.770941 
L 339.95609 -294.587173 
L 336.019205 -291.861749 
L 332.08232 -288.358436 
L 328.145435 -290.365791 
L 324.208551 -291.862487 
L 320.271666 -289.802652 
L 316.334781 -285.085782 
L 312.397896 -289.933974 
L 308.461011 -287.985791 
L 304.524126 -288.750986 
L 300.587242 -288.057086 
L 296.650357 -286.290086 
L 292.713472 -285.513232 
L 288.776587 -282.754999 
L 284.839702 -286.123284 
L 280.902817 -282.748013 
L 276.965932 -282.303545 
L 273.029048 -284.187589 
L 269.092163 -284.809748 
L 265.155278 -282.264324 
L 261.218393 -280.298213 
L 257.281508 -276.485503 
L 253.344623 -276.07592 
L 249.407739 -279.187641 
L 245.470854 -279.477596 
L 241.533969 -277.200803 
L 237.597084 -276.733533 
L 233.660199 -276.969372 
L 229.723314 -276.962893 
L 225.78643 -274.952941 
L 221.849545 -270.805938 
L 217.91266 -271.219785 
L 213.975775 -267.480215 
L 210.03889 -270.182913 
L 206.102005 -267.200564 
L 202.165121 -265.489542 
L 198.228236 -266.137141 
L 194.291351 -265.213226 
L 190.354466 -264.061921 
L 186.417581 -261.423389 
L 182.480696 -253.94261 
L 178.543811 -257.249508 
L 174.606927 -252.119851 
L 170.670042 -254.030531 
L 166.733157 -252.621182 
L 162.796272 -249.208268 
L 158.859387 -248.580365 
L 154.922502 -247.197822 
L 150.985618 -244.227885 
L 147.048733 -238.777593 
L 143.111848 -237.977706 
L 139.174963 -235.853279 
L 135.238078 -229.878656 
L 131.301193 -228.300285 
L 127.364309 -228.507994 
L 123.427424 -224.464785 
L 119.490539 -222.052013 
L 115.553654 -217.512457 
L 111.616769 -210.64909 
L 107.679884 -208.080214 
L 103.742999 -200.905049 
L 99.806115 -199.115479 
L 95.86923 -191.554935 
L 91.932345 -185.407276 
L 87.99546 -178.867612 
L 84.058575 -171.21614 
L 80.12169 -162.688756 
L 76.184806 -155.384304 
L 72.247921 -142.609527 
L 68.311036 -131.646087 
L 64.374151 -116.559968 
L 60.437266 -103.26347 
L 56.500381 -86.440401 
L 52.563497 -65.302606 
L 48.626612 -44.076434 
L 48.626612 -74.588621 
L 48.626612 -74.588621 
L 52.563497 -84.291397 
L 56.500381 -109.070616 
L 60.437266 -125.03057 
L 64.374151 -144.878442 
L 68.311036 -152.156558 
L 72.247921 -161.731682 
L 76.184806 -177.807851 
L 80.12169 -174.318264 
L 84.058575 -182.774317 
L 87.99546 -191.867861 
L 91.932345 -195.664694 
L 95.86923 -205.035706 
L 99.806115 -218.061575 
L 103.742999 -221.366923 
L 107.679884 -220.137898 
L 111.616769 -226.437906 
L 115.553654 -230.662731 
L 119.490539 -238.096306 
L 123.427424 -244.339651 
L 127.364309 -242.785312 
L 131.301193 -241.543107 
L 135.238078 -245.769066 
L 139.174963 -239.063189 
L 143.111848 -239.321718 
L 147.048733 -247.413015 
L 150.985618 -251.828773 
L 154.922502 -259.487514 
L 158.859387 -262.472649 
L 162.796272 -263.877618 
L 166.733157 -264.605806 
L 170.670042 -266.866344 
L 174.606927 -271.664415 
L 178.543811 -268.098655 
L 182.480696 -271.53262 
L 186.417581 -270.810326 
L 190.354466 -276.944537 
L 194.291351 -276.091819 
L 198.228236 -274.904918 
L 202.165121 -280.260444 
L 206.102005 -284.674722 
L 210.03889 -281.069604 
L 213.975775 -280.961244 
L 217.91266 -279.032257 
L 221.849545 -283.335433 
L 225.78643 -287.172896 
L 229.723314 -293.091574 
L 233.660199 -288.523999 
L 237.597084 -282.454082 
L 241.533969 -282.419266 
L 245.470854 -290.277577 
L 249.407739 -294.757295 
L 253.344623 -288.192711 
L 257.281508 -285.192513 
L 261.218393 -283.098904 
L 265.155278 -288.566193 
L 269.092163 -297.831312 
L 273.029048 -292.589442 
L 276.965932 -284.994745 
L 280.902817 -291.5832 
L 284.839702 -292.574756 
L 288.776587 -296.152628 
L 292.713472 -297.124759 
L 296.650357 -293.665815 
L 300.587242 -294.686243 
L 304.524126 -297.653369 
L 308.461011 -290.442186 
L 312.397896 -297.729191 
L 316.334781 -298.724642 
L 320.271666 -293.178975 
L 324.208551 -298.661839 
L 328.145435 -300.83164 
L 332.08232 -294.2464 
L 336.019205 -301.414376 
L 339.95609 -306.160833 
L 343.892975 -300.494134 
L 347.82986 -303.163081 
L 351.766744 -292.996851 
L 355.703629 -302.406152 
L 359.640514 -306.556131 
L 363.577399 -300.366945 
L 367.514284 -298.904573 
L 371.451169 -295.223736 
L 375.388054 -305.555611 
L 379.324938 -296.981502 
L 383.261823 -297.871212 
L 387.198708 -301.462092 
L 391.135593 -298.481302 
L 395.072478 -306.629815 
L 399.009363 -306.629815 
L 402.946247 -305.048841 
L 406.883132 -306.629815 
L 410.820017 -306.629815 
L 414.756902 -306.629815 
L 418.693787 -306.629815 
L 422.630672 -299.121348 
L 426.567556 -300.462498 
L 430.504441 -306.629815 
L 434.441326 -306.629815 
L 438.378211 -303.341442 
L 442.315096 -305.695845 
z
" style="stroke: #008000; stroke-opacity: 0.3"/>
    </defs>
    <g clip-path="url(#p11f9388389)">
     <use xlink:href="#ma04517f089" x="0" y="353.99952" style="fill: #008000; fill-opacity: 0.3; stroke: #008000; stroke-opacity: 0.3"/>
    </g>
   </g>
   <g id="FillBetweenPolyCollection_2">
    <defs>
     <path id="me228edf1b9" d="M 442.315096 -305.950654 
L 442.315096 -299.901199 
L 438.378211 -304.082926 
L 434.441326 -305.67259 
L 430.504441 -305.820856 
L 426.567556 -301.266514 
L 422.630672 -297.962504 
L 418.693787 -306.604452 
L 414.756902 -306.184247 
L 410.820017 -297.719744 
L 406.883132 -295.925577 
L 402.946247 -303.145915 
L 399.009363 -305.456051 
L 395.072478 -297.280554 
L 391.135593 -296.697752 
L 387.198708 -302.123427 
L 383.261823 -303.859633 
L 379.324938 -298.441692 
L 375.388054 -300.473038 
L 371.451169 -302.246581 
L 367.514284 -296.241683 
L 363.577399 -292.343426 
L 359.640514 -296.881361 
L 355.703629 -293.252941 
L 351.766744 -292.499266 
L 347.82986 -298.266303 
L 343.892975 -296.042893 
L 339.95609 -287.385939 
L 336.019205 -293.40785 
L 332.08232 -297.839791 
L 328.145435 -295.494316 
L 324.208551 -297.66965 
L 320.271666 -297.422025 
L 316.334781 -296.739206 
L 312.397896 -292.043211 
L 308.461011 -292.344951 
L 304.524126 -291.69288 
L 300.587242 -289.157829 
L 296.650357 -288.499367 
L 292.713472 -292.965879 
L 288.776587 -291.460647 
L 284.839702 -289.265463 
L 280.902817 -286.612784 
L 276.965932 -290.963598 
L 273.029048 -287.638673 
L 269.092163 -282.937655 
L 265.155278 -279.622492 
L 261.218393 -282.38964 
L 257.281508 -283.6056 
L 253.344623 -284.896831 
L 249.407739 -286.091041 
L 245.470854 -283.246072 
L 241.533969 -275.45623 
L 237.597084 -276.7834 
L 233.660199 -274.464708 
L 229.723314 -278.402324 
L 225.78643 -280.790663 
L 221.849545 -280.201006 
L 217.91266 -278.847399 
L 213.975775 -272.558025 
L 210.03889 -276.557532 
L 206.102005 -273.823695 
L 202.165121 -267.367296 
L 198.228236 -264.989029 
L 194.291351 -269.271986 
L 190.354466 -266.032433 
L 186.417581 -267.178619 
L 182.480696 -269.436193 
L 178.543811 -265.014389 
L 174.606927 -265.089458 
L 170.670042 -258.662134 
L 166.733157 -252.52767 
L 162.796272 -254.549292 
L 158.859387 -251.253242 
L 154.922502 -248.032939 
L 150.985618 -252.15556 
L 147.048733 -241.887288 
L 143.111848 -239.089548 
L 139.174963 -240.397081 
L 135.238078 -240.150299 
L 131.301193 -235.69417 
L 127.364309 -233.300988 
L 123.427424 -227.938403 
L 119.490539 -229.638692 
L 115.553654 -223.542696 
L 111.616769 -218.30823 
L 107.679884 -210.261192 
L 103.742999 -211.709981 
L 99.806115 -210.152327 
L 95.86923 -202.404652 
L 91.932345 -192.197156 
L 87.99546 -193.618087 
L 84.058575 -180.432678 
L 80.12169 -178.48939 
L 76.184806 -169.753099 
L 72.247921 -159.645409 
L 68.311036 -150.324545 
L 64.374151 -131.168783 
L 60.437266 -124.398194 
L 56.500381 -109.376715 
L 52.563497 -78.577933 
L 48.626612 -60.839842 
L 48.626612 -70.628568 
L 48.626612 -70.628568 
L 52.563497 -97.608427 
L 56.500381 -117.758466 
L 60.437266 -127.913354 
L 64.374151 -136.604837 
L 68.311036 -153.451337 
L 72.247921 -166.84733 
L 76.184806 -173.716008 
L 80.12169 -188.21397 
L 84.058575 -185.215979 
L 87.99546 -201.542432 
L 91.932345 -200.629159 
L 95.86923 -211.364967 
L 99.806115 -211.732784 
L 103.742999 -219.55276 
L 107.679884 -229.320385 
L 111.616769 -229.10283 
L 115.553654 -233.585262 
L 119.490539 -238.003786 
L 123.427424 -234.349345 
L 127.364309 -240.855045 
L 131.301193 -243.241544 
L 135.238078 -248.940254 
L 139.174963 -246.244717 
L 143.111848 -247.317291 
L 147.048733 -257.272285 
L 150.985618 -256.10847 
L 154.922502 -256.176614 
L 158.859387 -256.595576 
L 162.796272 -263.751372 
L 166.733157 -265.908077 
L 170.670042 -264.781595 
L 174.606927 -267.517766 
L 178.543811 -273.332509 
L 182.480696 -279.016184 
L 186.417581 -270.405045 
L 190.354466 -273.31823 
L 194.291351 -274.792701 
L 198.228236 -273.682816 
L 202.165121 -273.117706 
L 206.102005 -277.877744 
L 210.03889 -281.778672 
L 213.975775 -282.097896 
L 217.91266 -285.319335 
L 221.849545 -286.319447 
L 225.78643 -286.974356 
L 229.723314 -287.707062 
L 233.660199 -282.407344 
L 237.597084 -284.193758 
L 241.533969 -286.059017 
L 245.470854 -284.597584 
L 249.407739 -291.868364 
L 253.344623 -291.547338 
L 257.281508 -290.220193 
L 261.218393 -290.327283 
L 265.155278 -292.442646 
L 269.092163 -290.050234 
L 273.029048 -295.429136 
L 276.965932 -293.783694 
L 280.902817 -294.545182 
L 284.839702 -296.686558 
L 288.776587 -297.224395 
L 292.713472 -294.029559 
L 296.650357 -298.557155 
L 300.587242 -296.82442 
L 304.524126 -294.969141 
L 308.461011 -294.708206 
L 312.397896 -297.279716 
L 316.334781 -303.624864 
L 320.271666 -306.629815 
L 324.208551 -306.629815 
L 328.145435 -301.308325 
L 332.08232 -299.319359 
L 336.019205 -299.124459 
L 339.95609 -296.739856 
L 343.892975 -302.546021 
L 347.82986 -306.095972 
L 351.766744 -303.862622 
L 355.703629 -298.898145 
L 359.640514 -302.334472 
L 363.577399 -303.206602 
L 367.514284 -306.629815 
L 371.451169 -306.629815 
L 375.388054 -304.695151 
L 379.324938 -306.629815 
L 383.261823 -306.629815 
L 387.198708 -306.629815 
L 391.135593 -305.914082 
L 395.072478 -306.243157 
L 399.009363 -306.629815 
L 402.946247 -306.629815 
L 406.883132 -306.629815 
L 410.820017 -306.629815 
L 414.756902 -306.629815 
L 418.693787 -306.629815 
L 422.630672 -306.629815 
L 426.567556 -306.629815 
L 430.504441 -306.629815 
L 434.441326 -306.629815 
L 438.378211 -306.629815 
L 442.315096 -305.950654 
z
" style="stroke: #0000ff; stroke-opacity: 0.3"/>
    </defs>
    <g clip-path="url(#p11f9388389)">
     <use xlink:href="#me228edf1b9" x="0" y="353.99952" style="fill: #0000ff; fill-opacity: 0.3; stroke: #0000ff; stroke-opacity: 0.3"/>
    </g>
   </g>
   <g id="matplotlib.axis_1">
    <g id="xtick_1">
     <g id="line2d_1">
      <defs>
       <path id="mf498f4df92" d="M 0 0 
L 0 3.5 
" style="stroke: #000000; stroke-width: 0.8"/>
      </defs>
      <g>
       <use xlink:href="#mf498f4df92" x="92.369777" y="330.121395" style="stroke: #000000; stroke-width: 0.8"/>
      </g>
     </g>
     <g id="text_1">
      <!-- 0.2 -->
      <g transform="translate(84.418214 344.719832) scale(0.1 -0.1)">
       <defs>
        <path id="DejaVuSans-30" d="M 2034 4250 
Q 1547 4250 1301 3770 
Q 1056 3291 1056 2328 
Q 1056 1369 1301 889 
Q 1547 409 2034 409 
Q 2525 409 2770 889 
Q 3016 1369 3016 2328 
Q 3016 3291 2770 3770 
Q 2525 4250 2034 4250 
z
M 2034 4750 
Q 2819 4750 3233 4129 
Q 3647 3509 3647 2328 
Q 3647 1150 3233 529 
Q 2819 -91 2034 -91 
Q 1250 -91 836 529 
Q 422 1150 422 2328 
Q 422 3509 836 4129 
Q 1250 4750 2034 4750 
z
" transform="scale(0.015625)"/>
        <path id="DejaVuSans-2e" d="M 684 794 
L 1344 794 
L 1344 0 
L 684 0 
L 684 794 
z
" transform="scale(0.015625)"/>
        <path id="DejaVuSans-32" d="M 1228 531 
L 3431 531 
L 3431 0 
L 469 0 
L 469 531 
Q 828 903 1448 1529 
Q 2069 2156 2228 2338 
Q 2531 2678 2651 2914 
Q 2772 3150 2772 3378 
Q 2772 3750 2511 3984 
Q 2250 4219 1831 4219 
Q 1534 4219 1204 4116 
Q 875 4013 500 3803 
L 500 4441 
Q 881 4594 1212 4672 
Q 1544 4750 1819 4750 
Q 2544 4750 2975 4387 
Q 3406 4025 3406 3419 
Q 3406 3131 3298 2873 
Q 3191 2616 2906 2266 
Q 2828 2175 2409 1742 
Q 1991 1309 1228 531 
z
" transform="scale(0.015625)"/>
       </defs>
       <use xlink:href="#DejaVuSans-30"/>
       <use xlink:href="#DejaVuSans-2e" transform="translate(63.623047 0)"/>
       <use xlink:href="#DejaVuSans-32" transform="translate(95.410156 0)"/>
      </g>
     </g>
    </g>
    <g id="xtick_2">
     <g id="line2d_2">
      <g>
       <use xlink:href="#mf498f4df92" x="179.856106" y="330.121395" style="stroke: #000000; stroke-width: 0.8"/>
      </g>
     </g>
     <g id="text_2">
      <!-- 0.4 -->
      <g transform="translate(171.904544 344.719832) scale(0.1 -0.1)">
       <defs>
        <path id="DejaVuSans-34" d="M 2419 4116 
L 825 1625 
L 2419 1625 
L 2419 4116 
z
M 2253 4666 
L 3047 4666 
L 3047 1625 
L 3713 1625 
L 3713 1100 
L 3047 1100 
L 3047 0 
L 2419 0 
L 2419 1100 
L 313 1100 
L 313 1709 
L 2253 4666 
z
" transform="scale(0.015625)"/>
       </defs>
       <use xlink:href="#DejaVuSans-30"/>
       <use xlink:href="#DejaVuSans-2e" transform="translate(63.623047 0)"/>
       <use xlink:href="#DejaVuSans-34" transform="translate(95.410156 0)"/>
      </g>
     </g>
    </g>
    <g id="xtick_3">
     <g id="line2d_3">
      <g>
       <use xlink:href="#mf498f4df92" x="267.342436" y="330.121395" style="stroke: #000000; stroke-width: 0.8"/>
      </g>
     </g>
     <g id="text_3">
      <!-- 0.6 -->
      <g transform="translate(259.390874 344.719832) scale(0.1 -0.1)">
       <defs>
        <path id="DejaVuSans-36" d="M 2113 2584 
Q 1688 2584 1439 2293 
Q 1191 2003 1191 1497 
Q 1191 994 1439 701 
Q 1688 409 2113 409 
Q 2538 409 2786 701 
Q 3034 994 3034 1497 
Q 3034 2003 2786 2293 
Q 2538 2584 2113 2584 
z
M 3366 4563 
L 3366 3988 
Q 3128 4100 2886 4159 
Q 2644 4219 2406 4219 
Q 1781 4219 1451 3797 
Q 1122 3375 1075 2522 
Q 1259 2794 1537 2939 
Q 1816 3084 2150 3084 
Q 2853 3084 3261 2657 
Q 3669 2231 3669 1497 
Q 3669 778 3244 343 
Q 2819 -91 2113 -91 
Q 1303 -91 875 529 
Q 447 1150 447 2328 
Q 447 3434 972 4092 
Q 1497 4750 2381 4750 
Q 2619 4750 2861 4703 
Q 3103 4656 3366 4563 
z
" transform="scale(0.015625)"/>
       </defs>
       <use xlink:href="#DejaVuSans-30"/>
       <use xlink:href="#DejaVuSans-2e" transform="translate(63.623047 0)"/>
       <use xlink:href="#DejaVuSans-36" transform="translate(95.410156 0)"/>
      </g>
     </g>
    </g>
    <g id="xtick_4">
     <g id="line2d_4">
      <g>
       <use xlink:href="#mf498f4df92" x="354.828766" y="330.121395" style="stroke: #000000; stroke-width: 0.8"/>
      </g>
     </g>
     <g id="text_4">
      <!-- 0.8 -->
      <g transform="translate(346.877203 344.719832) scale(0.1 -0.1)">
       <defs>
        <path id="DejaVuSans-38" d="M 2034 2216 
Q 1584 2216 1326 1975 
Q 1069 1734 1069 1313 
Q 1069 891 1326 650 
Q 1584 409 2034 409 
Q 2484 409 2743 651 
Q 3003 894 3003 1313 
Q 3003 1734 2745 1975 
Q 2488 2216 2034 2216 
z
M 1403 2484 
Q 997 2584 770 2862 
Q 544 3141 544 3541 
Q 544 4100 942 4425 
Q 1341 4750 2034 4750 
Q 2731 4750 3128 4425 
Q 3525 4100 3525 3541 
Q 3525 3141 3298 2862 
Q 3072 2584 2669 2484 
Q 3125 2378 3379 2068 
Q 3634 1759 3634 1313 
Q 3634 634 3220 271 
Q 2806 -91 2034 -91 
Q 1263 -91 848 271 
Q 434 634 434 1313 
Q 434 1759 690 2068 
Q 947 2378 1403 2484 
z
M 1172 3481 
Q 1172 3119 1398 2916 
Q 1625 2713 2034 2713 
Q 2441 2713 2670 2916 
Q 2900 3119 2900 3481 
Q 2900 3844 2670 4047 
Q 2441 4250 2034 4250 
Q 1625 4250 1398 4047 
Q 1172 3844 1172 3481 
z
" transform="scale(0.015625)"/>
       </defs>
       <use xlink:href="#DejaVuSans-30"/>
       <use xlink:href="#DejaVuSans-2e" transform="translate(63.623047 0)"/>
       <use xlink:href="#DejaVuSans-38" transform="translate(95.410156 0)"/>
      </g>
     </g>
    </g>
    <g id="xtick_5">
     <g id="line2d_5">
      <g>
       <use xlink:href="#mf498f4df92" x="442.315096" y="330.121395" style="stroke: #000000; stroke-width: 0.8"/>
      </g>
     </g>
     <g id="text_5">
      <!-- 1.0 -->
      <g transform="translate(434.363533 344.719832) scale(0.1 -0.1)">
       <defs>
        <path id="DejaVuSans-31" d="M 794 531 
L 1825 531 
L 1825 4091 
L 703 3866 
L 703 4441 
L 1819 4666 
L 2450 4666 
L 2450 531 
L 3481 531 
L 3481 0 
L 794 0 
L 794 531 
z
" transform="scale(0.015625)"/>
       </defs>
       <use xlink:href="#DejaVuSans-31"/>
       <use xlink:href="#DejaVuSans-2e" transform="translate(63.623047 0)"/>
       <use xlink:href="#DejaVuSans-30" transform="translate(95.410156 0)"/>
      </g>
     </g>
    </g>
   </g>
   <g id="matplotlib.axis_2">
    <g id="ytick_1">
     <g id="line2d_6">
      <defs>
       <path id="m82f2110a52" d="M 0 0 
L -3.5 0 
" style="stroke: #000000; stroke-width: 0.8"/>
      </defs>
      <g>
       <use xlink:href="#m82f2110a52" x="28.942187" y="286.859377" style="stroke: #000000; stroke-width: 0.8"/>
      </g>
     </g>
     <g id="text_6">
      <!-- −8 -->
      <g transform="translate(7.2 290.658596) scale(0.1 -0.1)">
       <defs>
        <path id="DejaVuSans-2212" d="M 678 2272 
L 4684 2272 
L 4684 1741 
L 678 1741 
L 678 2272 
z
" transform="scale(0.015625)"/>
       </defs>
       <use xlink:href="#DejaVuSans-2212"/>
       <use xlink:href="#DejaVuSans-38" transform="translate(83.789062 0)"/>
      </g>
     </g>
    </g>
    <g id="ytick_2">
     <g id="line2d_7">
      <g>
       <use xlink:href="#m82f2110a52" x="28.942187" y="233.63945" style="stroke: #000000; stroke-width: 0.8"/>
      </g>
     </g>
     <g id="text_7">
      <!-- −6 -->
      <g transform="translate(7.2 237.438669) scale(0.1 -0.1)">
       <use xlink:href="#DejaVuSans-2212"/>
       <use xlink:href="#DejaVuSans-36" transform="translate(83.789062 0)"/>
      </g>
     </g>
    </g>
    <g id="ytick_3">
     <g id="line2d_8">
      <g>
       <use xlink:href="#m82f2110a52" x="28.942187" y="180.419523" style="stroke: #000000; stroke-width: 0.8"/>
      </g>
     </g>
     <g id="text_8">
      <!-- −4 -->
      <g transform="translate(7.2 184.218742) scale(0.1 -0.1)">
       <use xlink:href="#DejaVuSans-2212"/>
       <use xlink:href="#DejaVuSans-34" transform="translate(83.789062 0)"/>
      </g>
     </g>
    </g>
    <g id="ytick_4">
     <g id="line2d_9">
      <g>
       <use xlink:href="#m82f2110a52" x="28.942187" y="127.199596" style="stroke: #000000; stroke-width: 0.8"/>
      </g>
     </g>
     <g id="text_9">
      <!-- −2 -->
      <g transform="translate(7.2 130.998814) scale(0.1 -0.1)">
       <use xlink:href="#DejaVuSans-2212"/>
       <use xlink:href="#DejaVuSans-32" transform="translate(83.789062 0)"/>
      </g>
     </g>
    </g>
    <g id="ytick_5">
     <g id="line2d_10">
      <g>
       <use xlink:href="#m82f2110a52" x="28.942187" y="73.979668" style="stroke: #000000; stroke-width: 0.8"/>
      </g>
     </g>
     <g id="text_10">
      <!-- 0 -->
      <g transform="translate(15.579687 77.778887) scale(0.1 -0.1)">
       <use xlink:href="#DejaVuSans-30"/>
      </g>
     </g>
    </g>
   </g>
   <g id="line2d_11">
    <path d="M 48.626612 316.130337 
L 52.603263 291.737871 
L 56.579914 271.098091 
L 60.556566 253.406852 
L 64.533217 238.074444 
L 68.509868 224.658587 
L 72.48652 212.821067 
L 76.463171 202.298826 
L 80.439823 192.88419 
L 84.416474 184.411017 
L 88.393125 176.744814 
L 92.369777 169.775537 
L 96.346428 163.412285 
L 100.323079 157.579304 
L 104.299731 152.212961 
L 108.276382 147.259414 
L 112.253033 142.672797 
L 116.229685 138.413795 
L 120.206336 134.448517 
L 124.182987 130.747591 
L 128.159639 127.285434 
L 132.13629 124.039662 
L 136.112942 120.990604 
L 140.089593 118.120902 
L 144.066244 115.415183 
L 148.042896 112.859782 
L 152.019547 110.44251 
L 155.996198 108.152464 
L 159.97285 105.979855 
L 163.949501 103.915877 
L 167.926152 101.952581 
L 171.902804 100.082775 
L 175.879455 98.299937 
L 179.856106 96.598137 
L 183.832758 94.971973 
L 187.809409 93.416511 
L 191.78606 91.92724 
L 195.762712 90.500021 
L 199.739363 89.131056 
L 203.716015 87.816849 
L 207.692666 86.554181 
L 211.669317 85.340076 
L 215.645969 84.171786 
L 219.62262 83.046767 
L 223.599271 81.962657 
L 227.575923 80.917266 
L 231.552574 79.908555 
L 235.529225 78.934627 
L 239.505877 77.993714 
L 243.482528 77.084164 
L 247.459179 76.204436 
L 251.435831 75.353086 
L 255.412482 74.528763 
L 259.389133 73.7302 
L 263.365785 72.956208 
L 267.342436 72.205671 
L 271.319088 71.477537 
L 275.295739 70.77082 
L 279.27239 70.084587 
L 283.249042 69.41796 
L 287.225693 68.770112 
L 291.202344 68.14026 
L 295.178996 67.527663 
L 299.155647 66.931624 
L 303.132298 66.351479 
L 307.10895 65.786601 
L 311.085601 65.236395 
L 315.062252 64.700296 
L 319.038904 64.17777 
L 323.015555 63.668307 
L 326.992207 63.171424 
L 330.968858 62.686659 
L 334.945509 62.213576 
L 338.922161 61.751756 
L 342.898812 61.300803 
L 346.875463 60.860337 
L 350.852115 60.429997 
L 354.828766 60.009437 
L 358.805417 59.598328 
L 362.782069 59.196355 
L 366.75872 58.803217 
L 370.735371 58.418624 
L 374.712023 58.042303 
L 378.688674 57.673988 
L 382.665325 57.313428 
L 386.641977 56.960379 
L 390.618628 56.61461 
L 394.59528 56.275897 
L 398.571931 55.944026 
L 402.548582 55.618793 
L 406.525234 55.300001 
L 410.501885 54.987459 
L 414.478536 54.680986 
L 418.455188 54.380407 
L 422.431839 54.085553 
L 426.40849 53.796262 
L 430.385142 53.512379 
L 434.361793 53.233752 
L 438.338444 52.960238 
L 442.315096 52.691697 
" clip-path="url(#p11f9388389)" style="fill: none; stroke: #008000; stroke-opacity: 0.15; stroke-width: 1.5; stroke-linecap: square"/>
   </g>
   <g id="line2d_12">
    <path d="M 48.626612 285.83695 
L 52.603263 276.285683 
L 56.579914 252.282544 
L 60.556566 226.666994 
L 64.533217 226.652316 
L 68.509868 198.954093 
L 72.48652 202.028312 
L 76.463171 175.425813 
L 80.439823 180.856902 
L 84.416474 172.363966 
L 88.393125 160.995693 
L 92.369777 158.253122 
L 96.346428 146.24263 
L 100.323079 141.360142 
L 104.299731 126.803659 
L 108.276382 140.102441 
L 112.253033 121.757855 
L 116.229685 127.235532 
L 120.206336 114.696698 
L 124.182987 105.357801 
L 128.159639 112.288228 
L 132.13629 109.119281 
L 136.112942 103.761836 
L 140.089593 119.318581 
L 144.066244 114.340018 
L 148.042896 114.412051 
L 152.019547 101.545285 
L 155.996198 98.462259 
L 159.97285 99.49983 
L 163.949501 100.923554 
L 167.926152 93.518789 
L 171.902804 81.333814 
L 175.879455 76.855159 
L 179.856106 100.537303 
L 183.832758 98.586295 
L 187.809409 73.890425 
L 191.78606 84.064291 
L 195.762712 76.25839 
L 199.739363 83.732749 
L 203.716015 84.28684 
L 207.692666 78.63774 
L 211.669317 74.625193 
L 215.645969 67.07699 
L 219.62262 88.202149 
L 223.599271 73.879057 
L 227.575923 67.318143 
L 231.552574 59.316187 
L 235.529225 75.317789 
L 239.505877 69.331575 
L 243.482528 72.919662 
L 247.459179 60.082494 
L 251.435831 77.101517 
L 255.412482 77.38793 
L 259.389133 78.533155 
L 263.365785 66.951859 
L 267.342436 62.454644 
L 271.319088 52.811327 
L 275.295739 71.908039 
L 279.27239 64.127537 
L 283.249042 55.496335 
L 287.225693 74.255364 
L 291.202344 63.349334 
L 295.178996 69.142204 
L 299.155647 60.343125 
L 303.132298 55.514158 
L 307.10895 71.139121 
L 311.085601 55.163326 
L 315.062252 69.585167 
L 319.038904 67.617536 
L 323.015555 53.863643 
L 326.992207 60.698573 
L 330.968858 62.03286 
L 334.945509 51.790694 
L 338.922161 48.193411 
L 342.898812 59.288447 
L 346.875463 47.801706 
L 350.852115 66.200947 
L 354.828766 61.233911 
L 358.805417 61.640891 
L 362.782069 66.2426 
L 366.75872 57.619668 
L 370.735371 64.091108 
L 374.712023 65.380948 
L 378.688674 59.404922 
L 382.665325 60.684424 
L 386.641977 49.938837 
L 390.618628 60.77554 
L 394.59528 38.708278 
L 398.571931 49.573484 
L 402.548582 48.468817 
L 406.525234 41.725887 
L 410.501885 47.625257 
L 414.478536 57.576265 
L 418.455188 41.813314 
L 422.431839 61.058384 
L 426.40849 60.021925 
L 430.385142 44.592051 
L 434.361793 53.055259 
L 438.338444 50.838161 
L 442.315096 47.635953 
" clip-path="url(#p11f9388389)" style="fill: none; stroke: #008000; stroke-opacity: 0.15; stroke-width: 1.5; stroke-linecap: square"/>
   </g>
   <g id="line2d_13">
    <path d="M 48.626612 282.033689 
L 52.603263 269.11538 
L 56.579914 243.955341 
L 60.556566 238.005971 
L 64.533217 203.104233 
L 68.509868 211.022101 
L 72.48652 188.776856 
L 76.463171 181.368362 
L 80.439823 182.520419 
L 84.416474 171.740773 
L 88.393125 165.641466 
L 92.369777 160.756271 
L 96.346428 154.502365 
L 100.323079 133.120937 
L 104.299731 149.009132 
L 108.276382 130.835239 
L 112.253033 139.684265 
L 116.229685 121.141326 
L 120.206336 119.334985 
L 124.182987 120.413951 
L 128.159639 115.119753 
L 132.13629 124.749734 
L 136.112942 121.128417 
L 140.089593 113.302413 
L 144.066244 114.81239 
L 148.042896 101.489168 
L 152.019547 102.114519 
L 155.996198 90.868745 
L 159.97285 89.136521 
L 163.949501 86.612725 
L 167.926152 88.417818 
L 171.902804 97.78283 
L 175.879455 99.81306 
L 179.856106 76.352355 
L 183.832758 80.380919 
L 187.809409 90.799637 
L 191.78606 70.212386 
L 195.762712 85.536103 
L 199.739363 76.432254 
L 203.716015 67.48339 
L 207.692666 65.392745 
L 211.669317 78.30604 
L 215.645969 88.858847 
L 219.62262 62.740942 
L 223.599271 72.427867 
L 227.575923 62.834577 
L 231.552574 64.154269 
L 235.529225 68.710543 
L 239.505877 76.126474 
L 243.482528 71.715963 
L 247.459179 56.724883 
L 251.435831 57.025258 
L 255.412482 70.30432 
L 259.389133 64.128985 
L 263.365785 77.594153 
L 267.342436 56.732049 
L 271.319088 59.477605 
L 275.295739 71.474921 
L 279.27239 72.554382 
L 283.249042 66.572297 
L 287.225693 54.623385 
L 291.202344 55.87275 
L 295.178996 52.479923 
L 299.155647 69.753199 
L 303.132298 49.76125 
L 307.10895 65.458709 
L 311.085601 58.373429 
L 315.062252 49.732121 
L 319.038904 59.301464 
L 323.015555 62.046595 
L 326.992207 44.486965 
L 330.968858 67.242447 
L 334.945509 64.133912 
L 338.922161 45.771502 
L 342.898812 54.973115 
L 346.875463 47.054651 
L 350.852115 67.105613 
L 354.828766 51.513788 
L 358.805417 42.094241 
L 362.782069 52.4248 
L 366.75872 51.71149 
L 370.735371 64.804333 
L 374.712023 43.584656 
L 378.688674 57.349809 
L 382.665325 55.705741 
L 386.641977 57.15685 
L 390.618628 56.657194 
L 394.59528 46.114047 
L 398.571931 39.871506 
L 402.548582 54.874186 
L 406.525234 38.863948 
L 410.501885 48.189452 
L 414.478536 36.57304 
L 418.455188 48.533668 
L 422.431839 58.230573 
L 426.40849 55.344301 
L 430.385142 41.023231 
L 434.361793 36.455221 
L 438.338444 60.02069 
L 442.315096 60.637333 
" clip-path="url(#p11f9388389)" style="fill: none; stroke: #008000; stroke-opacity: 0.15; stroke-width: 1.5; stroke-linecap: square"/>
   </g>
   <g id="line2d_14">
    <path d="M 442.315096 53.654995 
L 438.378211 54.596849 
L 434.441326 47.72191 
L 430.504441 46.412053 
L 426.567556 55.987032 
L 422.630672 57.721303 
L 418.693787 48.815405 
L 414.756902 49.514362 
L 410.820017 50.214806 
L 406.883132 45.743982 
L 402.946247 52.2182 
L 399.009363 48.960674 
L 395.072478 47.204372 
L 391.135593 56.587986 
L 387.198708 55.151615 
L 383.261823 57.418822 
L 379.324938 58.104233 
L 375.388054 56.089815 
L 371.451169 61.219652 
L 367.514284 57.259505 
L 363.577399 58.639293 
L 359.640514 55.461607 
L 355.703629 56.894643 
L 351.766744 62.97043 
L 347.82986 54.947154 
L 343.892975 56.866982 
L 339.95609 53.625517 
L 336.019205 57.361458 
L 332.08232 62.697102 
L 328.145435 58.400804 
L 324.208551 58.737357 
L 320.271666 62.508707 
L 316.334781 62.094308 
L 312.397896 60.167938 
L 308.461011 64.785531 
L 304.524126 60.797342 
L 300.587242 62.627855 
L 296.650357 64.02157 
L 292.713472 62.680524 
L 288.776587 64.545706 
L 284.839702 64.6505 
L 280.902817 66.833914 
L 276.965932 70.350375 
L 273.029048 65.611004 
L 269.092163 62.67899 
L 265.155278 68.584262 
L 261.218393 72.300962 
L 257.281508 73.160512 
L 253.344623 71.865205 
L 249.407739 67.027052 
L 245.470854 69.121934 
L 241.533969 74.189485 
L 237.597084 74.405712 
L 233.660199 71.252835 
L 229.723314 68.972286 
L 225.78643 72.936601 
L 221.849545 76.928834 
L 217.91266 78.873499 
L 213.975775 79.77879 
L 210.03889 78.373262 
L 206.102005 78.061877 
L 202.165121 81.124527 
L 198.228236 83.478491 
L 194.291351 83.346998 
L 190.354466 83.496291 
L 186.417581 87.882663 
L 182.480696 91.261905 
L 178.543811 91.325438 
L 174.606927 92.107387 
L 170.670042 93.551083 
L 166.733157 95.386026 
L 162.796272 97.456577 
L 158.859387 98.473013 
L 154.922502 100.656852 
L 150.985618 105.971191 
L 147.048733 110.904216 
L 143.111848 115.349808 
L 139.174963 116.541286 
L 135.238078 116.175659 
L 131.301193 119.077824 
L 127.364309 118.352867 
L 123.427424 119.597302 
L 119.490539 123.925361 
L 115.553654 129.911926 
L 111.616769 135.456022 
L 107.679884 139.890464 
L 103.742999 142.863534 
L 99.806115 145.410993 
L 95.86923 155.7042 
L 91.932345 163.463535 
L 87.99546 168.631784 
L 84.058575 177.004291 
L 80.12169 185.49601 
L 76.184806 187.403443 
L 72.247921 201.828916 
L 68.311036 212.098197 
L 64.374151 223.280315 
L 60.437266 239.8525 
L 56.500381 256.244012 
L 52.563497 279.202518 
L 48.626612 294.666992 
" clip-path="url(#p11f9388389)" style="fill: none; stroke: #008000; stroke-width: 1.5; stroke-linecap: square"/>
   </g>
   <g id="line2d_15">
    <path d="M 48.626612 286.859377 
L 52.603263 264.684408 
L 56.579914 245.920972 
L 60.556566 229.838027 
L 64.533217 215.899474 
L 68.509868 203.703241 
L 72.48652 192.941859 
L 76.463171 183.376185 
L 80.439823 174.817425 
L 84.416474 167.114541 
L 88.393125 160.145265 
L 92.369777 153.809559 
L 96.346428 148.024784 
L 100.323079 142.722074 
L 104.299731 137.843581 
L 108.276382 133.340356 
L 112.253033 129.170704 
L 116.229685 125.298884 
L 120.206336 121.694086 
L 124.182987 118.329608 
L 128.159639 115.182193 
L 132.13629 112.231491 
L 136.112942 109.45962 
L 140.089593 106.8508 
L 144.066244 104.391055 
L 148.042896 102.067963 
L 152.019547 99.870444 
L 155.996198 97.788583 
L 159.97285 95.813485 
L 163.949501 93.937141 
L 167.926152 92.152326 
L 171.902804 90.452503 
L 175.879455 88.831741 
L 179.856106 87.28465 
L 183.832758 85.806319 
L 187.809409 84.392263 
L 191.78606 83.038379 
L 195.762712 81.740908 
L 199.739363 80.496394 
L 203.716015 79.301661 
L 207.692666 78.15378 
L 211.669317 77.050049 
L 215.645969 75.987967 
L 219.62262 74.965223 
L 223.599271 73.979668 
L 227.575923 73.029312 
L 231.552574 72.112302 
L 235.529225 71.226913 
L 239.505877 70.371538 
L 243.482528 69.544674 
L 247.459179 68.744921 
L 251.435831 67.970967 
L 255.412482 67.221582 
L 259.389133 66.495616 
L 263.365785 65.791987 
L 267.342436 65.10968 
L 271.319088 64.447741 
L 275.295739 63.80527 
L 279.27239 63.181422 
L 283.249042 62.575398 
L 287.225693 61.986445 
L 291.202344 61.413852 
L 295.178996 60.856947 
L 299.155647 60.315092 
L 303.132298 59.787688 
L 307.10895 59.274162 
L 311.085601 58.773975 
L 315.062252 58.286613 
L 319.038904 57.811589 
L 323.015555 57.348441 
L 326.992207 56.896729 
L 330.968858 56.456034 
L 334.945509 56.025958 
L 338.922161 55.606122 
L 342.898812 55.196165 
L 346.875463 54.795741 
L 350.852115 54.404523 
L 354.828766 54.022196 
L 358.805417 53.64846 
L 362.782069 53.28303 
L 366.75872 52.925631 
L 370.735371 52.576002 
L 374.712023 52.233892 
L 378.688674 51.89906 
L 382.665325 51.571278 
L 386.641977 51.250324 
L 390.618628 50.935988 
L 394.59528 50.628068 
L 398.571931 50.326367 
L 402.548582 50.030701 
L 406.525234 49.74089 
L 410.501885 49.456761 
L 414.478536 49.178149 
L 418.455188 48.904895 
L 422.431839 48.636846 
L 426.40849 48.373854 
L 430.385142 48.115778 
L 434.361793 47.862482 
L 438.338444 47.613833 
L 442.315096 47.369705 
" clip-path="url(#p11f9388389)" style="fill: none; stroke: #0000ff; stroke-opacity: 0.15; stroke-width: 1.5; stroke-linecap: square"/>
   </g>
   <g id="line2d_16">
    <path d="M 48.626612 294.83767 
L 52.603263 277.858151 
L 56.579914 237.43464 
L 60.556566 226.083609 
L 64.533217 220.696263 
L 68.509868 199.788103 
L 72.48652 184.770902 
L 76.463171 183.133655 
L 80.439823 162.339368 
L 84.416474 173.597334 
L 88.393125 155.363781 
L 92.369777 154.623593 
L 96.346428 151.211369 
L 100.323079 142.689783 
L 104.299731 143.15478 
L 108.276382 146.473046 
L 112.253033 135.339137 
L 116.229685 115.703531 
L 120.206336 114.026963 
L 124.182987 124.831436 
L 128.159639 121.293844 
L 132.13629 108.244987 
L 136.112942 116.268009 
L 140.089593 114.011654 
L 144.066244 113.386727 
L 148.042896 115.005626 
L 152.019547 97.362032 
L 155.996198 100.614293 
L 159.97285 101.576359 
L 163.949501 84.436496 
L 167.926152 89.295737 
L 171.902804 99.738901 
L 175.879455 81.397165 
L 179.856106 77.736266 
L 183.832758 73.533874 
L 187.809409 88.730622 
L 191.78606 75.582271 
L 195.762712 90.870506 
L 199.739363 90.701982 
L 203.716015 83.703062 
L 207.692666 69.97613 
L 211.669317 79.682583 
L 215.645969 84.762009 
L 219.62262 63.664666 
L 223.599271 76.55058 
L 227.575923 66.26035 
L 231.552574 83.703052 
L 235.529225 78.615177 
L 239.505877 78.873156 
L 243.482528 82.49708 
L 247.459179 58.950367 
L 251.435831 63.780229 
L 255.412482 73.843695 
L 259.389133 68.296262 
L 263.365785 78.667315 
L 267.342436 74.425889 
L 271.319088 53.383887 
L 275.295739 61.971408 
L 279.27239 59.995726 
L 283.249042 57.140628 
L 287.225693 54.204507 
L 291.202344 57.737019 
L 295.178996 64.715738 
L 299.155647 69.634507 
L 303.132298 59.76662 
L 307.10895 58.762212 
L 311.085601 68.248245 
L 315.062252 51.87523 
L 319.038904 45.106355 
L 323.015555 48.34847 
L 326.992207 60.802732 
L 330.968858 52.606284 
L 334.945509 59.454682 
L 338.922161 68.026983 
L 342.898812 51.917125 
L 346.875463 46.415225 
L 350.852115 45.866758 
L 354.828766 62.679201 
L 358.805417 51.098324 
L 362.782069 53.194735 
L 366.75872 45.2799 
L 370.735371 48.360397 
L 374.712023 46.777012 
L 378.688674 57.116223 
L 382.665325 45.786158 
L 386.641977 39.610087 
L 390.618628 60.557656 
L 394.59528 48.708663 
L 398.571931 40.806585 
L 402.548582 41.320441 
L 406.525234 37.991173 
L 410.501885 44.222144 
L 414.478536 38.874514 
L 418.455188 39.01223 
L 422.431839 42.311638 
L 426.40849 42.559148 
L 430.385142 46.916008 
L 434.361793 36.309183 
L 438.338444 48.964605 
L 442.315096 51.072332 
" clip-path="url(#p11f9388389)" style="fill: none; stroke: #0000ff; stroke-opacity: 0.15; stroke-width: 1.5; stroke-linecap: square"/>
   </g>
   <g id="line2d_17">
    <path d="M 48.626612 283.098899 
L 52.603263 254.498917 
L 56.579914 236.394346 
L 60.556566 226.489435 
L 64.533217 222.822688 
L 68.509868 200.049515 
L 72.48652 192.550005 
L 76.463171 178.518662 
L 80.439823 171.909772 
L 84.416474 173.254699 
L 88.393125 148.781092 
L 92.369777 165.372659 
L 96.346428 137.681385 
L 100.323079 142.601491 
L 104.299731 132.004638 
L 108.276382 120.981592 
L 112.253033 124.483935 
L 116.229685 132.705636 
L 120.206336 121.922114 
L 124.182987 127.968261 
L 128.159639 109.197276 
L 132.13629 122.566046 
L 136.112942 98.494647 
L 140.089593 113.507338 
L 144.066244 113.984785 
L 148.042896 90.017821 
L 152.019547 99.738805 
L 155.996198 110.503951 
L 159.97285 99.459354 
L 163.949501 101.149316 
L 167.926152 104.963441 
L 171.902804 82.33816 
L 175.879455 88.415598 
L 179.856106 87.405244 
L 183.832758 73.228143 
L 187.809409 94.914263 
L 191.78606 85.878088 
L 195.762712 74.113974 
L 199.739363 87.245407 
L 203.716015 83.680494 
L 207.692666 78.157283 
L 211.669317 66.515682 
L 215.645969 74.164484 
L 219.62262 62.660007 
L 223.599271 70.273907 
L 227.575923 62.508813 
L 231.552574 66.42017 
L 235.529225 80.799014 
L 239.505877 61.957408 
L 243.482528 75.873262 
L 247.459179 64.855845 
L 251.435831 65.918953 
L 255.412482 55.901033 
L 259.389133 71.309669 
L 263.365785 54.73274 
L 267.342436 70.120499 
L 271.319088 75.598662 
L 275.295739 53.622347 
L 279.27239 69.266152 
L 283.249042 67.406082 
L 287.225693 60.802205 
L 291.202344 62.913672 
L 295.178996 55.020438 
L 299.155647 52.86151 
L 303.132298 63.851459 
L 307.10895 61.368712 
L 311.085601 58.305627 
L 315.062252 53.003343 
L 319.038904 54.894956 
L 323.015555 44.906668 
L 326.992207 49.306594 
L 330.968858 57.214579 
L 334.945509 50.735325 
L 338.922161 68.450015 
L 342.898812 60.841937 
L 346.875463 51.384106 
L 350.852115 64.240773 
L 354.828766 60.609242 
L 358.805417 56.478818 
L 362.782069 64.029775 
L 366.75872 63.131897 
L 370.735371 40.067471 
L 374.712023 56.191934 
L 378.688674 40.560726 
L 382.665325 39.288658 
L 386.641977 50.890695 
L 390.618628 46.288051 
L 394.59528 60.745837 
L 398.571931 40.869833 
L 402.548582 48.114782 
L 406.525234 59.903069 
L 410.501885 59.362544 
L 414.478536 42.818057 
L 418.455188 40.779377 
L 422.431839 58.128209 
L 426.40849 54.182409 
L 430.385142 41.774273 
L 434.361793 46.004719 
L 438.338444 36.607357 
L 442.315096 54.778744 
" clip-path="url(#p11f9388389)" style="fill: none; stroke: #0000ff; stroke-opacity: 0.15; stroke-width: 1.5; stroke-linecap: square"/>
   </g>
   <g id="line2d_18">
    <path d="M 442.315096 51.073594 
L 438.378211 44.462048 
L 434.441326 43.412191 
L 430.504441 45.535723 
L 426.567556 48.261012 
L 422.630672 49.62621 
L 418.693787 43.306438 
L 414.756902 43.572841 
L 410.820017 50.422597 
L 406.883132 49.3739 
L 402.946247 46.760948 
L 399.009363 44.274577 
L 395.072478 52.237665 
L 391.135593 52.693603 
L 387.198708 47.998463 
L 383.261823 45.803949 
L 379.324938 49.169074 
L 375.388054 51.415425 
L 371.451169 47.853228 
L 367.514284 52.49135 
L 363.577399 56.224506 
L 359.640514 54.391603 
L 355.703629 57.923977 
L 351.766744 55.818576 
L 347.82986 51.818383 
L 343.892975 54.705063 
L 339.95609 61.936623 
L 336.019205 57.733366 
L 332.08232 55.419945 
L 328.145435 55.5982 
L 324.208551 51.841441 
L 320.271666 51.859337 
L 316.334781 53.817485 
L 312.397896 59.338056 
L 308.461011 60.472942 
L 304.524126 60.668509 
L 300.587242 61.008395 
L 296.650357 60.471259 
L 292.713472 60.501801 
L 288.776587 59.656999 
L 284.839702 61.023509 
L 280.902817 63.420537 
L 276.965932 61.625874 
L 273.029048 62.465616 
L 269.092163 67.505575 
L 265.155278 67.966951 
L 261.218393 67.641058 
L 257.281508 67.086624 
L 253.344623 65.777435 
L 249.407739 65.019817 
L 245.470854 70.077692 
L 241.533969 73.241896 
L 237.597084 73.510941 
L 233.660199 75.563494 
L 229.723314 70.944827 
L 225.78643 70.117011 
L 221.849545 70.739294 
L 217.91266 71.916153 
L 213.975775 76.67156 
L 210.03889 74.831418 
L 206.102005 78.148801 
L 202.165121 83.757019 
L 198.228236 84.663598 
L 194.291351 81.967176 
L 190.354466 84.324189 
L 186.417581 85.207688 
L 182.480696 79.773332 
L 178.543811 84.826071 
L 174.606927 87.695908 
L 170.670042 92.277655 
L 166.733157 94.781646 
L 162.796272 94.849188 
L 158.859387 100.075111 
L 154.922502 101.894743 
L 150.985618 99.867505 
L 147.048733 104.419733 
L 143.111848 110.7961 
L 139.174963 110.678621 
L 135.238078 109.454244 
L 131.301193 114.531663 
L 127.364309 116.921504 
L 123.427424 122.855646 
L 119.490539 120.178281 
L 115.553654 125.435541 
L 111.616769 130.29399 
L 107.679884 134.208732 
L 103.742999 138.368149 
L 99.806115 143.056965 
L 95.86923 147.114711 
L 91.932345 157.586362 
L 87.99546 156.419261 
L 84.058575 171.175191 
L 80.12169 170.64784 
L 76.184806 182.264967 
L 72.247921 190.75315 
L 68.311036 202.111579 
L 64.374151 220.11271 
L 60.437266 227.843746 
L 56.500381 240.431929 
L 52.563497 265.90634 
L 48.626612 288.265315 
" clip-path="url(#p11f9388389)" style="fill: none; stroke: #0000ff; stroke-width: 1.5; stroke-linecap: square"/>
   </g>
   <g id="patch_3">
    <path d="M 28.942187 330.121395 
L 28.942187 22.318125 
" style="fill: none; stroke: #000000; stroke-width: 0.8; stroke-linejoin: miter; stroke-linecap: square"/>
   </g>
   <g id="patch_4">
    <path d="M 461.99952 330.121395 
L 461.99952 22.318125 
" style="fill: none; stroke: #000000; stroke-width: 0.8; stroke-linejoin: miter; stroke-linecap: square"/>
   </g>
   <g id="patch_5">
    <path d="M 28.942187 330.121395 
L 461.99952 330.121395 
" style="fill: none; stroke: #000000; stroke-width: 0.8; stroke-linejoin: miter; stroke-linecap: square"/>
   </g>
   <g id="patch_6">
    <path d="M 28.942187 22.318125 
L 461.99952 22.318125 
" style="fill: none; stroke: #000000; stroke-width: 0.8; stroke-linejoin: miter; stroke-linecap: square"/>
   </g>
   <g id="text_11">
    <!-- Visualization of similar lines plotted together -->
    <g transform="translate(111.001479 16.318125) scale(0.12 -0.12)">
     <defs>
      <path id="DejaVuSans-56" d="M 1831 0 
L 50 4666 
L 709 4666 
L 2188 738 
L 3669 4666 
L 4325 4666 
L 2547 0 
L 1831 0 
z
" transform="scale(0.015625)"/>
      <path id="DejaVuSans-69" d="M 603 3500 
L 1178 3500 
L 1178 0 
L 603 0 
L 603 3500 
z
M 603 4863 
L 1178 4863 
L 1178 4134 
L 603 4134 
L 603 4863 
z
" transform="scale(0.015625)"/>
      <path id="DejaVuSans-73" d="M 2834 3397 
L 2834 2853 
Q 2591 2978 2328 3040 
Q 2066 3103 1784 3103 
Q 1356 3103 1142 2972 
Q 928 2841 928 2578 
Q 928 2378 1081 2264 
Q 1234 2150 1697 2047 
L 1894 2003 
Q 2506 1872 2764 1633 
Q 3022 1394 3022 966 
Q 3022 478 2636 193 
Q 2250 -91 1575 -91 
Q 1294 -91 989 -36 
Q 684 19 347 128 
L 347 722 
Q 666 556 975 473 
Q 1284 391 1588 391 
Q 1994 391 2212 530 
Q 2431 669 2431 922 
Q 2431 1156 2273 1281 
Q 2116 1406 1581 1522 
L 1381 1569 
Q 847 1681 609 1914 
Q 372 2147 372 2553 
Q 372 3047 722 3315 
Q 1072 3584 1716 3584 
Q 2034 3584 2315 3537 
Q 2597 3491 2834 3397 
z
" transform="scale(0.015625)"/>
      <path id="DejaVuSans-75" d="M 544 1381 
L 544 3500 
L 1119 3500 
L 1119 1403 
Q 1119 906 1312 657 
Q 1506 409 1894 409 
Q 2359 409 2629 706 
Q 2900 1003 2900 1516 
L 2900 3500 
L 3475 3500 
L 3475 0 
L 2900 0 
L 2900 538 
Q 2691 219 2414 64 
Q 2138 -91 1772 -91 
Q 1169 -91 856 284 
Q 544 659 544 1381 
z
M 1991 3584 
L 1991 3584 
z
" transform="scale(0.015625)"/>
      <path id="DejaVuSans-61" d="M 2194 1759 
Q 1497 1759 1228 1600 
Q 959 1441 959 1056 
Q 959 750 1161 570 
Q 1363 391 1709 391 
Q 2188 391 2477 730 
Q 2766 1069 2766 1631 
L 2766 1759 
L 2194 1759 
z
M 3341 1997 
L 3341 0 
L 2766 0 
L 2766 531 
Q 2569 213 2275 61 
Q 1981 -91 1556 -91 
Q 1019 -91 701 211 
Q 384 513 384 1019 
Q 384 1609 779 1909 
Q 1175 2209 1959 2209 
L 2766 2209 
L 2766 2266 
Q 2766 2663 2505 2880 
Q 2244 3097 1772 3097 
Q 1472 3097 1187 3025 
Q 903 2953 641 2809 
L 641 3341 
Q 956 3463 1253 3523 
Q 1550 3584 1831 3584 
Q 2591 3584 2966 3190 
Q 3341 2797 3341 1997 
z
" transform="scale(0.015625)"/>
      <path id="DejaVuSans-6c" d="M 603 4863 
L 1178 4863 
L 1178 0 
L 603 0 
L 603 4863 
z
" transform="scale(0.015625)"/>
      <path id="DejaVuSans-7a" d="M 353 3500 
L 3084 3500 
L 3084 2975 
L 922 459 
L 3084 459 
L 3084 0 
L 275 0 
L 275 525 
L 2438 3041 
L 353 3041 
L 353 3500 
z
" transform="scale(0.015625)"/>
      <path id="DejaVuSans-74" d="M 1172 4494 
L 1172 3500 
L 2356 3500 
L 2356 3053 
L 1172 3053 
L 1172 1153 
Q 1172 725 1289 603 
Q 1406 481 1766 481 
L 2356 481 
L 2356 0 
L 1766 0 
Q 1100 0 847 248 
Q 594 497 594 1153 
L 594 3053 
L 172 3053 
L 172 3500 
L 594 3500 
L 594 4494 
L 1172 4494 
z
" transform="scale(0.015625)"/>
      <path id="DejaVuSans-6f" d="M 1959 3097 
Q 1497 3097 1228 2736 
Q 959 2375 959 1747 
Q 959 1119 1226 758 
Q 1494 397 1959 397 
Q 2419 397 2687 759 
Q 2956 1122 2956 1747 
Q 2956 2369 2687 2733 
Q 2419 3097 1959 3097 
z
M 1959 3584 
Q 2709 3584 3137 3096 
Q 3566 2609 3566 1747 
Q 3566 888 3137 398 
Q 2709 -91 1959 -91 
Q 1206 -91 779 398 
Q 353 888 353 1747 
Q 353 2609 779 3096 
Q 1206 3584 1959 3584 
z
" transform="scale(0.015625)"/>
      <path id="DejaVuSans-6e" d="M 3513 2113 
L 3513 0 
L 2938 0 
L 2938 2094 
Q 2938 2591 2744 2837 
Q 2550 3084 2163 3084 
Q 1697 3084 1428 2787 
Q 1159 2491 1159 1978 
L 1159 0 
L 581 0 
L 581 3500 
L 1159 3500 
L 1159 2956 
Q 1366 3272 1645 3428 
Q 1925 3584 2291 3584 
Q 2894 3584 3203 3211 
Q 3513 2838 3513 2113 
z
" transform="scale(0.015625)"/>
      <path id="DejaVuSans-20" transform="scale(0.015625)"/>
      <path id="DejaVuSans-66" d="M 2375 4863 
L 2375 4384 
L 1825 4384 
Q 1516 4384 1395 4259 
Q 1275 4134 1275 3809 
L 1275 3500 
L 2222 3500 
L 2222 3053 
L 1275 3053 
L 1275 0 
L 697 0 
L 697 3053 
L 147 3053 
L 147 3500 
L 697 3500 
L 697 3744 
Q 697 4328 969 4595 
Q 1241 4863 1831 4863 
L 2375 4863 
z
" transform="scale(0.015625)"/>
      <path id="DejaVuSans-6d" d="M 3328 2828 
Q 3544 3216 3844 3400 
Q 4144 3584 4550 3584 
Q 5097 3584 5394 3201 
Q 5691 2819 5691 2113 
L 5691 0 
L 5113 0 
L 5113 2094 
Q 5113 2597 4934 2840 
Q 4756 3084 4391 3084 
Q 3944 3084 3684 2787 
Q 3425 2491 3425 1978 
L 3425 0 
L 2847 0 
L 2847 2094 
Q 2847 2600 2669 2842 
Q 2491 3084 2119 3084 
Q 1678 3084 1418 2786 
Q 1159 2488 1159 1978 
L 1159 0 
L 581 0 
L 581 3500 
L 1159 3500 
L 1159 2956 
Q 1356 3278 1631 3431 
Q 1906 3584 2284 3584 
Q 2666 3584 2933 3390 
Q 3200 3197 3328 2828 
z
" transform="scale(0.015625)"/>
      <path id="DejaVuSans-72" d="M 2631 2963 
Q 2534 3019 2420 3045 
Q 2306 3072 2169 3072 
Q 1681 3072 1420 2755 
Q 1159 2438 1159 1844 
L 1159 0 
L 581 0 
L 581 3500 
L 1159 3500 
L 1159 2956 
Q 1341 3275 1631 3429 
Q 1922 3584 2338 3584 
Q 2397 3584 2469 3576 
Q 2541 3569 2628 3553 
L 2631 2963 
z
" transform="scale(0.015625)"/>
      <path id="DejaVuSans-65" d="M 3597 1894 
L 3597 1613 
L 953 1613 
Q 991 1019 1311 708 
Q 1631 397 2203 397 
Q 2534 397 2845 478 
Q 3156 559 3463 722 
L 3463 178 
Q 3153 47 2828 -22 
Q 2503 -91 2169 -91 
Q 1331 -91 842 396 
Q 353 884 353 1716 
Q 353 2575 817 3079 
Q 1281 3584 2069 3584 
Q 2775 3584 3186 3129 
Q 3597 2675 3597 1894 
z
M 3022 2063 
Q 3016 2534 2758 2815 
Q 2500 3097 2075 3097 
Q 1594 3097 1305 2825 
Q 1016 2553 972 2059 
L 3022 2063 
z
" transform="scale(0.015625)"/>
      <path id="DejaVuSans-70" d="M 1159 525 
L 1159 -1331 
L 581 -1331 
L 581 3500 
L 1159 3500 
L 1159 2969 
Q 1341 3281 1617 3432 
Q 1894 3584 2278 3584 
Q 2916 3584 3314 3078 
Q 3713 2572 3713 1747 
Q 3713 922 3314 415 
Q 2916 -91 2278 -91 
Q 1894 -91 1617 61 
Q 1341 213 1159 525 
z
M 3116 1747 
Q 3116 2381 2855 2742 
Q 2594 3103 2138 3103 
Q 1681 3103 1420 2742 
Q 1159 2381 1159 1747 
Q 1159 1113 1420 752 
Q 1681 391 2138 391 
Q 2594 391 2855 752 
Q 3116 1113 3116 1747 
z
" transform="scale(0.015625)"/>
      <path id="DejaVuSans-64" d="M 2906 2969 
L 2906 4863 
L 3481 4863 
L 3481 0 
L 2906 0 
L 2906 525 
Q 2725 213 2448 61 
Q 2172 -91 1784 -91 
Q 1150 -91 751 415 
Q 353 922 353 1747 
Q 353 2572 751 3078 
Q 1150 3584 1784 3584 
Q 2172 3584 2448 3432 
Q 2725 3281 2906 2969 
z
M 947 1747 
Q 947 1113 1208 752 
Q 1469 391 1925 391 
Q 2381 391 2643 752 
Q 2906 1113 2906 1747 
Q 2906 2381 2643 2742 
Q 2381 3103 1925 3103 
Q 1469 3103 1208 2742 
Q 947 2381 947 1747 
z
" transform="scale(0.015625)"/>
      <path id="DejaVuSans-67" d="M 2906 1791 
Q 2906 2416 2648 2759 
Q 2391 3103 1925 3103 
Q 1463 3103 1205 2759 
Q 947 2416 947 1791 
Q 947 1169 1205 825 
Q 1463 481 1925 481 
Q 2391 481 2648 825 
Q 2906 1169 2906 1791 
z
M 3481 434 
Q 3481 -459 3084 -895 
Q 2688 -1331 1869 -1331 
Q 1566 -1331 1297 -1286 
Q 1028 -1241 775 -1147 
L 775 -588 
Q 1028 -725 1275 -790 
Q 1522 -856 1778 -856 
Q 2344 -856 2625 -561 
Q 2906 -266 2906 331 
L 2906 616 
Q 2728 306 2450 153 
Q 2172 0 1784 0 
Q 1141 0 747 490 
Q 353 981 353 1791 
Q 353 2603 747 3093 
Q 1141 3584 1784 3584 
Q 2172 3584 2450 3431 
Q 2728 3278 2906 2969 
L 2906 3500 
L 3481 3500 
L 3481 434 
z
" transform="scale(0.015625)"/>
      <path id="DejaVuSans-68" d="M 3513 2113 
L 3513 0 
L 2938 0 
L 2938 2094 
Q 2938 2591 2744 2837 
Q 2550 3084 2163 3084 
Q 1697 3084 1428 2787 
Q 1159 2491 1159 1978 
L 1159 0 
L 581 0 
L 581 4863 
L 1159 4863 
L 1159 2956 
Q 1366 3272 1645 3428 
Q 1925 3584 2291 3584 
Q 2894 3584 3203 3211 
Q 3513 2838 3513 2113 
z
" transform="scale(0.015625)"/>
     </defs>
     <use xlink:href="#DejaVuSans-56"/>
     <use xlink:href="#DejaVuSans-69" transform="translate(66.158203 0)"/>
     <use xlink:href="#DejaVuSans-73" transform="translate(93.941406 0)"/>
     <use xlink:href="#DejaVuSans-75" transform="translate(146.041016 0)"/>
     <use xlink:href="#DejaVuSans-61" transform="translate(209.419922 0)"/>
     <use xlink:href="#DejaVuSans-6c" transform="translate(270.699219 0)"/>
     <use xlink:href="#DejaVuSans-69" transform="translate(298.482422 0)"/>
     <use xlink:href="#DejaVuSans-7a" transform="translate(326.265625 0)"/>
     <use xlink:href="#DejaVuSans-61" transform="translate(378.755859 0)"/>
     <use xlink:href="#DejaVuSans-74" transform="translate(440.035156 0)"/>
     <use xlink:href="#DejaVuSans-69" transform="translate(479.244141 0)"/>
     <use xlink:href="#DejaVuSans-6f" transform="translate(507.027344 0)"/>
     <use xlink:href="#DejaVuSans-6e" transform="translate(568.208984 0)"/>
     <use xlink:href="#DejaVuSans-20" transform="translate(631.587891 0)"/>
     <use xlink:href="#DejaVuSans-6f" transform="translate(663.375 0)"/>
     <use xlink:href="#DejaVuSans-66" transform="translate(724.556641 0)"/>
     <use xlink:href="#DejaVuSans-20" transform="translate(759.761719 0)"/>
     <use xlink:href="#DejaVuSans-73" transform="translate(791.548828 0)"/>
     <use xlink:href="#DejaVuSans-69" transform="translate(843.648438 0)"/>
     <use xlink:href="#DejaVuSans-6d" transform="translate(871.431641 0)"/>
     <use xlink:href="#DejaVuSans-69" transform="translate(968.84375 0)"/>
     <use xlink:href="#DejaVuSans-6c" transform="translate(996.626953 0)"/>
     <use xlink:href="#DejaVuSans-61" transform="translate(1024.410156 0)"/>
     <use xlink:href="#DejaVuSans-72" transform="translate(1085.689453 0)"/>
     <use xlink:href="#DejaVuSans-20" transform="translate(1126.802734 0)"/>
     <use xlink:href="#DejaVuSans-6c" transform="translate(1158.589844 0)"/>
     <use xlink:href="#DejaVuSans-69" transform="translate(1186.373047 0)"/>
     <use xlink:href="#DejaVuSans-6e" transform="translate(1214.15625 0)"/>
     <use xlink:href="#DejaVuSans-65" transform="translate(1277.535156 0)"/>
     <use xlink:href="#DejaVuSans-73" transform="translate(1339.058594 0)"/>
     <use xlink:href="#DejaVuSans-20" transform="translate(1391.158203 0)"/>
     <use xlink:href="#DejaVuSans-70" transform="translate(1422.945312 0)"/>
     <use xlink:href="#DejaVuSans-6c" transform="translate(1486.421875 0)"/>
     <use xlink:href="#DejaVuSans-6f" transform="translate(1514.205078 0)"/>
     <use xlink:href="#DejaVuSans-74" transform="translate(1575.386719 0)"/>
     <use xlink:href="#DejaVuSans-74" transform="translate(1614.595703 0)"/>
     <use xlink:href="#DejaVuSans-65" transform="translate(1653.804688 0)"/>
     <use xlink:href="#DejaVuSans-64" transform="translate(1715.328125 0)"/>
     <use xlink:href="#DejaVuSans-20" transform="translate(1778.804688 0)"/>
     <use xlink:href="#DejaVuSans-74" transform="translate(1810.591797 0)"/>
     <use xlink:href="#DejaVuSans-6f" transform="translate(1849.800781 0)"/>
     <use xlink:href="#DejaVuSans-67" transform="translate(1910.982422 0)"/>
     <use xlink:href="#DejaVuSans-65" transform="translate(1974.458984 0)"/>
     <use xlink:href="#DejaVuSans-74" transform="translate(2035.982422 0)"/>
     <use xlink:href="#DejaVuSans-68" transform="translate(2075.191406 0)"/>
     <use xlink:href="#DejaVuSans-65" transform="translate(2138.570312 0)"/>
     <use xlink:href="#DejaVuSans-72" transform="translate(2200.09375 0)"/>
    </g>
   </g>
   <g id="legend_1">
    <g id="patch_7">
     <path d="M 35.942188 59.674375 
L 104.001563 59.674375 
Q 106.001563 59.674375 106.001563 57.674375 
L 106.001563 29.318125 
Q 106.001563 27.318125 104.001563 27.318125 
L 35.942188 27.318125 
Q 33.942188 27.318125 33.942188 29.318125 
L 33.942188 57.674375 
Q 33.942188 59.674375 35.942188 59.674375 
z
" style="fill: #ffffff; opacity: 0.8; stroke: #cccccc; stroke-linejoin: miter"/>
    </g>
    <g id="line2d_19">
     <path d="M 37.942188 35.416562 
L 47.942188 35.416562 
L 57.942188 35.416562 
" style="fill: none; stroke: #008000; stroke-width: 1.5; stroke-linecap: square"/>
    </g>
    <g id="text_12">
     <!-- HGI -->
     <g transform="translate(65.942188 38.916562) scale(0.1 -0.1)">
      <defs>
       <path id="DejaVuSans-48" d="M 628 4666 
L 1259 4666 
L 1259 2753 
L 3553 2753 
L 3553 4666 
L 4184 4666 
L 4184 0 
L 3553 0 
L 3553 2222 
L 1259 2222 
L 1259 0 
L 628 0 
L 628 4666 
z
" transform="scale(0.015625)"/>
       <path id="DejaVuSans-47" d="M 3809 666 
L 3809 1919 
L 2778 1919 
L 2778 2438 
L 4434 2438 
L 4434 434 
Q 4069 175 3628 42 
Q 3188 -91 2688 -91 
Q 1594 -91 976 548 
Q 359 1188 359 2328 
Q 359 3472 976 4111 
Q 1594 4750 2688 4750 
Q 3144 4750 3555 4637 
Q 3966 4525 4313 4306 
L 4313 3634 
Q 3963 3931 3569 4081 
Q 3175 4231 2741 4231 
Q 1884 4231 1454 3753 
Q 1025 3275 1025 2328 
Q 1025 1384 1454 906 
Q 1884 428 2741 428 
Q 3075 428 3337 486 
Q 3600 544 3809 666 
z
" transform="scale(0.015625)"/>
       <path id="DejaVuSans-49" d="M 628 4666 
L 1259 4666 
L 1259 0 
L 628 0 
L 628 4666 
z
" transform="scale(0.015625)"/>
      </defs>
      <use xlink:href="#DejaVuSans-48"/>
      <use xlink:href="#DejaVuSans-47" transform="translate(75.195312 0)"/>
      <use xlink:href="#DejaVuSans-49" transform="translate(152.685547 0)"/>
     </g>
    </g>
    <g id="line2d_20">
     <path d="M 37.942188 50.094687 
L 47.942188 50.094687 
L 57.942188 50.094687 
" style="fill: none; stroke: #0000ff; stroke-width: 1.5; stroke-linecap: square"/>
    </g>
    <g id="text_13">
     <!-- Clinical -->
     <g transform="translate(65.942188 53.594687) scale(0.1 -0.1)">
      <defs>
       <path id="DejaVuSans-43" d="M 4122 4306 
L 4122 3641 
Q 3803 3938 3442 4084 
Q 3081 4231 2675 4231 
Q 1875 4231 1450 3742 
Q 1025 3253 1025 2328 
Q 1025 1406 1450 917 
Q 1875 428 2675 428 
Q 3081 428 3442 575 
Q 3803 722 4122 1019 
L 4122 359 
Q 3791 134 3420 21 
Q 3050 -91 2638 -91 
Q 1578 -91 968 557 
Q 359 1206 359 2328 
Q 359 3453 968 4101 
Q 1578 4750 2638 4750 
Q 3056 4750 3426 4639 
Q 3797 4528 4122 4306 
z
" transform="scale(0.015625)"/>
       <path id="DejaVuSans-63" d="M 3122 3366 
L 3122 2828 
Q 2878 2963 2633 3030 
Q 2388 3097 2138 3097 
Q 1578 3097 1268 2742 
Q 959 2388 959 1747 
Q 959 1106 1268 751 
Q 1578 397 2138 397 
Q 2388 397 2633 464 
Q 2878 531 3122 666 
L 3122 134 
Q 2881 22 2623 -34 
Q 2366 -91 2075 -91 
Q 1284 -91 818 406 
Q 353 903 353 1747 
Q 353 2603 823 3093 
Q 1294 3584 2113 3584 
Q 2378 3584 2631 3529 
Q 2884 3475 3122 3366 
z
" transform="scale(0.015625)"/>
      </defs>
      <use xlink:href="#DejaVuSans-43"/>
      <use xlink:href="#DejaVuSans-6c" transform="translate(69.824219 0)"/>
      <use xlink:href="#DejaVuSans-69" transform="translate(97.607422 0)"/>
      <use xlink:href="#DejaVuSans-6e" transform="translate(125.390625 0)"/>
      <use xlink:href="#DejaVuSans-69" transform="translate(188.769531 0)"/>
      <use xlink:href="#DejaVuSans-63" transform="translate(216.552734 0)"/>
      <use xlink:href="#DejaVuSans-61" transform="translate(271.533203 0)"/>
      <use xlink:href="#DejaVuSans-6c" transform="translate(332.8125 0)"/>
     </g>
    </g>
   </g>
  </g>
 </g>
 <defs>
  <clipPath id="p11f9388389">
   <rect x="28.942187" y="22.318125" width="433.057333" height="307.80327"/>
  </clipPath>
 </defs>
</svg>
