<?xml version="1.0" encoding="utf-8" standalone="no"?>
<!DOCTYPE svg PUBLIC "-//W3C//DTD SVG 1.1//EN"
  "http://www.w3.org/Graphics/SVG/1.1/DTD/svg11.dtd">
<svg xmlns:xlink="http://www.w3.org/1999/xlink" width="469.19952pt" height="353.99952pt" viewBox="0 0 469.19952 353.99952" xmlns="http://www.w3.org/2000/svg" version="1.1">
 <metadata>
  <rdf:RDF xmlns:dc="http://purl.org/dc/elements/1.1/" xmlns:cc="http://creativecommons.org/ns#" xmlns:rdf="http://www.w3.org/1999/02/22-rdf-syntax-ns#">
   <cc:Work>
    <dc:type rdf:resource="http://purl.org/dc/dcmitype/StillImage"/>
    <dc:date>2025-12-27T13:09:15.594308</dc:date>
    <dc:format>image/svg+xml</dc:format>
    <dc:creator>
     <cc:Agent>
      <dc:title>made/written by /home/con/Scripts/python/matplotlib/MatPlotLib-Simple/t/01.all.tests.t called using "plt" in /home/con/perl5/perlbrew/perls/perl-5.42.0/lib/site_perl/5.42.0/x86_64-linux/Matplotlib/Simple.pm</dc:title>
     </cc:Agent>
    </dc:creator>
   </cc:Work>
  </rdf:RDF>
 </metadata>
 <defs>
  <style type="text/css">*{stroke-linejoin: round; stroke-linecap: butt}</style>
 </defs>
 <g id="figure_1">
  <g id="patch_1">
   <path d="M 0 353.99952 
L 469.19952 353.99952 
L 469.19952 0 
L 0 0 
z
" style="fill: #ffffff"/>
  </g>
  <g id="axes_1">
   <g id="patch_2">
    <path d="M 28.942187 330.121395 
L 461.99952 330.121395 
L 461.99952 22.318125 
L 28.942187 22.318125 
z
" style="fill: #ffffff"/>
   </g>
   <g id="FillBetweenPolyCollection_1">
    <defs>
     <path id="mf22994134d" d="M 442.315096 -308.594148 
L 442.315096 -307.240627 
L 438.378211 -309.144327 
L 434.441326 -301.806578 
L 430.504441 -296.603649 
L 426.567556 -306.732299 
L 422.630672 -296.095003 
L 418.693787 -306.5499 
L 414.756902 -298.530497 
L 410.820017 -298.453951 
L 406.883132 -302.955162 
L 402.946247 -297.364712 
L 399.009363 -306.179855 
L 395.072478 -300.971679 
L 391.135593 -300.721324 
L 387.198708 -294.819018 
L 383.261823 -303.334217 
L 379.324938 -303.85546 
L 375.388054 -300.671245 
L 371.451169 -290.722859 
L 367.514284 -302.951282 
L 363.577399 -298.604716 
L 359.640514 -297.227689 
L 355.703629 -291.066411 
L 351.766744 -292.348759 
L 347.82986 -297.255554 
L 343.892975 -289.854676 
L 339.95609 -291.960324 
L 336.019205 -299.469369 
L 332.08232 -296.731338 
L 328.145435 -294.584201 
L 324.208551 -296.306304 
L 320.271666 -289.631102 
L 316.334781 -293.689114 
L 312.397896 -293.192701 
L 308.461011 -289.007284 
L 304.524126 -284.915545 
L 300.587242 -288.343984 
L 296.650357 -293.08182 
L 292.713472 -288.071398 
L 288.776587 -283.022821 
L 284.839702 -291.198424 
L 280.902817 -287.801492 
L 276.965932 -286.619337 
L 273.029048 -286.131471 
L 269.092163 -281.501749 
L 265.155278 -279.38645 
L 261.218393 -279.318875 
L 257.281508 -280.523134 
L 253.344623 -276.45921 
L 249.407739 -280.925962 
L 245.470854 -275.938 
L 241.533969 -274.533507 
L 237.597084 -280.690272 
L 233.660199 -276.367148 
L 229.723314 -273.514976 
L 225.78643 -274.561963 
L 221.849545 -277.694925 
L 217.91266 -276.767442 
L 213.975775 -277.734283 
L 210.03889 -275.424737 
L 206.102005 -265.554204 
L 202.165121 -264.090861 
L 198.228236 -263.614057 
L 194.291351 -264.251993 
L 190.354466 -267.945441 
L 186.417581 -268.304077 
L 182.480696 -264.69399 
L 178.543811 -263.876083 
L 174.606927 -251.682254 
L 170.670042 -254.830129 
L 166.733157 -253.985341 
L 162.796272 -253.076154 
L 158.859387 -248.966855 
L 154.922502 -252.86237 
L 150.985618 -247.910007 
L 147.048733 -236.303105 
L 143.111848 -237.814716 
L 139.174963 -237.937117 
L 135.238078 -239.299144 
L 131.301193 -235.95172 
L 127.364309 -229.0571 
L 123.427424 -222.368762 
L 119.490539 -218.991451 
L 115.553654 -211.809403 
L 111.616769 -208.942938 
L 107.679884 -208.616847 
L 103.742999 -198.798617 
L 99.806115 -197.156874 
L 95.86923 -195.178204 
L 91.932345 -187.16832 
L 87.99546 -179.233433 
L 84.058575 -164.418945 
L 80.12169 -163.36855 
L 76.184806 -149.36751 
L 72.247921 -144.375054 
L 68.311036 -133.531045 
L 64.374151 -116.48806 
L 60.437266 -95.695776 
L 56.500381 -76.274993 
L 52.563497 -62.898487 
L 48.626612 -38.53899 
L 48.626612 -43.274656 
L 48.626612 -43.274656 
L 52.563497 -74.891502 
L 56.500381 -87.943578 
L 60.437266 -107.279264 
L 64.374151 -130.172605 
L 68.311036 -135.684778 
L 72.247921 -155.713625 
L 76.184806 -154.873911 
L 80.12169 -165.983279 
L 84.058575 -172.641538 
L 87.99546 -182.480657 
L 91.932345 -190.036286 
L 95.86923 -203.488832 
L 99.806115 -211.709541 
L 103.742999 -215.347448 
L 107.679884 -211.529799 
L 111.616769 -217.51051 
L 115.553654 -219.366843 
L 119.490539 -228.451679 
L 123.427424 -232.360148 
L 127.364309 -234.668875 
L 131.301193 -242.905692 
L 135.238078 -246.978236 
L 139.174963 -247.137803 
L 143.111848 -250.255981 
L 147.048733 -256.339559 
L 150.985618 -260.440138 
L 154.922502 -260.793779 
L 158.859387 -253.546944 
L 162.796272 -256.362374 
L 166.733157 -258.839594 
L 170.670042 -259.038525 
L 174.606927 -261.1216 
L 178.543811 -269.108595 
L 182.480696 -275.838106 
L 186.417581 -277.534839 
L 190.354466 -270.340311 
L 194.291351 -269.753549 
L 198.228236 -278.676222 
L 202.165121 -276.132776 
L 206.102005 -272.328583 
L 210.03889 -277.739356 
L 213.975775 -286.285832 
L 217.91266 -283.730809 
L 221.849545 -280.429481 
L 225.78643 -281.951712 
L 229.723314 -279.434293 
L 233.660199 -284.086012 
L 237.597084 -282.694908 
L 241.533969 -283.862325 
L 245.470854 -285.632377 
L 249.407739 -284.467108 
L 253.344623 -291.260798 
L 257.281508 -290.640461 
L 261.218393 -286.182343 
L 265.155278 -287.750524 
L 269.092163 -297.566599 
L 273.029048 -296.031511 
L 276.965932 -297.216706 
L 280.902817 -297.825479 
L 284.839702 -299.190867 
L 288.776587 -301.496652 
L 292.713472 -297.541258 
L 296.650357 -294.419173 
L 300.587242 -293.432038 
L 304.524126 -293.315335 
L 308.461011 -294.874082 
L 312.397896 -299.520307 
L 316.334781 -298.532145 
L 320.271666 -305.870233 
L 324.208551 -304.272792 
L 328.145435 -298.391236 
L 332.08232 -308.594148 
L 336.019205 -306.489009 
L 339.95609 -301.986748 
L 343.892975 -304.587881 
L 347.82986 -299.913139 
L 351.766744 -305.87755 
L 355.703629 -299.998513 
L 359.640514 -308.594148 
L 363.577399 -308.594148 
L 367.514284 -308.594148 
L 371.451169 -300.827978 
L 375.388054 -303.812468 
L 379.324938 -308.594148 
L 383.261823 -308.594148 
L 387.198708 -308.594148 
L 391.135593 -305.05075 
L 395.072478 -305.551232 
L 399.009363 -308.594148 
L 402.946247 -308.49356 
L 406.883132 -305.498082 
L 410.820017 -307.61633 
L 414.756902 -308.594148 
L 418.693787 -308.447366 
L 422.630672 -308.594148 
L 426.567556 -308.594148 
L 430.504441 -306.747621 
L 434.441326 -308.594148 
L 438.378211 -308.594148 
L 442.315096 -308.594148 
z
" style="stroke: #ff0000; stroke-opacity: 0.3"/>
    </defs>
    <g clip-path="url(#p6af816f924)">
     <use xlink:href="#mf22994134d" x="0" y="353.99952" style="fill: #ff0000; fill-opacity: 0.3; stroke: #ff0000; stroke-opacity: 0.3"/>
    </g>
   </g>
   <g id="matplotlib.axis_1">
    <g id="xtick_1">
     <g id="line2d_1">
      <defs>
       <path id="m44a893a816" d="M 0 0 
L 0 3.5 
" style="stroke: #000000; stroke-width: 0.8"/>
      </defs>
      <g>
       <use xlink:href="#m44a893a816" x="92.369777" y="330.121395" style="stroke: #000000; stroke-width: 0.8"/>
      </g>
     </g>
     <g id="text_1">
      <!-- 0.2 -->
      <g transform="translate(84.418214 344.719832) scale(0.1 -0.1)">
       <defs>
        <path id="DejaVuSans-30" d="M 2034 4250 
Q 1547 4250 1301 3770 
Q 1056 3291 1056 2328 
Q 1056 1369 1301 889 
Q 1547 409 2034 409 
Q 2525 409 2770 889 
Q 3016 1369 3016 2328 
Q 3016 3291 2770 3770 
Q 2525 4250 2034 4250 
z
M 2034 4750 
Q 2819 4750 3233 4129 
Q 3647 3509 3647 2328 
Q 3647 1150 3233 529 
Q 2819 -91 2034 -91 
Q 1250 -91 836 529 
Q 422 1150 422 2328 
Q 422 3509 836 4129 
Q 1250 4750 2034 4750 
z
" transform="scale(0.015625)"/>
        <path id="DejaVuSans-2e" d="M 684 794 
L 1344 794 
L 1344 0 
L 684 0 
L 684 794 
z
" transform="scale(0.015625)"/>
        <path id="DejaVuSans-32" d="M 1228 531 
L 3431 531 
L 3431 0 
L 469 0 
L 469 531 
Q 828 903 1448 1529 
Q 2069 2156 2228 2338 
Q 2531 2678 2651 2914 
Q 2772 3150 2772 3378 
Q 2772 3750 2511 3984 
Q 2250 4219 1831 4219 
Q 1534 4219 1204 4116 
Q 875 4013 500 3803 
L 500 4441 
Q 881 4594 1212 4672 
Q 1544 4750 1819 4750 
Q 2544 4750 2975 4387 
Q 3406 4025 3406 3419 
Q 3406 3131 3298 2873 
Q 3191 2616 2906 2266 
Q 2828 2175 2409 1742 
Q 1991 1309 1228 531 
z
" transform="scale(0.015625)"/>
       </defs>
       <use xlink:href="#DejaVuSans-30"/>
       <use xlink:href="#DejaVuSans-2e" transform="translate(63.623047 0)"/>
       <use xlink:href="#DejaVuSans-32" transform="translate(95.410156 0)"/>
      </g>
     </g>
    </g>
    <g id="xtick_2">
     <g id="line2d_2">
      <g>
       <use xlink:href="#m44a893a816" x="179.856106" y="330.121395" style="stroke: #000000; stroke-width: 0.8"/>
      </g>
     </g>
     <g id="text_2">
      <!-- 0.4 -->
      <g transform="translate(171.904544 344.719832) scale(0.1 -0.1)">
       <defs>
        <path id="DejaVuSans-34" d="M 2419 4116 
L 825 1625 
L 2419 1625 
L 2419 4116 
z
M 2253 4666 
L 3047 4666 
L 3047 1625 
L 3713 1625 
L 3713 1100 
L 3047 1100 
L 3047 0 
L 2419 0 
L 2419 1100 
L 313 1100 
L 313 1709 
L 2253 4666 
z
" transform="scale(0.015625)"/>
       </defs>
       <use xlink:href="#DejaVuSans-30"/>
       <use xlink:href="#DejaVuSans-2e" transform="translate(63.623047 0)"/>
       <use xlink:href="#DejaVuSans-34" transform="translate(95.410156 0)"/>
      </g>
     </g>
    </g>
    <g id="xtick_3">
     <g id="line2d_3">
      <g>
       <use xlink:href="#m44a893a816" x="267.342436" y="330.121395" style="stroke: #000000; stroke-width: 0.8"/>
      </g>
     </g>
     <g id="text_3">
      <!-- 0.6 -->
      <g transform="translate(259.390874 344.719832) scale(0.1 -0.1)">
       <defs>
        <path id="DejaVuSans-36" d="M 2113 2584 
Q 1688 2584 1439 2293 
Q 1191 2003 1191 1497 
Q 1191 994 1439 701 
Q 1688 409 2113 409 
Q 2538 409 2786 701 
Q 3034 994 3034 1497 
Q 3034 2003 2786 2293 
Q 2538 2584 2113 2584 
z
M 3366 4563 
L 3366 3988 
Q 3128 4100 2886 4159 
Q 2644 4219 2406 4219 
Q 1781 4219 1451 3797 
Q 1122 3375 1075 2522 
Q 1259 2794 1537 2939 
Q 1816 3084 2150 3084 
Q 2853 3084 3261 2657 
Q 3669 2231 3669 1497 
Q 3669 778 3244 343 
Q 2819 -91 2113 -91 
Q 1303 -91 875 529 
Q 447 1150 447 2328 
Q 447 3434 972 4092 
Q 1497 4750 2381 4750 
Q 2619 4750 2861 4703 
Q 3103 4656 3366 4563 
z
" transform="scale(0.015625)"/>
       </defs>
       <use xlink:href="#DejaVuSans-30"/>
       <use xlink:href="#DejaVuSans-2e" transform="translate(63.623047 0)"/>
       <use xlink:href="#DejaVuSans-36" transform="translate(95.410156 0)"/>
      </g>
     </g>
    </g>
    <g id="xtick_4">
     <g id="line2d_4">
      <g>
       <use xlink:href="#m44a893a816" x="354.828766" y="330.121395" style="stroke: #000000; stroke-width: 0.8"/>
      </g>
     </g>
     <g id="text_4">
      <!-- 0.8 -->
      <g transform="translate(346.877203 344.719832) scale(0.1 -0.1)">
       <defs>
        <path id="DejaVuSans-38" d="M 2034 2216 
Q 1584 2216 1326 1975 
Q 1069 1734 1069 1313 
Q 1069 891 1326 650 
Q 1584 409 2034 409 
Q 2484 409 2743 651 
Q 3003 894 3003 1313 
Q 3003 1734 2745 1975 
Q 2488 2216 2034 2216 
z
M 1403 2484 
Q 997 2584 770 2862 
Q 544 3141 544 3541 
Q 544 4100 942 4425 
Q 1341 4750 2034 4750 
Q 2731 4750 3128 4425 
Q 3525 4100 3525 3541 
Q 3525 3141 3298 2862 
Q 3072 2584 2669 2484 
Q 3125 2378 3379 2068 
Q 3634 1759 3634 1313 
Q 3634 634 3220 271 
Q 2806 -91 2034 -91 
Q 1263 -91 848 271 
Q 434 634 434 1313 
Q 434 1759 690 2068 
Q 947 2378 1403 2484 
z
M 1172 3481 
Q 1172 3119 1398 2916 
Q 1625 2713 2034 2713 
Q 2441 2713 2670 2916 
Q 2900 3119 2900 3481 
Q 2900 3844 2670 4047 
Q 2441 4250 2034 4250 
Q 1625 4250 1398 4047 
Q 1172 3844 1172 3481 
z
" transform="scale(0.015625)"/>
       </defs>
       <use xlink:href="#DejaVuSans-30"/>
       <use xlink:href="#DejaVuSans-2e" transform="translate(63.623047 0)"/>
       <use xlink:href="#DejaVuSans-38" transform="translate(95.410156 0)"/>
      </g>
     </g>
    </g>
    <g id="xtick_5">
     <g id="line2d_5">
      <g>
       <use xlink:href="#m44a893a816" x="442.315096" y="330.121395" style="stroke: #000000; stroke-width: 0.8"/>
      </g>
     </g>
     <g id="text_5">
      <!-- 1.0 -->
      <g transform="translate(434.363533 344.719832) scale(0.1 -0.1)">
       <defs>
        <path id="DejaVuSans-31" d="M 794 531 
L 1825 531 
L 1825 4091 
L 703 3866 
L 703 4441 
L 1819 4666 
L 2450 4666 
L 2450 531 
L 3481 531 
L 3481 0 
L 794 0 
L 794 531 
z
" transform="scale(0.015625)"/>
       </defs>
       <use xlink:href="#DejaVuSans-31"/>
       <use xlink:href="#DejaVuSans-2e" transform="translate(63.623047 0)"/>
       <use xlink:href="#DejaVuSans-30" transform="translate(95.410156 0)"/>
      </g>
     </g>
    </g>
   </g>
   <g id="matplotlib.axis_2">
    <g id="ytick_1">
     <g id="line2d_6">
      <defs>
       <path id="m24bbb6af29" d="M 0 0 
L -3.5 0 
" style="stroke: #000000; stroke-width: 0.8"/>
      </defs>
      <g>
       <use xlink:href="#m24bbb6af29" x="28.942187" y="312.794331" style="stroke: #000000; stroke-width: 0.8"/>
      </g>
     </g>
     <g id="text_6">
      <!-- −8 -->
      <g transform="translate(7.2 316.593549) scale(0.1 -0.1)">
       <defs>
        <path id="DejaVuSans-2212" d="M 678 2272 
L 4684 2272 
L 4684 1741 
L 678 1741 
L 678 2272 
z
" transform="scale(0.015625)"/>
       </defs>
       <use xlink:href="#DejaVuSans-2212"/>
       <use xlink:href="#DejaVuSans-38" transform="translate(83.789062 0)"/>
      </g>
     </g>
    </g>
    <g id="ytick_2">
     <g id="line2d_7">
      <g>
       <use xlink:href="#m24bbb6af29" x="28.942187" y="253.374562" style="stroke: #000000; stroke-width: 0.8"/>
      </g>
     </g>
     <g id="text_7">
      <!-- −6 -->
      <g transform="translate(7.2 257.173781) scale(0.1 -0.1)">
       <use xlink:href="#DejaVuSans-2212"/>
       <use xlink:href="#DejaVuSans-36" transform="translate(83.789062 0)"/>
      </g>
     </g>
    </g>
    <g id="ytick_3">
     <g id="line2d_8">
      <g>
       <use xlink:href="#m24bbb6af29" x="28.942187" y="193.954794" style="stroke: #000000; stroke-width: 0.8"/>
      </g>
     </g>
     <g id="text_8">
      <!-- −4 -->
      <g transform="translate(7.2 197.754012) scale(0.1 -0.1)">
       <use xlink:href="#DejaVuSans-2212"/>
       <use xlink:href="#DejaVuSans-34" transform="translate(83.789062 0)"/>
      </g>
     </g>
    </g>
    <g id="ytick_4">
     <g id="line2d_9">
      <g>
       <use xlink:href="#m24bbb6af29" x="28.942187" y="134.535025" style="stroke: #000000; stroke-width: 0.8"/>
      </g>
     </g>
     <g id="text_9">
      <!-- −2 -->
      <g transform="translate(7.2 138.334244) scale(0.1 -0.1)">
       <use xlink:href="#DejaVuSans-2212"/>
       <use xlink:href="#DejaVuSans-32" transform="translate(83.789062 0)"/>
      </g>
     </g>
    </g>
    <g id="ytick_5">
     <g id="line2d_10">
      <g>
       <use xlink:href="#m24bbb6af29" x="28.942187" y="75.115257" style="stroke: #000000; stroke-width: 0.8"/>
      </g>
     </g>
     <g id="text_10">
      <!-- 0 -->
      <g transform="translate(15.579687 78.914475) scale(0.1 -0.1)">
       <use xlink:href="#DejaVuSans-30"/>
      </g>
     </g>
    </g>
   </g>
   <g id="line2d_11">
    <path d="M 48.626612 312.794331 
L 52.603263 288.036094 
L 56.579914 267.086816 
L 60.556566 249.130293 
L 64.533217 233.567973 
L 68.509868 219.950942 
L 72.48652 207.935916 
L 76.463171 197.255892 
L 80.439823 187.700081 
L 84.416474 179.099851 
L 88.393125 171.318691 
L 92.369777 164.244909 
L 96.346428 157.786239 
L 100.323079 151.865791 
L 104.299731 146.418979 
L 108.276382 141.391152 
L 112.253033 136.735757 
L 116.229685 132.412891 
L 120.206336 128.388153 
L 124.182987 124.63173 
L 128.159639 121.117658 
L 132.13629 117.823215 
L 136.112942 114.728436 
L 140.089593 111.815702 
L 144.066244 109.06941 
L 148.042896 106.47569 
L 152.019547 104.022171 
L 155.996198 101.697785 
L 159.97285 99.492598 
L 163.949501 97.39767 
L 167.926152 95.404934 
L 171.902804 93.50709 
L 175.879455 91.697518 
L 179.856106 89.970199 
L 183.832758 88.31965 
L 187.809409 86.740864 
L 191.78606 85.22926 
L 195.762712 83.78064 
L 199.739363 82.391147 
L 203.716015 81.057233 
L 207.692666 79.775631 
L 211.669317 78.54332 
L 215.645969 77.357512 
L 219.62262 76.215623 
L 223.599271 75.115257 
L 227.575923 74.054189 
L 231.552574 73.030352 
L 235.529225 72.04182 
L 239.505877 71.086798 
L 243.482528 70.163609 
L 247.459179 69.270689 
L 251.435831 68.406573 
L 255.412482 67.569889 
L 259.389133 66.759352 
L 263.365785 65.973754 
L 267.342436 65.211962 
L 271.319088 64.47291 
L 275.295739 63.755595 
L 279.27239 63.059072 
L 283.249042 62.382449 
L 287.225693 61.724886 
L 291.202344 61.085589 
L 295.178996 60.463807 
L 299.155647 59.85883 
L 303.132298 59.269985 
L 307.10895 58.696636 
L 311.085601 58.13818 
L 315.062252 57.594043 
L 319.038904 57.063681 
L 323.015555 56.546579 
L 326.992207 56.042245 
L 330.968858 55.550211 
L 334.945509 55.070034 
L 338.922161 54.601289 
L 342.898812 54.143574 
L 346.875463 53.696503 
L 350.852115 53.25971 
L 354.828766 52.832843 
L 358.805417 52.41557 
L 362.782069 52.007569 
L 366.75872 51.608535 
L 370.735371 51.218176 
L 374.712023 50.836211 
L 378.688674 50.462374 
L 382.665325 50.096407 
L 386.641977 49.738064 
L 390.618628 49.387109 
L 394.59528 49.043317 
L 398.571931 48.706471 
L 402.548582 48.376361 
L 406.525234 48.052788 
L 410.501885 47.735559 
L 414.478536 47.424491 
L 418.455188 47.119404 
L 422.431839 46.820129 
L 426.40849 46.5265 
L 430.385142 46.23836 
L 434.361793 45.955555 
L 438.338444 45.67794 
L 442.315096 45.405372 
" clip-path="url(#p6af816f924)" style="fill: none; stroke: #ff0000; stroke-opacity: 0.15; stroke-width: 1.5; stroke-linecap: square"/>
   </g>
   <g id="line2d_12">
    <path d="M 48.626612 310.353424 
L 52.603263 290.121219 
L 56.579914 279.931846 
L 60.556566 246.271291 
L 64.533217 236.315807 
L 68.509868 217.042392 
L 72.48652 206.602197 
L 76.463171 203.957883 
L 80.439823 190.059088 
L 84.416474 186.585925 
L 88.393125 170.26264 
L 92.369777 166.945539 
L 96.346428 155.10843 
L 100.323079 137.197242 
L 104.299731 160.143015 
L 108.276382 141.057503 
L 112.253033 137.435039 
L 116.229685 140.819264 
L 120.206336 135.631416 
L 124.182987 132.747602 
L 128.159639 115.399329 
L 132.13629 115.073104 
L 136.112942 103.464219 
L 140.089593 120.412444 
L 144.066244 96.798759 
L 148.042896 95.326862 
L 152.019547 89.448786 
L 155.996198 93.874114 
L 159.97285 105.750776 
L 163.949501 95.165752 
L 167.926152 95.989212 
L 171.902804 99.937953 
L 175.879455 105.540686 
L 179.856106 79.100558 
L 183.832758 90.049737 
L 187.809409 74.134557 
L 191.78606 88.244945 
L 195.762712 92.266797 
L 199.739363 91.90983 
L 203.716015 92.287741 
L 207.692666 84.849971 
L 211.669317 70.671868 
L 215.645969 65.695447 
L 219.62262 71.251139 
L 223.599271 74.432907 
L 227.575923 85.919004 
L 231.552574 75.94944 
L 235.529225 64.362557 
L 239.505877 82.36354 
L 243.482528 80.29735 
L 247.459179 79.840282 
L 251.435831 65.787693 
L 255.412482 58.590858 
L 259.389133 67.820136 
L 263.365785 80.267275 
L 267.342436 57.092953 
L 271.319088 51.02654 
L 275.295739 63.358244 
L 279.27239 73.860065 
L 283.249042 55.589363 
L 287.225693 49.574417 
L 291.202344 52.105 
L 295.178996 61.233164 
L 299.155647 60.798862 
L 303.132298 69.702252 
L 307.10895 67.23951 
L 311.085601 62.684369 
L 315.062252 58.642089 
L 319.038904 47.831965 
L 323.015555 41.900986 
L 326.992207 62.493776 
L 330.968858 41.656472 
L 334.945509 43.572313 
L 338.922161 54.139027 
L 342.898812 48.091706 
L 346.875463 53.518524 
L 350.852115 63.581524 
L 354.828766 64.956048 
L 358.805417 37.9823 
L 362.782069 57.161411 
L 366.75872 44.403003 
L 370.735371 63.751432 
L 374.712023 57.520711 
L 378.688674 36.659329 
L 382.665325 40.84063 
L 386.641977 63.34617 
L 390.618628 49.677455 
L 394.59528 50.900888 
L 398.571931 37.042178 
L 402.548582 59.853138 
L 406.525234 49.586645 
L 410.501885 57.340864 
L 414.478536 58.6193 
L 418.455188 44.122362 
L 422.431839 61.442175 
L 426.40849 46.406687 
L 430.385142 58.797242 
L 434.361793 53.799112 
L 438.338444 41.07514 
L 442.315096 46.615459 
" clip-path="url(#p6af816f924)" style="fill: none; stroke: #ff0000; stroke-opacity: 0.15; stroke-width: 1.5; stroke-linecap: square"/>
   </g>
   <g id="line2d_13">
    <path d="M 48.626612 316.130337 
L 52.603263 276.308138 
L 56.579914 267.860312 
L 60.556566 260.360923 
L 64.533217 219.467326 
L 68.509868 219.540634 
L 72.48652 194.476252 
L 76.463171 204.168401 
L 80.439823 186.958486 
L 84.416474 189.900208 
L 88.393125 173.828477 
L 92.369777 162.625925 
L 96.346428 147.037196 
L 100.323079 157.957421 
L 104.299731 133.201495 
L 108.276382 147.920836 
L 112.253033 146.614047 
L 116.229685 140.865157 
L 120.206336 121.707687 
L 124.182987 121.160194 
L 128.159639 126.860128 
L 132.13629 105.588805 
L 136.112942 112.72499 
L 140.089593 103.194089 
L 144.066244 122.278119 
L 148.042896 119.528104 
L 152.019547 98.322789 
L 155.996198 95.839094 
L 159.97285 109.524382 
L 163.949501 98.363506 
L 167.926152 102.15311 
L 171.902804 96.693986 
L 175.879455 96.803398 
L 179.856106 77.92598 
L 183.832758 74.996562 
L 187.809409 76.912432 
L 191.78606 90.535648 
L 195.762712 83.169393 
L 199.739363 67.732484 
L 203.716015 84.474788 
L 207.692666 88.78519 
L 211.669317 68.333957 
L 215.645969 71.770741 
L 219.62262 78.633224 
L 223.599271 74.251761 
L 227.575923 70.059681 
L 231.552574 85.760085 
L 235.529225 73.012748 
L 239.505877 70.396914 
L 243.482528 74.479548 
L 247.459179 65.23451 
L 251.435831 79.260347 
L 255.412482 80.968729 
L 259.389133 68.557843 
L 263.365785 79.960221 
L 267.342436 70.76711 
L 271.319088 78.308971 
L 275.295739 54.940318 
L 279.27239 55.112018 
L 283.249042 53.393363 
L 287.225693 72.68949 
L 291.202344 73.953479 
L 295.178996 56.066854 
L 299.155647 65.168955 
L 303.132298 66.59852 
L 307.10895 67.010275 
L 311.085601 52.212374 
L 315.062252 56.477959 
L 319.038904 70.795258 
L 323.015555 54.842224 
L 326.992207 60.887524 
L 330.968858 58.464652 
L 334.945509 47.74331 
L 338.922161 62.368809 
L 342.898812 68.753949 
L 346.875463 61.156187 
L 350.852115 42.67292 
L 354.828766 64.094577 
L 358.805417 62.020627 
L 362.782069 38.547581 
L 366.75872 38.258729 
L 370.735371 62.930882 
L 374.712023 51.609203 
L 378.688674 45.237741 
L 382.665325 51.973877 
L 386.641977 36.930701 
L 390.618628 53.98433 
L 394.59528 55.347408 
L 398.571931 43.897797 
L 402.548582 45.455326 
L 406.525234 51.308662 
L 410.501885 47.989435 
L 414.478536 44.863066 
L 418.455188 47.937353 
L 422.431839 36.309183 
L 426.40849 42.301531 
L 430.385142 52.538645 
L 434.361793 37.733161 
L 438.338444 41.696221 
L 442.315096 40.956517 
" clip-path="url(#p6af816f924)" style="fill: none; stroke: #ff0000; stroke-opacity: 0.15; stroke-width: 1.5; stroke-linecap: square"/>
   </g>
   <g id="line2d_14">
    <path d="M 442.315096 44.325783 
L 438.378211 42.831527 
L 434.441326 45.769019 
L 430.504441 52.323885 
L 426.567556 45.3761 
L 422.630672 48.034883 
L 418.693787 46.500887 
L 414.756902 50.028638 
L 410.820017 50.964379 
L 406.883132 49.772898 
L 402.946247 51.070384 
L 399.009363 44.096889 
L 395.072478 50.738064 
L 391.135593 51.113483 
L 387.198708 50.146563 
L 383.261823 47.992172 
L 379.324938 44.68256 
L 375.388054 51.757663 
L 371.451169 58.224102 
L 367.514284 47.520003 
L 363.577399 48.342434 
L 359.640514 50.47703 
L 355.703629 58.467058 
L 351.766744 54.886366 
L 347.82986 55.415173 
L 343.892975 56.778241 
L 339.95609 57.025984 
L 336.019205 51.020331 
L 332.08232 51.023782 
L 328.145435 57.511801 
L 324.208551 53.709972 
L 320.271666 56.248853 
L 316.334781 57.88889 
L 312.397896 57.643016 
L 308.461011 62.058837 
L 304.524126 64.88408 
L 300.587242 63.111509 
L 296.650357 60.249023 
L 292.713472 61.193192 
L 288.776587 61.739783 
L 284.839702 58.804874 
L 280.902817 61.186034 
L 276.965932 62.081499 
L 273.029048 62.918029 
L 269.092163 64.465346 
L 265.155278 70.431033 
L 261.218393 71.248911 
L 257.281508 68.417723 
L 253.344623 70.139516 
L 249.407739 71.302985 
L 245.470854 73.214331 
L 241.533969 74.801604 
L 237.597084 72.30693 
L 233.660199 73.77294 
L 229.723314 77.524885 
L 225.78643 75.742682 
L 221.849545 74.937317 
L 217.91266 73.750394 
L 213.975775 71.989462 
L 210.03889 77.417473 
L 206.102005 85.058127 
L 202.165121 83.887702 
L 198.228236 82.85438 
L 194.291351 86.996749 
L 190.354466 84.856644 
L 186.417581 81.080062 
L 182.480696 83.733472 
L 178.543811 87.507181 
L 174.606927 97.597593 
L 170.670042 97.065193 
L 166.733157 97.587053 
L 162.796272 99.280256 
L 158.859387 102.742621 
L 154.922502 97.171445 
L 150.985618 99.824448 
L 147.048733 107.678188 
L 143.111848 109.964172 
L 139.174963 111.46206 
L 135.238078 110.86083 
L 131.301193 114.570814 
L 127.364309 122.136533 
L 123.427424 126.635065 
L 119.490539 130.277955 
L 115.553654 138.411397 
L 111.616769 140.772796 
L 107.679884 143.926197 
L 103.742999 146.926488 
L 99.806115 149.566312 
L 95.86923 154.666002 
L 91.932345 165.397217 
L 87.99546 173.142475 
L 84.058575 185.469278 
L 80.12169 189.323606 
L 76.184806 201.87881 
L 72.247921 203.95518 
L 68.311036 219.391608 
L 64.374151 230.669187 
L 60.437266 252.512 
L 56.500381 271.890234 
L 52.563497 285.104526 
L 48.626612 313.092697 
" clip-path="url(#p6af816f924)" style="fill: none; stroke: #ff0000; stroke-width: 1.5; stroke-linecap: square"/>
   </g>
   <g id="patch_3">
    <path d="M 28.942187 330.121395 
L 28.942187 22.318125 
" style="fill: none; stroke: #000000; stroke-width: 0.8; stroke-linejoin: miter; stroke-linecap: square"/>
   </g>
   <g id="patch_4">
    <path d="M 461.99952 330.121395 
L 461.99952 22.318125 
" style="fill: none; stroke: #000000; stroke-width: 0.8; stroke-linejoin: miter; stroke-linecap: square"/>
   </g>
   <g id="patch_5">
    <path d="M 28.942187 330.121395 
L 461.99952 330.121395 
" style="fill: none; stroke: #000000; stroke-width: 0.8; stroke-linejoin: miter; stroke-linecap: square"/>
   </g>
   <g id="patch_6">
    <path d="M 28.942187 22.318125 
L 461.99952 22.318125 
" style="fill: none; stroke: #000000; stroke-width: 0.8; stroke-linejoin: miter; stroke-linecap: square"/>
   </g>
   <g id="text_11">
    <!-- Visualization of similar lines plotted together -->
    <g transform="translate(111.001479 16.318125) scale(0.12 -0.12)">
     <defs>
      <path id="DejaVuSans-56" d="M 1831 0 
L 50 4666 
L 709 4666 
L 2188 738 
L 3669 4666 
L 4325 4666 
L 2547 0 
L 1831 0 
z
" transform="scale(0.015625)"/>
      <path id="DejaVuSans-69" d="M 603 3500 
L 1178 3500 
L 1178 0 
L 603 0 
L 603 3500 
z
M 603 4863 
L 1178 4863 
L 1178 4134 
L 603 4134 
L 603 4863 
z
" transform="scale(0.015625)"/>
      <path id="DejaVuSans-73" d="M 2834 3397 
L 2834 2853 
Q 2591 2978 2328 3040 
Q 2066 3103 1784 3103 
Q 1356 3103 1142 2972 
Q 928 2841 928 2578 
Q 928 2378 1081 2264 
Q 1234 2150 1697 2047 
L 1894 2003 
Q 2506 1872 2764 1633 
Q 3022 1394 3022 966 
Q 3022 478 2636 193 
Q 2250 -91 1575 -91 
Q 1294 -91 989 -36 
Q 684 19 347 128 
L 347 722 
Q 666 556 975 473 
Q 1284 391 1588 391 
Q 1994 391 2212 530 
Q 2431 669 2431 922 
Q 2431 1156 2273 1281 
Q 2116 1406 1581 1522 
L 1381 1569 
Q 847 1681 609 1914 
Q 372 2147 372 2553 
Q 372 3047 722 3315 
Q 1072 3584 1716 3584 
Q 2034 3584 2315 3537 
Q 2597 3491 2834 3397 
z
" transform="scale(0.015625)"/>
      <path id="DejaVuSans-75" d="M 544 1381 
L 544 3500 
L 1119 3500 
L 1119 1403 
Q 1119 906 1312 657 
Q 1506 409 1894 409 
Q 2359 409 2629 706 
Q 2900 1003 2900 1516 
L 2900 3500 
L 3475 3500 
L 3475 0 
L 2900 0 
L 2900 538 
Q 2691 219 2414 64 
Q 2138 -91 1772 -91 
Q 1169 -91 856 284 
Q 544 659 544 1381 
z
M 1991 3584 
L 1991 3584 
z
" transform="scale(0.015625)"/>
      <path id="DejaVuSans-61" d="M 2194 1759 
Q 1497 1759 1228 1600 
Q 959 1441 959 1056 
Q 959 750 1161 570 
Q 1363 391 1709 391 
Q 2188 391 2477 730 
Q 2766 1069 2766 1631 
L 2766 1759 
L 2194 1759 
z
M 3341 1997 
L 3341 0 
L 2766 0 
L 2766 531 
Q 2569 213 2275 61 
Q 1981 -91 1556 -91 
Q 1019 -91 701 211 
Q 384 513 384 1019 
Q 384 1609 779 1909 
Q 1175 2209 1959 2209 
L 2766 2209 
L 2766 2266 
Q 2766 2663 2505 2880 
Q 2244 3097 1772 3097 
Q 1472 3097 1187 3025 
Q 903 2953 641 2809 
L 641 3341 
Q 956 3463 1253 3523 
Q 1550 3584 1831 3584 
Q 2591 3584 2966 3190 
Q 3341 2797 3341 1997 
z
" transform="scale(0.015625)"/>
      <path id="DejaVuSans-6c" d="M 603 4863 
L 1178 4863 
L 1178 0 
L 603 0 
L 603 4863 
z
" transform="scale(0.015625)"/>
      <path id="DejaVuSans-7a" d="M 353 3500 
L 3084 3500 
L 3084 2975 
L 922 459 
L 3084 459 
L 3084 0 
L 275 0 
L 275 525 
L 2438 3041 
L 353 3041 
L 353 3500 
z
" transform="scale(0.015625)"/>
      <path id="DejaVuSans-74" d="M 1172 4494 
L 1172 3500 
L 2356 3500 
L 2356 3053 
L 1172 3053 
L 1172 1153 
Q 1172 725 1289 603 
Q 1406 481 1766 481 
L 2356 481 
L 2356 0 
L 1766 0 
Q 1100 0 847 248 
Q 594 497 594 1153 
L 594 3053 
L 172 3053 
L 172 3500 
L 594 3500 
L 594 4494 
L 1172 4494 
z
" transform="scale(0.015625)"/>
      <path id="DejaVuSans-6f" d="M 1959 3097 
Q 1497 3097 1228 2736 
Q 959 2375 959 1747 
Q 959 1119 1226 758 
Q 1494 397 1959 397 
Q 2419 397 2687 759 
Q 2956 1122 2956 1747 
Q 2956 2369 2687 2733 
Q 2419 3097 1959 3097 
z
M 1959 3584 
Q 2709 3584 3137 3096 
Q 3566 2609 3566 1747 
Q 3566 888 3137 398 
Q 2709 -91 1959 -91 
Q 1206 -91 779 398 
Q 353 888 353 1747 
Q 353 2609 779 3096 
Q 1206 3584 1959 3584 
z
" transform="scale(0.015625)"/>
      <path id="DejaVuSans-6e" d="M 3513 2113 
L 3513 0 
L 2938 0 
L 2938 2094 
Q 2938 2591 2744 2837 
Q 2550 3084 2163 3084 
Q 1697 3084 1428 2787 
Q 1159 2491 1159 1978 
L 1159 0 
L 581 0 
L 581 3500 
L 1159 3500 
L 1159 2956 
Q 1366 3272 1645 3428 
Q 1925 3584 2291 3584 
Q 2894 3584 3203 3211 
Q 3513 2838 3513 2113 
z
" transform="scale(0.015625)"/>
      <path id="DejaVuSans-20" transform="scale(0.015625)"/>
      <path id="DejaVuSans-66" d="M 2375 4863 
L 2375 4384 
L 1825 4384 
Q 1516 4384 1395 4259 
Q 1275 4134 1275 3809 
L 1275 3500 
L 2222 3500 
L 2222 3053 
L 1275 3053 
L 1275 0 
L 697 0 
L 697 3053 
L 147 3053 
L 147 3500 
L 697 3500 
L 697 3744 
Q 697 4328 969 4595 
Q 1241 4863 1831 4863 
L 2375 4863 
z
" transform="scale(0.015625)"/>
      <path id="DejaVuSans-6d" d="M 3328 2828 
Q 3544 3216 3844 3400 
Q 4144 3584 4550 3584 
Q 5097 3584 5394 3201 
Q 5691 2819 5691 2113 
L 5691 0 
L 5113 0 
L 5113 2094 
Q 5113 2597 4934 2840 
Q 4756 3084 4391 3084 
Q 3944 3084 3684 2787 
Q 3425 2491 3425 1978 
L 3425 0 
L 2847 0 
L 2847 2094 
Q 2847 2600 2669 2842 
Q 2491 3084 2119 3084 
Q 1678 3084 1418 2786 
Q 1159 2488 1159 1978 
L 1159 0 
L 581 0 
L 581 3500 
L 1159 3500 
L 1159 2956 
Q 1356 3278 1631 3431 
Q 1906 3584 2284 3584 
Q 2666 3584 2933 3390 
Q 3200 3197 3328 2828 
z
" transform="scale(0.015625)"/>
      <path id="DejaVuSans-72" d="M 2631 2963 
Q 2534 3019 2420 3045 
Q 2306 3072 2169 3072 
Q 1681 3072 1420 2755 
Q 1159 2438 1159 1844 
L 1159 0 
L 581 0 
L 581 3500 
L 1159 3500 
L 1159 2956 
Q 1341 3275 1631 3429 
Q 1922 3584 2338 3584 
Q 2397 3584 2469 3576 
Q 2541 3569 2628 3553 
L 2631 2963 
z
" transform="scale(0.015625)"/>
      <path id="DejaVuSans-65" d="M 3597 1894 
L 3597 1613 
L 953 1613 
Q 991 1019 1311 708 
Q 1631 397 2203 397 
Q 2534 397 2845 478 
Q 3156 559 3463 722 
L 3463 178 
Q 3153 47 2828 -22 
Q 2503 -91 2169 -91 
Q 1331 -91 842 396 
Q 353 884 353 1716 
Q 353 2575 817 3079 
Q 1281 3584 2069 3584 
Q 2775 3584 3186 3129 
Q 3597 2675 3597 1894 
z
M 3022 2063 
Q 3016 2534 2758 2815 
Q 2500 3097 2075 3097 
Q 1594 3097 1305 2825 
Q 1016 2553 972 2059 
L 3022 2063 
z
" transform="scale(0.015625)"/>
      <path id="DejaVuSans-70" d="M 1159 525 
L 1159 -1331 
L 581 -1331 
L 581 3500 
L 1159 3500 
L 1159 2969 
Q 1341 3281 1617 3432 
Q 1894 3584 2278 3584 
Q 2916 3584 3314 3078 
Q 3713 2572 3713 1747 
Q 3713 922 3314 415 
Q 2916 -91 2278 -91 
Q 1894 -91 1617 61 
Q 1341 213 1159 525 
z
M 3116 1747 
Q 3116 2381 2855 2742 
Q 2594 3103 2138 3103 
Q 1681 3103 1420 2742 
Q 1159 2381 1159 1747 
Q 1159 1113 1420 752 
Q 1681 391 2138 391 
Q 2594 391 2855 752 
Q 3116 1113 3116 1747 
z
" transform="scale(0.015625)"/>
      <path id="DejaVuSans-64" d="M 2906 2969 
L 2906 4863 
L 3481 4863 
L 3481 0 
L 2906 0 
L 2906 525 
Q 2725 213 2448 61 
Q 2172 -91 1784 -91 
Q 1150 -91 751 415 
Q 353 922 353 1747 
Q 353 2572 751 3078 
Q 1150 3584 1784 3584 
Q 2172 3584 2448 3432 
Q 2725 3281 2906 2969 
z
M 947 1747 
Q 947 1113 1208 752 
Q 1469 391 1925 391 
Q 2381 391 2643 752 
Q 2906 1113 2906 1747 
Q 2906 2381 2643 2742 
Q 2381 3103 1925 3103 
Q 1469 3103 1208 2742 
Q 947 2381 947 1747 
z
" transform="scale(0.015625)"/>
      <path id="DejaVuSans-67" d="M 2906 1791 
Q 2906 2416 2648 2759 
Q 2391 3103 1925 3103 
Q 1463 3103 1205 2759 
Q 947 2416 947 1791 
Q 947 1169 1205 825 
Q 1463 481 1925 481 
Q 2391 481 2648 825 
Q 2906 1169 2906 1791 
z
M 3481 434 
Q 3481 -459 3084 -895 
Q 2688 -1331 1869 -1331 
Q 1566 -1331 1297 -1286 
Q 1028 -1241 775 -1147 
L 775 -588 
Q 1028 -725 1275 -790 
Q 1522 -856 1778 -856 
Q 2344 -856 2625 -561 
Q 2906 -266 2906 331 
L 2906 616 
Q 2728 306 2450 153 
Q 2172 0 1784 0 
Q 1141 0 747 490 
Q 353 981 353 1791 
Q 353 2603 747 3093 
Q 1141 3584 1784 3584 
Q 2172 3584 2450 3431 
Q 2728 3278 2906 2969 
L 2906 3500 
L 3481 3500 
L 3481 434 
z
" transform="scale(0.015625)"/>
      <path id="DejaVuSans-68" d="M 3513 2113 
L 3513 0 
L 2938 0 
L 2938 2094 
Q 2938 2591 2744 2837 
Q 2550 3084 2163 3084 
Q 1697 3084 1428 2787 
Q 1159 2491 1159 1978 
L 1159 0 
L 581 0 
L 581 4863 
L 1159 4863 
L 1159 2956 
Q 1366 3272 1645 3428 
Q 1925 3584 2291 3584 
Q 2894 3584 3203 3211 
Q 3513 2838 3513 2113 
z
" transform="scale(0.015625)"/>
     </defs>
     <use xlink:href="#DejaVuSans-56"/>
     <use xlink:href="#DejaVuSans-69" transform="translate(66.158203 0)"/>
     <use xlink:href="#DejaVuSans-73" transform="translate(93.941406 0)"/>
     <use xlink:href="#DejaVuSans-75" transform="translate(146.041016 0)"/>
     <use xlink:href="#DejaVuSans-61" transform="translate(209.419922 0)"/>
     <use xlink:href="#DejaVuSans-6c" transform="translate(270.699219 0)"/>
     <use xlink:href="#DejaVuSans-69" transform="translate(298.482422 0)"/>
     <use xlink:href="#DejaVuSans-7a" transform="translate(326.265625 0)"/>
     <use xlink:href="#DejaVuSans-61" transform="translate(378.755859 0)"/>
     <use xlink:href="#DejaVuSans-74" transform="translate(440.035156 0)"/>
     <use xlink:href="#DejaVuSans-69" transform="translate(479.244141 0)"/>
     <use xlink:href="#DejaVuSans-6f" transform="translate(507.027344 0)"/>
     <use xlink:href="#DejaVuSans-6e" transform="translate(568.208984 0)"/>
     <use xlink:href="#DejaVuSans-20" transform="translate(631.587891 0)"/>
     <use xlink:href="#DejaVuSans-6f" transform="translate(663.375 0)"/>
     <use xlink:href="#DejaVuSans-66" transform="translate(724.556641 0)"/>
     <use xlink:href="#DejaVuSans-20" transform="translate(759.761719 0)"/>
     <use xlink:href="#DejaVuSans-73" transform="translate(791.548828 0)"/>
     <use xlink:href="#DejaVuSans-69" transform="translate(843.648438 0)"/>
     <use xlink:href="#DejaVuSans-6d" transform="translate(871.431641 0)"/>
     <use xlink:href="#DejaVuSans-69" transform="translate(968.84375 0)"/>
     <use xlink:href="#DejaVuSans-6c" transform="translate(996.626953 0)"/>
     <use xlink:href="#DejaVuSans-61" transform="translate(1024.410156 0)"/>
     <use xlink:href="#DejaVuSans-72" transform="translate(1085.689453 0)"/>
     <use xlink:href="#DejaVuSans-20" transform="translate(1126.802734 0)"/>
     <use xlink:href="#DejaVuSans-6c" transform="translate(1158.589844 0)"/>
     <use xlink:href="#DejaVuSans-69" transform="translate(1186.373047 0)"/>
     <use xlink:href="#DejaVuSans-6e" transform="translate(1214.15625 0)"/>
     <use xlink:href="#DejaVuSans-65" transform="translate(1277.535156 0)"/>
     <use xlink:href="#DejaVuSans-73" transform="translate(1339.058594 0)"/>
     <use xlink:href="#DejaVuSans-20" transform="translate(1391.158203 0)"/>
     <use xlink:href="#DejaVuSans-70" transform="translate(1422.945312 0)"/>
     <use xlink:href="#DejaVuSans-6c" transform="translate(1486.421875 0)"/>
     <use xlink:href="#DejaVuSans-6f" transform="translate(1514.205078 0)"/>
     <use xlink:href="#DejaVuSans-74" transform="translate(1575.386719 0)"/>
     <use xlink:href="#DejaVuSans-74" transform="translate(1614.595703 0)"/>
     <use xlink:href="#DejaVuSans-65" transform="translate(1653.804688 0)"/>
     <use xlink:href="#DejaVuSans-64" transform="translate(1715.328125 0)"/>
     <use xlink:href="#DejaVuSans-20" transform="translate(1778.804688 0)"/>
     <use xlink:href="#DejaVuSans-74" transform="translate(1810.591797 0)"/>
     <use xlink:href="#DejaVuSans-6f" transform="translate(1849.800781 0)"/>
     <use xlink:href="#DejaVuSans-67" transform="translate(1910.982422 0)"/>
     <use xlink:href="#DejaVuSans-65" transform="translate(1974.458984 0)"/>
     <use xlink:href="#DejaVuSans-74" transform="translate(2035.982422 0)"/>
     <use xlink:href="#DejaVuSans-68" transform="translate(2075.191406 0)"/>
     <use xlink:href="#DejaVuSans-65" transform="translate(2138.570312 0)"/>
     <use xlink:href="#DejaVuSans-72" transform="translate(2200.09375 0)"/>
    </g>
   </g>
  </g>
 </g>
 <defs>
  <clipPath id="p6af816f924">
   <rect x="28.942187" y="22.318125" width="433.057333" height="307.80327"/>
  </clipPath>
 </defs>
</svg>
