<?xml version="1.0" encoding="utf-8" standalone="no"?>
<!DOCTYPE svg PUBLIC "-//W3C//DTD SVG 1.1//EN"
  "http://www.w3.org/Graphics/SVG/1.1/DTD/svg11.dtd">
<svg xmlns:xlink="http://www.w3.org/1999/xlink" width="469.19952pt" height="353.99952pt" viewBox="0 0 469.19952 353.99952" xmlns="http://www.w3.org/2000/svg" version="1.1">
 <metadata>
  <rdf:RDF xmlns:dc="http://purl.org/dc/elements/1.1/" xmlns:cc="http://creativecommons.org/ns#" xmlns:rdf="http://www.w3.org/1999/02/22-rdf-syntax-ns#">
   <cc:Work>
    <dc:type rdf:resource="http://purl.org/dc/dcmitype/StillImage"/>
    <dc:date>2025-12-27T13:09:15.723303</dc:date>
    <dc:format>image/svg+xml</dc:format>
    <dc:creator>
     <cc:Agent>
      <dc:title>made/written by /home/con/Scripts/python/matplotlib/MatPlotLib-Simple/t/01.all.tests.t called using "plt" in /home/con/perl5/perlbrew/perls/perl-5.42.0/lib/site_perl/5.42.0/x86_64-linux/Matplotlib/Simple.pm</dc:title>
     </cc:Agent>
    </dc:creator>
   </cc:Work>
  </rdf:RDF>
 </metadata>
 <defs>
  <style type="text/css">*{stroke-linejoin: round; stroke-linecap: butt}</style>
 </defs>
 <g id="figure_1">
  <g id="patch_1">
   <path d="M 0 353.99952 
L 469.19952 353.99952 
L 469.19952 0 
L 0 0 
z
" style="fill: #ffffff"/>
  </g>
  <g id="axes_1">
   <g id="patch_2">
    <path d="M 28.942187 330.121395 
L 461.99952 330.121395 
L 461.99952 39.932355 
L 28.942187 39.932355 
z
" style="fill: #ffffff"/>
   </g>
   <g id="FillBetweenPolyCollection_1">
    <defs>
     <path id="m219981e675" d="M 442.315096 -290.31021 
L 442.315096 -285.724382 
L 438.378211 -284.13962 
L 434.441326 -291.31737 
L 430.504441 -290.847619 
L 426.567556 -282.03974 
L 422.630672 -282.342403 
L 418.693787 -285.731337 
L 414.756902 -280.545055 
L 410.820017 -278.944673 
L 406.883132 -287.559623 
L 402.946247 -280.381623 
L 399.009363 -288.894591 
L 395.072478 -289.437918 
L 391.135593 -281.966045 
L 387.198708 -287.579771 
L 383.261823 -287.090914 
L 379.324938 -279.342078 
L 375.388054 -281.944202 
L 371.451169 -277.738194 
L 367.514284 -280.168211 
L 363.577399 -285.634135 
L 359.640514 -279.600125 
L 355.703629 -273.160668 
L 351.766744 -277.001851 
L 347.82986 -281.107994 
L 343.892975 -276.889035 
L 339.95609 -275.45545 
L 336.019205 -278.391258 
L 332.08232 -281.052668 
L 328.145435 -281.362149 
L 324.208551 -281.35642 
L 320.271666 -276.960666 
L 316.334781 -272.019101 
L 312.397896 -269.955853 
L 308.461011 -271.914354 
L 304.524126 -273.479563 
L 300.587242 -277.620569 
L 296.650357 -273.5161 
L 292.713472 -273.837087 
L 288.776587 -270.246713 
L 284.839702 -271.341995 
L 280.902817 -270.791595 
L 276.965932 -266.711542 
L 273.029048 -271.649049 
L 269.092163 -272.893463 
L 265.155278 -265.326648 
L 261.218393 -270.589814 
L 257.281508 -269.858431 
L 253.344623 -267.31974 
L 249.407739 -268.831571 
L 245.470854 -267.394422 
L 241.533969 -265.028741 
L 237.597084 -265.917602 
L 233.660199 -258.421903 
L 229.723314 -256.992106 
L 225.78643 -258.776251 
L 221.849545 -261.326758 
L 217.91266 -256.581848 
L 213.975775 -260.516215 
L 210.03889 -260.454791 
L 206.102005 -257.53422 
L 202.165121 -254.409902 
L 198.228236 -254.580961 
L 194.291351 -255.625852 
L 190.354466 -253.474087 
L 186.417581 -251.077932 
L 182.480696 -247.397178 
L 178.543811 -240.484759 
L 174.606927 -240.591416 
L 170.670042 -240.652847 
L 166.733157 -239.211467 
L 162.796272 -234.131632 
L 158.859387 -234.862236 
L 154.922502 -237.363431 
L 150.985618 -237.506156 
L 147.048733 -228.988941 
L 143.111848 -229.534327 
L 139.174963 -230.747846 
L 135.238078 -222.471577 
L 131.301193 -225.984821 
L 127.364309 -222.839705 
L 123.427424 -218.458098 
L 119.490539 -214.720675 
L 115.553654 -206.967017 
L 111.616769 -199.405114 
L 107.679884 -199.679741 
L 103.742999 -195.846038 
L 99.806115 -183.076456 
L 95.86923 -178.797622 
L 91.932345 -181.246457 
L 87.99546 -165.295328 
L 84.058575 -169.461839 
L 80.12169 -152.35997 
L 76.184806 -140.207653 
L 72.247921 -134.896624 
L 68.311036 -125.300231 
L 64.374151 -106.03769 
L 60.437266 -98.817736 
L 56.500381 -89.812879 
L 52.563497 -60.439868 
L 48.626612 -39.463597 
L 48.626612 -53.96265 
L 48.626612 -53.96265 
L 52.563497 -70.054143 
L 56.500381 -93.017337 
L 60.437266 -107.695404 
L 64.374151 -117.279678 
L 68.311036 -138.368809 
L 72.247921 -151.098721 
L 76.184806 -150.280579 
L 80.12169 -165.801143 
L 84.058575 -173.126202 
L 87.99546 -174.386639 
L 91.932345 -187.944007 
L 95.86923 -190.34751 
L 99.806115 -199.42147 
L 103.742999 -205.127637 
L 107.679884 -212.794192 
L 111.616769 -211.297199 
L 115.553654 -218.229721 
L 119.490539 -222.773743 
L 123.427424 -223.159716 
L 127.364309 -230.719454 
L 131.301193 -236.242503 
L 135.238078 -231.58784 
L 139.174963 -236.266314 
L 143.111848 -236.998302 
L 147.048733 -233.561215 
L 150.985618 -243.4855 
L 154.922502 -245.110402 
L 158.859387 -246.739356 
L 162.796272 -247.125476 
L 166.733157 -246.112753 
L 170.670042 -251.025326 
L 174.606927 -255.737642 
L 178.543811 -255.077839 
L 182.480696 -251.833286 
L 186.417581 -253.08388 
L 190.354466 -261.055769 
L 194.291351 -262.760361 
L 198.228236 -263.890299 
L 202.165121 -263.449371 
L 206.102005 -266.472566 
L 210.03889 -267.601866 
L 213.975775 -263.224744 
L 217.91266 -261.925571 
L 221.849545 -263.378891 
L 225.78643 -270.274852 
L 229.723314 -267.044926 
L 233.660199 -264.817892 
L 237.597084 -267.680062 
L 241.533969 -275.884342 
L 245.470854 -272.288152 
L 249.407739 -273.235883 
L 253.344623 -278.029594 
L 257.281508 -274.025572 
L 261.218393 -271.469222 
L 265.155278 -277.587716 
L 269.092163 -275.839067 
L 273.029048 -274.799488 
L 276.965932 -274.687662 
L 280.902817 -277.901667 
L 284.839702 -278.945474 
L 288.776587 -283.737446 
L 292.713472 -277.077729 
L 296.650357 -276.344198 
L 300.587242 -278.635001 
L 304.524126 -282.96685 
L 308.461011 -283.037632 
L 312.397896 -278.872977 
L 316.334781 -283.33921 
L 320.271666 -282.790015 
L 324.208551 -287.985327 
L 328.145435 -285.19608 
L 332.08232 -285.301376 
L 336.019205 -283.852186 
L 339.95609 -281.244649 
L 343.892975 -284.335934 
L 347.82986 -284.496484 
L 351.766744 -285.885117 
L 355.703629 -282.05555 
L 359.640514 -285.025959 
L 363.577399 -290.31021 
L 367.514284 -290.31021 
L 371.451169 -284.446823 
L 375.388054 -289.35687 
L 379.324938 -289.97526 
L 383.261823 -290.31021 
L 387.198708 -290.31021 
L 391.135593 -286.164145 
L 395.072478 -290.31021 
L 399.009363 -290.31021 
L 402.946247 -290.31021 
L 406.883132 -290.31021 
L 410.820017 -290.31021 
L 414.756902 -290.31021 
L 418.693787 -289.187508 
L 422.630672 -290.31021 
L 426.567556 -289.270052 
L 430.504441 -290.31021 
L 434.441326 -290.31021 
L 438.378211 -290.31021 
L 442.315096 -290.31021 
z
" style="stroke: #ff0000; stroke-opacity: 0.3"/>
    </defs>
    <g clip-path="url(#p53083bbd2e)">
     <use xlink:href="#m219981e675" x="0" y="353.99952" style="fill: #ff0000; fill-opacity: 0.3; stroke: #ff0000; stroke-opacity: 0.3"/>
    </g>
   </g>
   <g id="matplotlib.axis_1">
    <g id="xtick_1">
     <g id="line2d_1">
      <defs>
       <path id="m4faf0cf927" d="M 0 0 
L 0 3.5 
" style="stroke: #000000; stroke-width: 0.8"/>
      </defs>
      <g>
       <use xlink:href="#m4faf0cf927" x="92.369777" y="330.121395" style="stroke: #000000; stroke-width: 0.8"/>
      </g>
     </g>
     <g id="text_1">
      <!-- 0.2 -->
      <g transform="translate(84.418214 344.719832) scale(0.1 -0.1)">
       <defs>
        <path id="DejaVuSans-30" d="M 2034 4250 
Q 1547 4250 1301 3770 
Q 1056 3291 1056 2328 
Q 1056 1369 1301 889 
Q 1547 409 2034 409 
Q 2525 409 2770 889 
Q 3016 1369 3016 2328 
Q 3016 3291 2770 3770 
Q 2525 4250 2034 4250 
z
M 2034 4750 
Q 2819 4750 3233 4129 
Q 3647 3509 3647 2328 
Q 3647 1150 3233 529 
Q 2819 -91 2034 -91 
Q 1250 -91 836 529 
Q 422 1150 422 2328 
Q 422 3509 836 4129 
Q 1250 4750 2034 4750 
z
" transform="scale(0.015625)"/>
        <path id="DejaVuSans-2e" d="M 684 794 
L 1344 794 
L 1344 0 
L 684 0 
L 684 794 
z
" transform="scale(0.015625)"/>
        <path id="DejaVuSans-32" d="M 1228 531 
L 3431 531 
L 3431 0 
L 469 0 
L 469 531 
Q 828 903 1448 1529 
Q 2069 2156 2228 2338 
Q 2531 2678 2651 2914 
Q 2772 3150 2772 3378 
Q 2772 3750 2511 3984 
Q 2250 4219 1831 4219 
Q 1534 4219 1204 4116 
Q 875 4013 500 3803 
L 500 4441 
Q 881 4594 1212 4672 
Q 1544 4750 1819 4750 
Q 2544 4750 2975 4387 
Q 3406 4025 3406 3419 
Q 3406 3131 3298 2873 
Q 3191 2616 2906 2266 
Q 2828 2175 2409 1742 
Q 1991 1309 1228 531 
z
" transform="scale(0.015625)"/>
       </defs>
       <use xlink:href="#DejaVuSans-30"/>
       <use xlink:href="#DejaVuSans-2e" transform="translate(63.623047 0)"/>
       <use xlink:href="#DejaVuSans-32" transform="translate(95.410156 0)"/>
      </g>
     </g>
    </g>
    <g id="xtick_2">
     <g id="line2d_2">
      <g>
       <use xlink:href="#m4faf0cf927" x="179.856106" y="330.121395" style="stroke: #000000; stroke-width: 0.8"/>
      </g>
     </g>
     <g id="text_2">
      <!-- 0.4 -->
      <g transform="translate(171.904544 344.719832) scale(0.1 -0.1)">
       <defs>
        <path id="DejaVuSans-34" d="M 2419 4116 
L 825 1625 
L 2419 1625 
L 2419 4116 
z
M 2253 4666 
L 3047 4666 
L 3047 1625 
L 3713 1625 
L 3713 1100 
L 3047 1100 
L 3047 0 
L 2419 0 
L 2419 1100 
L 313 1100 
L 313 1709 
L 2253 4666 
z
" transform="scale(0.015625)"/>
       </defs>
       <use xlink:href="#DejaVuSans-30"/>
       <use xlink:href="#DejaVuSans-2e" transform="translate(63.623047 0)"/>
       <use xlink:href="#DejaVuSans-34" transform="translate(95.410156 0)"/>
      </g>
     </g>
    </g>
    <g id="xtick_3">
     <g id="line2d_3">
      <g>
       <use xlink:href="#m4faf0cf927" x="267.342436" y="330.121395" style="stroke: #000000; stroke-width: 0.8"/>
      </g>
     </g>
     <g id="text_3">
      <!-- 0.6 -->
      <g transform="translate(259.390874 344.719832) scale(0.1 -0.1)">
       <defs>
        <path id="DejaVuSans-36" d="M 2113 2584 
Q 1688 2584 1439 2293 
Q 1191 2003 1191 1497 
Q 1191 994 1439 701 
Q 1688 409 2113 409 
Q 2538 409 2786 701 
Q 3034 994 3034 1497 
Q 3034 2003 2786 2293 
Q 2538 2584 2113 2584 
z
M 3366 4563 
L 3366 3988 
Q 3128 4100 2886 4159 
Q 2644 4219 2406 4219 
Q 1781 4219 1451 3797 
Q 1122 3375 1075 2522 
Q 1259 2794 1537 2939 
Q 1816 3084 2150 3084 
Q 2853 3084 3261 2657 
Q 3669 2231 3669 1497 
Q 3669 778 3244 343 
Q 2819 -91 2113 -91 
Q 1303 -91 875 529 
Q 447 1150 447 2328 
Q 447 3434 972 4092 
Q 1497 4750 2381 4750 
Q 2619 4750 2861 4703 
Q 3103 4656 3366 4563 
z
" transform="scale(0.015625)"/>
       </defs>
       <use xlink:href="#DejaVuSans-30"/>
       <use xlink:href="#DejaVuSans-2e" transform="translate(63.623047 0)"/>
       <use xlink:href="#DejaVuSans-36" transform="translate(95.410156 0)"/>
      </g>
     </g>
    </g>
    <g id="xtick_4">
     <g id="line2d_4">
      <g>
       <use xlink:href="#m4faf0cf927" x="354.828766" y="330.121395" style="stroke: #000000; stroke-width: 0.8"/>
      </g>
     </g>
     <g id="text_4">
      <!-- 0.8 -->
      <g transform="translate(346.877203 344.719832) scale(0.1 -0.1)">
       <defs>
        <path id="DejaVuSans-38" d="M 2034 2216 
Q 1584 2216 1326 1975 
Q 1069 1734 1069 1313 
Q 1069 891 1326 650 
Q 1584 409 2034 409 
Q 2484 409 2743 651 
Q 3003 894 3003 1313 
Q 3003 1734 2745 1975 
Q 2488 2216 2034 2216 
z
M 1403 2484 
Q 997 2584 770 2862 
Q 544 3141 544 3541 
Q 544 4100 942 4425 
Q 1341 4750 2034 4750 
Q 2731 4750 3128 4425 
Q 3525 4100 3525 3541 
Q 3525 3141 3298 2862 
Q 3072 2584 2669 2484 
Q 3125 2378 3379 2068 
Q 3634 1759 3634 1313 
Q 3634 634 3220 271 
Q 2806 -91 2034 -91 
Q 1263 -91 848 271 
Q 434 634 434 1313 
Q 434 1759 690 2068 
Q 947 2378 1403 2484 
z
M 1172 3481 
Q 1172 3119 1398 2916 
Q 1625 2713 2034 2713 
Q 2441 2713 2670 2916 
Q 2900 3119 2900 3481 
Q 2900 3844 2670 4047 
Q 2441 4250 2034 4250 
Q 1625 4250 1398 4047 
Q 1172 3844 1172 3481 
z
" transform="scale(0.015625)"/>
       </defs>
       <use xlink:href="#DejaVuSans-30"/>
       <use xlink:href="#DejaVuSans-2e" transform="translate(63.623047 0)"/>
       <use xlink:href="#DejaVuSans-38" transform="translate(95.410156 0)"/>
      </g>
     </g>
    </g>
    <g id="xtick_5">
     <g id="line2d_5">
      <g>
       <use xlink:href="#m4faf0cf927" x="442.315096" y="330.121395" style="stroke: #000000; stroke-width: 0.8"/>
      </g>
     </g>
     <g id="text_5">
      <!-- 1.0 -->
      <g transform="translate(434.363533 344.719832) scale(0.1 -0.1)">
       <defs>
        <path id="DejaVuSans-31" d="M 794 531 
L 1825 531 
L 1825 4091 
L 703 3866 
L 703 4441 
L 1819 4666 
L 2450 4666 
L 2450 531 
L 3481 531 
L 3481 0 
L 794 0 
L 794 531 
z
" transform="scale(0.015625)"/>
       </defs>
       <use xlink:href="#DejaVuSans-31"/>
       <use xlink:href="#DejaVuSans-2e" transform="translate(63.623047 0)"/>
       <use xlink:href="#DejaVuSans-30" transform="translate(95.410156 0)"/>
      </g>
     </g>
    </g>
   </g>
   <g id="matplotlib.axis_2">
    <g id="ytick_1">
     <g id="line2d_6">
      <defs>
       <path id="mc5d600a4a7" d="M 0 0 
L -3.5 0 
" style="stroke: #000000; stroke-width: 0.8"/>
      </defs>
      <g>
       <use xlink:href="#mc5d600a4a7" x="28.942187" y="305.47573" style="stroke: #000000; stroke-width: 0.8"/>
      </g>
     </g>
     <g id="text_6">
      <!-- −8 -->
      <g transform="translate(7.2 309.274949) scale(0.1 -0.1)">
       <defs>
        <path id="DejaVuSans-2212" d="M 678 2272 
L 4684 2272 
L 4684 1741 
L 678 1741 
L 678 2272 
z
" transform="scale(0.015625)"/>
       </defs>
       <use xlink:href="#DejaVuSans-2212"/>
       <use xlink:href="#DejaVuSans-38" transform="translate(83.789062 0)"/>
      </g>
     </g>
    </g>
    <g id="ytick_2">
     <g id="line2d_7">
      <g>
       <use xlink:href="#mc5d600a4a7" x="28.942187" y="251.745414" style="stroke: #000000; stroke-width: 0.8"/>
      </g>
     </g>
     <g id="text_7">
      <!-- −6 -->
      <g transform="translate(7.2 255.544633) scale(0.1 -0.1)">
       <use xlink:href="#DejaVuSans-2212"/>
       <use xlink:href="#DejaVuSans-36" transform="translate(83.789062 0)"/>
      </g>
     </g>
    </g>
    <g id="ytick_3">
     <g id="line2d_8">
      <g>
       <use xlink:href="#mc5d600a4a7" x="28.942187" y="198.015099" style="stroke: #000000; stroke-width: 0.8"/>
      </g>
     </g>
     <g id="text_8">
      <!-- −4 -->
      <g transform="translate(7.2 201.814317) scale(0.1 -0.1)">
       <use xlink:href="#DejaVuSans-2212"/>
       <use xlink:href="#DejaVuSans-34" transform="translate(83.789062 0)"/>
      </g>
     </g>
    </g>
    <g id="ytick_4">
     <g id="line2d_9">
      <g>
       <use xlink:href="#mc5d600a4a7" x="28.942187" y="144.284783" style="stroke: #000000; stroke-width: 0.8"/>
      </g>
     </g>
     <g id="text_9">
      <!-- −2 -->
      <g transform="translate(7.2 148.084002) scale(0.1 -0.1)">
       <use xlink:href="#DejaVuSans-2212"/>
       <use xlink:href="#DejaVuSans-32" transform="translate(83.789062 0)"/>
      </g>
     </g>
    </g>
    <g id="ytick_5">
     <g id="line2d_10">
      <g>
       <use xlink:href="#mc5d600a4a7" x="28.942187" y="90.554467" style="stroke: #000000; stroke-width: 0.8"/>
      </g>
     </g>
     <g id="text_10">
      <!-- 0 -->
      <g transform="translate(15.579687 94.353686) scale(0.1 -0.1)">
       <use xlink:href="#DejaVuSans-30"/>
      </g>
     </g>
    </g>
   </g>
   <g id="line2d_11">
    <path d="M 48.626612 305.47573 
L 52.603263 283.088099 
L 56.579914 264.144718 
L 60.556566 247.907535 
L 64.533217 233.835309 
L 68.509868 221.522112 
L 72.48652 210.657526 
L 76.463171 201.000116 
L 80.439823 192.359276 
L 84.416474 184.58252 
L 88.393125 177.546407 
L 92.369777 171.149941 
L 96.346428 165.309689 
L 100.323079 159.956125 
L 104.299731 155.030846 
L 108.276382 150.484435 
L 112.253033 146.274795 
L 116.229685 142.365843 
L 120.206336 138.726475 
L 124.182987 135.32973 
L 128.159639 132.152131 
L 132.13629 129.173132 
L 136.112942 126.374678 
L 140.089593 123.740839 
L 144.066244 121.257505 
L 148.042896 118.912134 
L 152.019547 116.69354 
L 155.996198 114.591714 
L 159.97285 112.597674 
L 163.949501 110.703336 
L 167.926152 108.901404 
L 171.902804 107.185279 
L 175.879455 105.548974 
L 179.856106 103.987046 
L 183.832758 102.494538 
L 187.809409 101.06692 
L 191.78606 99.700053 
L 195.762712 98.390138 
L 199.739363 97.13369 
L 203.716015 95.927499 
L 207.692666 94.76861 
L 211.669317 93.654293 
L 215.645969 92.582027 
L 219.62262 91.549473 
L 223.599271 90.554467 
L 227.575923 89.594998 
L 231.552574 88.669193 
L 235.529225 87.775313 
L 239.505877 86.911734 
L 243.482528 86.076941 
L 247.459179 85.269518 
L 251.435831 84.488141 
L 255.412482 83.73157 
L 259.389133 82.998642 
L 263.365785 82.288265 
L 267.342436 81.599415 
L 271.319088 80.931127 
L 275.295739 80.282495 
L 279.27239 79.652664 
L 283.249042 79.040828 
L 287.225693 78.446227 
L 291.202344 77.868143 
L 295.178996 77.305896 
L 299.155647 76.758846 
L 303.132298 76.226383 
L 307.10895 75.707933 
L 311.085601 75.202949 
L 315.062252 74.710913 
L 319.038904 74.231334 
L 323.015555 73.763744 
L 326.992207 73.307699 
L 330.968858 72.862778 
L 334.945509 72.428578 
L 338.922161 72.004716 
L 342.898812 71.590827 
L 346.875463 71.186563 
L 350.852115 70.791593 
L 354.828766 70.405599 
L 358.805417 70.028279 
L 362.782069 69.659345 
L 366.75872 69.298518 
L 370.735371 68.945536 
L 374.712023 68.600145 
L 378.688674 68.262102 
L 382.665325 67.931177 
L 386.641977 67.607145 
L 390.618628 67.289795 
L 394.59528 66.978921 
L 398.571931 66.674327 
L 402.548582 66.375825 
L 406.525234 66.083235 
L 410.501885 65.796381 
L 414.478536 65.515097 
L 418.455188 65.239223 
L 422.431839 64.968603 
L 426.40849 64.703089 
L 430.385142 64.442538 
L 434.361793 64.186813 
L 438.338444 63.935779 
L 442.315096 63.68931 
" clip-path="url(#p53083bbd2e)" style="fill: none; stroke: #ff0000; stroke-opacity: 0.15; stroke-width: 1.5; stroke-linecap: square"/>
   </g>
   <g id="line2d_12">
    <path d="M 48.626612 316.930984 
L 52.603263 287.649639 
L 56.579914 260.047695 
L 60.556566 246.467984 
L 64.533217 246.598898 
L 68.509868 229.317338 
L 72.48652 220.220396 
L 76.463171 212.429296 
L 80.439823 203.183933 
L 84.416474 179.006755 
L 88.393125 185.576221 
L 92.369777 162.085351 
L 96.346428 165.068958 
L 100.323079 152.2965 
L 104.299731 146.203193 
L 108.276382 137.246822 
L 112.253033 143.341518 
L 116.229685 131.88841 
L 120.206336 137.614107 
L 124.182987 132.376171 
L 128.159639 122.219338 
L 132.13629 121.095115 
L 136.112942 121.456542 
L 140.089593 118.387746 
L 144.066244 126.61391 
L 148.042896 123.330957 
L 152.019547 109.753402 
L 155.996198 106.390364 
L 159.97285 105.774521 
L 163.949501 107.060244 
L 167.926152 120.087707 
L 171.902804 112.311648 
L 175.879455 116.248987 
L 179.856106 115.710341 
L 183.832758 103.291642 
L 187.809409 103.280782 
L 191.78606 95.895243 
L 195.762712 86.837383 
L 199.739363 89.035707 
L 203.716015 106.715849 
L 207.692666 87.322502 
L 211.669317 92.557804 
L 215.645969 88.51819 
L 219.62262 97.924771 
L 223.599271 85.295352 
L 227.575923 79.617331 
L 231.552574 94.766862 
L 235.529225 91.404941 
L 239.505877 85.264086 
L 243.482528 91.042629 
L 247.459179 81.147462 
L 251.435831 87.230874 
L 255.412482 84.704914 
L 259.389133 72.812407 
L 263.365785 94.19081 
L 267.342436 85.581896 
L 271.319088 72.606497 
L 275.295739 87.266905 
L 279.27239 72.271116 
L 283.249042 79.975343 
L 287.225693 65.602604 
L 291.202344 72.279308 
L 295.178996 85.113688 
L 299.155647 72.292283 
L 303.132298 80.846318 
L 307.10895 82.562841 
L 311.085601 86.127678 
L 315.062252 84.657999 
L 319.038904 82.488418 
L 323.015555 67.082751 
L 326.992207 72.802767 
L 330.968858 64.797141 
L 334.945509 75.739798 
L 338.922161 78.436587 
L 342.898812 69.483016 
L 346.875463 71.877709 
L 350.852115 77.899925 
L 354.828766 81.293167 
L 358.805417 79.308004 
L 362.782069 61.257979 
L 366.75872 73.203624 
L 370.735371 80.018439 
L 374.712023 63.776017 
L 378.688674 63.422531 
L 382.665325 63.715538 
L 386.641977 60.45684 
L 390.618628 72.547435 
L 394.59528 54.341197 
L 398.571931 58.410682 
L 402.548582 60.79869 
L 406.525234 60.880419 
L 410.501885 63.760387 
L 414.478536 59.818046 
L 418.455188 69.755105 
L 422.431839 56.860707 
L 426.40849 73.890966 
L 430.385142 58.347352 
L 434.361793 56.716022 
L 438.338444 71.568932 
L 442.315096 59.214576 
" clip-path="url(#p53083bbd2e)" style="fill: none; stroke: #ff0000; stroke-opacity: 0.15; stroke-width: 1.5; stroke-linecap: square"/>
   </g>
   <g id="line2d_13">
    <path d="M 48.626612 299.452475 
L 52.603263 294.958174 
L 56.579914 261.970156 
L 60.556566 256.803834 
L 64.533217 245.581765 
L 68.509868 212.522866 
L 72.48652 200.189954 
L 76.463171 212.475384 
L 80.439823 185.635603 
L 84.416474 181.257324 
L 88.393125 190.200649 
L 92.369777 169.402127 
L 96.346428 178.671777 
L 100.323079 172.891187 
L 104.299731 155.298419 
L 108.276382 153.219086 
L 112.253033 157.280159 
L 116.229685 145.301232 
L 120.206336 126.3874 
L 124.182987 131.125608 
L 128.159639 122.995431 
L 132.13629 116.07419 
L 136.112942 137.186854 
L 140.089593 112.31708 
L 144.066244 116.776818 
L 148.042896 127.105267 
L 152.019547 103.932116 
L 155.996198 120.230889 
L 159.97285 120.595224 
L 163.949501 122.817191 
L 167.926152 102.20803 
L 171.902804 101.967111 
L 175.879455 93.84392 
L 179.856106 100.441182 
L 183.832758 103.767988 
L 187.809409 99.362887 
L 191.78606 87.010896 
L 195.762712 100.256527 
L 199.739363 97.391462 
L 203.716015 83.620446 
L 207.692666 87.046992 
L 211.669317 84.240363 
L 215.645969 99.584417 
L 219.62262 97.443367 
L 223.599271 89.679356 
L 227.575923 101.576357 
L 231.552574 96.897679 
L 235.529225 95.12543 
L 239.505877 77.699826 
L 243.482528 74.233115 
L 247.459179 87.179732 
L 251.435831 72.28722 
L 255.412482 75.503757 
L 259.389133 92.878794 
L 263.365785 72.689382 
L 267.342436 78.561716 
L 271.319088 76.652536 
L 275.295739 90.863073 
L 279.27239 86.220312 
L 283.249042 81.114689 
L 287.225693 87.173268 
L 291.202344 80.562397 
L 295.178996 81.22839 
L 299.155647 77.191815 
L 303.132298 72.98208 
L 307.10895 63.995891 
L 311.085601 82.418149 
L 315.062252 69.248163 
L 319.038904 72.972384 
L 323.015555 65.234036 
L 326.992207 66.321429 
L 330.968858 73.8386 
L 334.945509 66.790767 
L 338.922161 78.126176 
L 342.898812 81.266449 
L 346.875463 70.55928 
L 350.852115 64.79991 
L 354.828766 79.952145 
L 358.805417 71.056998 
L 362.782069 64.076689 
L 366.75872 57.779606 
L 370.735371 73.021664 
L 374.712023 71.472782 
L 378.688674 79.211421 
L 382.665325 61.289953 
L 386.641977 58.012966 
L 390.618628 75.059663 
L 394.59528 54.395091 
L 398.571931 56.651681 
L 402.548582 76.753699 
L 406.525234 64.322247 
L 410.501885 77.595366 
L 414.478536 76.371328 
L 418.455188 64.896449 
L 422.431839 73.553397 
L 426.40849 67.569546 
L 430.385142 55.130469 
L 434.361793 53.122766 
L 438.338444 60.695388 
L 442.315096 69.407223 
" clip-path="url(#p53083bbd2e)" style="fill: none; stroke: #ff0000; stroke-opacity: 0.15; stroke-width: 1.5; stroke-linecap: square"/>
   </g>
   <g id="line2d_14">
    <path d="M 442.315096 64.103703 
L 438.378211 65.38707 
L 434.441326 58.156364 
L 430.504441 59.267839 
L 426.567556 68.344624 
L 422.630672 65.30725 
L 418.693787 66.540097 
L 414.756902 67.192504 
L 410.820017 68.90544 
L 406.883132 64.237954 
L 402.946247 67.554661 
L 399.009363 61.392586 
L 395.072478 58.812595 
L 391.135593 69.934425 
L 387.198708 63.370581 
L 383.261823 63.969237 
L 379.324938 69.340851 
L 375.388054 68.348984 
L 371.451169 72.907011 
L 367.514284 68.135163 
L 363.577399 65.35052 
L 359.640514 71.686478 
L 355.703629 76.391411 
L 351.766744 72.556036 
L 347.82986 71.197281 
L 343.892975 73.387036 
L 339.95609 75.64947 
L 336.019205 72.877798 
L 332.08232 70.822498 
L 328.145435 70.720405 
L 324.208551 69.328647 
L 320.271666 74.124179 
L 316.334781 76.320365 
L 312.397896 79.585105 
L 308.461011 76.523527 
L 304.524126 75.776314 
L 300.587242 75.871735 
L 296.650357 79.069371 
L 292.713472 78.542112 
L 288.776587 77.007441 
L 284.839702 78.855785 
L 280.902817 79.652889 
L 276.965932 83.299918 
L 273.029048 80.775252 
L 269.092163 79.633255 
L 265.155278 82.542338 
L 261.218393 82.970002 
L 257.281508 82.057518 
L 253.344623 81.324853 
L 249.407739 82.965793 
L 245.470854 84.158233 
L 241.533969 83.542978 
L 237.597084 87.200688 
L 233.660199 92.379623 
L 229.723314 91.981004 
L 225.78643 89.473969 
L 221.849545 91.646696 
L 217.91266 94.74581 
L 213.975775 92.12904 
L 210.03889 89.971191 
L 206.102005 91.996127 
L 202.165121 95.069883 
L 198.228236 94.76389 
L 194.291351 94.806414 
L 190.354466 96.734592 
L 186.417581 101.918614 
L 182.480696 104.384288 
L 178.543811 106.218221 
L 174.606927 105.834991 
L 170.670042 108.160434 
L 166.733157 111.33741 
L 162.796272 113.370966 
L 158.859387 113.198724 
L 154.922502 112.762604 
L 150.985618 113.503692 
L 147.048733 122.724442 
L 143.111848 120.733205 
L 139.174963 120.49244 
L 135.238078 126.969812 
L 131.301193 122.885858 
L 127.364309 127.21994 
L 123.427424 133.190613 
L 119.490539 135.252311 
L 115.553654 141.401151 
L 111.616769 148.648364 
L 107.679884 147.762553 
L 103.742999 153.512683 
L 99.806115 162.750557 
L 95.86923 169.426954 
L 91.932345 169.404288 
L 87.99546 184.158536 
L 84.058575 182.705499 
L 80.12169 194.918963 
L 76.184806 208.755404 
L 72.247921 211.001848 
L 68.311036 222.165 
L 64.374151 242.340836 
L 60.437266 250.74295 
L 56.500381 262.584412 
L 52.563497 288.752515 
L 48.626612 307.286397 
" clip-path="url(#p53083bbd2e)" style="fill: none; stroke: #ff0000; stroke-width: 1.5; stroke-linecap: square"/>
   </g>
   <g id="patch_3">
    <path d="M 28.942187 330.121395 
L 28.942187 39.932355 
" style="fill: none; stroke: #000000; stroke-width: 0.8; stroke-linejoin: miter; stroke-linecap: square"/>
   </g>
   <g id="patch_4">
    <path d="M 461.99952 330.121395 
L 461.99952 39.932355 
" style="fill: none; stroke: #000000; stroke-width: 0.8; stroke-linejoin: miter; stroke-linecap: square"/>
   </g>
   <g id="patch_5">
    <path d="M 28.942187 330.121395 
L 461.99952 330.121395 
" style="fill: none; stroke: #000000; stroke-width: 0.8; stroke-linejoin: miter; stroke-linecap: square"/>
   </g>
   <g id="patch_6">
    <path d="M 28.942187 39.932355 
L 461.99952 39.932355 
" style="fill: none; stroke: #000000; stroke-width: 0.8; stroke-linejoin: miter; stroke-linecap: square"/>
   </g>
   <g id="text_11">
    <!-- Visualization of similar lines plotted together -->
    <g transform="translate(111.001479 33.932355) scale(0.12 -0.12)">
     <defs>
      <path id="DejaVuSans-56" d="M 1831 0 
L 50 4666 
L 709 4666 
L 2188 738 
L 3669 4666 
L 4325 4666 
L 2547 0 
L 1831 0 
z
" transform="scale(0.015625)"/>
      <path id="DejaVuSans-69" d="M 603 3500 
L 1178 3500 
L 1178 0 
L 603 0 
L 603 3500 
z
M 603 4863 
L 1178 4863 
L 1178 4134 
L 603 4134 
L 603 4863 
z
" transform="scale(0.015625)"/>
      <path id="DejaVuSans-73" d="M 2834 3397 
L 2834 2853 
Q 2591 2978 2328 3040 
Q 2066 3103 1784 3103 
Q 1356 3103 1142 2972 
Q 928 2841 928 2578 
Q 928 2378 1081 2264 
Q 1234 2150 1697 2047 
L 1894 2003 
Q 2506 1872 2764 1633 
Q 3022 1394 3022 966 
Q 3022 478 2636 193 
Q 2250 -91 1575 -91 
Q 1294 -91 989 -36 
Q 684 19 347 128 
L 347 722 
Q 666 556 975 473 
Q 1284 391 1588 391 
Q 1994 391 2212 530 
Q 2431 669 2431 922 
Q 2431 1156 2273 1281 
Q 2116 1406 1581 1522 
L 1381 1569 
Q 847 1681 609 1914 
Q 372 2147 372 2553 
Q 372 3047 722 3315 
Q 1072 3584 1716 3584 
Q 2034 3584 2315 3537 
Q 2597 3491 2834 3397 
z
" transform="scale(0.015625)"/>
      <path id="DejaVuSans-75" d="M 544 1381 
L 544 3500 
L 1119 3500 
L 1119 1403 
Q 1119 906 1312 657 
Q 1506 409 1894 409 
Q 2359 409 2629 706 
Q 2900 1003 2900 1516 
L 2900 3500 
L 3475 3500 
L 3475 0 
L 2900 0 
L 2900 538 
Q 2691 219 2414 64 
Q 2138 -91 1772 -91 
Q 1169 -91 856 284 
Q 544 659 544 1381 
z
M 1991 3584 
L 1991 3584 
z
" transform="scale(0.015625)"/>
      <path id="DejaVuSans-61" d="M 2194 1759 
Q 1497 1759 1228 1600 
Q 959 1441 959 1056 
Q 959 750 1161 570 
Q 1363 391 1709 391 
Q 2188 391 2477 730 
Q 2766 1069 2766 1631 
L 2766 1759 
L 2194 1759 
z
M 3341 1997 
L 3341 0 
L 2766 0 
L 2766 531 
Q 2569 213 2275 61 
Q 1981 -91 1556 -91 
Q 1019 -91 701 211 
Q 384 513 384 1019 
Q 384 1609 779 1909 
Q 1175 2209 1959 2209 
L 2766 2209 
L 2766 2266 
Q 2766 2663 2505 2880 
Q 2244 3097 1772 3097 
Q 1472 3097 1187 3025 
Q 903 2953 641 2809 
L 641 3341 
Q 956 3463 1253 3523 
Q 1550 3584 1831 3584 
Q 2591 3584 2966 3190 
Q 3341 2797 3341 1997 
z
" transform="scale(0.015625)"/>
      <path id="DejaVuSans-6c" d="M 603 4863 
L 1178 4863 
L 1178 0 
L 603 0 
L 603 4863 
z
" transform="scale(0.015625)"/>
      <path id="DejaVuSans-7a" d="M 353 3500 
L 3084 3500 
L 3084 2975 
L 922 459 
L 3084 459 
L 3084 0 
L 275 0 
L 275 525 
L 2438 3041 
L 353 3041 
L 353 3500 
z
" transform="scale(0.015625)"/>
      <path id="DejaVuSans-74" d="M 1172 4494 
L 1172 3500 
L 2356 3500 
L 2356 3053 
L 1172 3053 
L 1172 1153 
Q 1172 725 1289 603 
Q 1406 481 1766 481 
L 2356 481 
L 2356 0 
L 1766 0 
Q 1100 0 847 248 
Q 594 497 594 1153 
L 594 3053 
L 172 3053 
L 172 3500 
L 594 3500 
L 594 4494 
L 1172 4494 
z
" transform="scale(0.015625)"/>
      <path id="DejaVuSans-6f" d="M 1959 3097 
Q 1497 3097 1228 2736 
Q 959 2375 959 1747 
Q 959 1119 1226 758 
Q 1494 397 1959 397 
Q 2419 397 2687 759 
Q 2956 1122 2956 1747 
Q 2956 2369 2687 2733 
Q 2419 3097 1959 3097 
z
M 1959 3584 
Q 2709 3584 3137 3096 
Q 3566 2609 3566 1747 
Q 3566 888 3137 398 
Q 2709 -91 1959 -91 
Q 1206 -91 779 398 
Q 353 888 353 1747 
Q 353 2609 779 3096 
Q 1206 3584 1959 3584 
z
" transform="scale(0.015625)"/>
      <path id="DejaVuSans-6e" d="M 3513 2113 
L 3513 0 
L 2938 0 
L 2938 2094 
Q 2938 2591 2744 2837 
Q 2550 3084 2163 3084 
Q 1697 3084 1428 2787 
Q 1159 2491 1159 1978 
L 1159 0 
L 581 0 
L 581 3500 
L 1159 3500 
L 1159 2956 
Q 1366 3272 1645 3428 
Q 1925 3584 2291 3584 
Q 2894 3584 3203 3211 
Q 3513 2838 3513 2113 
z
" transform="scale(0.015625)"/>
      <path id="DejaVuSans-20" transform="scale(0.015625)"/>
      <path id="DejaVuSans-66" d="M 2375 4863 
L 2375 4384 
L 1825 4384 
Q 1516 4384 1395 4259 
Q 1275 4134 1275 3809 
L 1275 3500 
L 2222 3500 
L 2222 3053 
L 1275 3053 
L 1275 0 
L 697 0 
L 697 3053 
L 147 3053 
L 147 3500 
L 697 3500 
L 697 3744 
Q 697 4328 969 4595 
Q 1241 4863 1831 4863 
L 2375 4863 
z
" transform="scale(0.015625)"/>
      <path id="DejaVuSans-6d" d="M 3328 2828 
Q 3544 3216 3844 3400 
Q 4144 3584 4550 3584 
Q 5097 3584 5394 3201 
Q 5691 2819 5691 2113 
L 5691 0 
L 5113 0 
L 5113 2094 
Q 5113 2597 4934 2840 
Q 4756 3084 4391 3084 
Q 3944 3084 3684 2787 
Q 3425 2491 3425 1978 
L 3425 0 
L 2847 0 
L 2847 2094 
Q 2847 2600 2669 2842 
Q 2491 3084 2119 3084 
Q 1678 3084 1418 2786 
Q 1159 2488 1159 1978 
L 1159 0 
L 581 0 
L 581 3500 
L 1159 3500 
L 1159 2956 
Q 1356 3278 1631 3431 
Q 1906 3584 2284 3584 
Q 2666 3584 2933 3390 
Q 3200 3197 3328 2828 
z
" transform="scale(0.015625)"/>
      <path id="DejaVuSans-72" d="M 2631 2963 
Q 2534 3019 2420 3045 
Q 2306 3072 2169 3072 
Q 1681 3072 1420 2755 
Q 1159 2438 1159 1844 
L 1159 0 
L 581 0 
L 581 3500 
L 1159 3500 
L 1159 2956 
Q 1341 3275 1631 3429 
Q 1922 3584 2338 3584 
Q 2397 3584 2469 3576 
Q 2541 3569 2628 3553 
L 2631 2963 
z
" transform="scale(0.015625)"/>
      <path id="DejaVuSans-65" d="M 3597 1894 
L 3597 1613 
L 953 1613 
Q 991 1019 1311 708 
Q 1631 397 2203 397 
Q 2534 397 2845 478 
Q 3156 559 3463 722 
L 3463 178 
Q 3153 47 2828 -22 
Q 2503 -91 2169 -91 
Q 1331 -91 842 396 
Q 353 884 353 1716 
Q 353 2575 817 3079 
Q 1281 3584 2069 3584 
Q 2775 3584 3186 3129 
Q 3597 2675 3597 1894 
z
M 3022 2063 
Q 3016 2534 2758 2815 
Q 2500 3097 2075 3097 
Q 1594 3097 1305 2825 
Q 1016 2553 972 2059 
L 3022 2063 
z
" transform="scale(0.015625)"/>
      <path id="DejaVuSans-70" d="M 1159 525 
L 1159 -1331 
L 581 -1331 
L 581 3500 
L 1159 3500 
L 1159 2969 
Q 1341 3281 1617 3432 
Q 1894 3584 2278 3584 
Q 2916 3584 3314 3078 
Q 3713 2572 3713 1747 
Q 3713 922 3314 415 
Q 2916 -91 2278 -91 
Q 1894 -91 1617 61 
Q 1341 213 1159 525 
z
M 3116 1747 
Q 3116 2381 2855 2742 
Q 2594 3103 2138 3103 
Q 1681 3103 1420 2742 
Q 1159 2381 1159 1747 
Q 1159 1113 1420 752 
Q 1681 391 2138 391 
Q 2594 391 2855 752 
Q 3116 1113 3116 1747 
z
" transform="scale(0.015625)"/>
      <path id="DejaVuSans-64" d="M 2906 2969 
L 2906 4863 
L 3481 4863 
L 3481 0 
L 2906 0 
L 2906 525 
Q 2725 213 2448 61 
Q 2172 -91 1784 -91 
Q 1150 -91 751 415 
Q 353 922 353 1747 
Q 353 2572 751 3078 
Q 1150 3584 1784 3584 
Q 2172 3584 2448 3432 
Q 2725 3281 2906 2969 
z
M 947 1747 
Q 947 1113 1208 752 
Q 1469 391 1925 391 
Q 2381 391 2643 752 
Q 2906 1113 2906 1747 
Q 2906 2381 2643 2742 
Q 2381 3103 1925 3103 
Q 1469 3103 1208 2742 
Q 947 2381 947 1747 
z
" transform="scale(0.015625)"/>
      <path id="DejaVuSans-67" d="M 2906 1791 
Q 2906 2416 2648 2759 
Q 2391 3103 1925 3103 
Q 1463 3103 1205 2759 
Q 947 2416 947 1791 
Q 947 1169 1205 825 
Q 1463 481 1925 481 
Q 2391 481 2648 825 
Q 2906 1169 2906 1791 
z
M 3481 434 
Q 3481 -459 3084 -895 
Q 2688 -1331 1869 -1331 
Q 1566 -1331 1297 -1286 
Q 1028 -1241 775 -1147 
L 775 -588 
Q 1028 -725 1275 -790 
Q 1522 -856 1778 -856 
Q 2344 -856 2625 -561 
Q 2906 -266 2906 331 
L 2906 616 
Q 2728 306 2450 153 
Q 2172 0 1784 0 
Q 1141 0 747 490 
Q 353 981 353 1791 
Q 353 2603 747 3093 
Q 1141 3584 1784 3584 
Q 2172 3584 2450 3431 
Q 2728 3278 2906 2969 
L 2906 3500 
L 3481 3500 
L 3481 434 
z
" transform="scale(0.015625)"/>
      <path id="DejaVuSans-68" d="M 3513 2113 
L 3513 0 
L 2938 0 
L 2938 2094 
Q 2938 2591 2744 2837 
Q 2550 3084 2163 3084 
Q 1697 3084 1428 2787 
Q 1159 2491 1159 1978 
L 1159 0 
L 581 0 
L 581 4863 
L 1159 4863 
L 1159 2956 
Q 1366 3272 1645 3428 
Q 1925 3584 2291 3584 
Q 2894 3584 3203 3211 
Q 3513 2838 3513 2113 
z
" transform="scale(0.015625)"/>
     </defs>
     <use xlink:href="#DejaVuSans-56"/>
     <use xlink:href="#DejaVuSans-69" transform="translate(66.158203 0)"/>
     <use xlink:href="#DejaVuSans-73" transform="translate(93.941406 0)"/>
     <use xlink:href="#DejaVuSans-75" transform="translate(146.041016 0)"/>
     <use xlink:href="#DejaVuSans-61" transform="translate(209.419922 0)"/>
     <use xlink:href="#DejaVuSans-6c" transform="translate(270.699219 0)"/>
     <use xlink:href="#DejaVuSans-69" transform="translate(298.482422 0)"/>
     <use xlink:href="#DejaVuSans-7a" transform="translate(326.265625 0)"/>
     <use xlink:href="#DejaVuSans-61" transform="translate(378.755859 0)"/>
     <use xlink:href="#DejaVuSans-74" transform="translate(440.035156 0)"/>
     <use xlink:href="#DejaVuSans-69" transform="translate(479.244141 0)"/>
     <use xlink:href="#DejaVuSans-6f" transform="translate(507.027344 0)"/>
     <use xlink:href="#DejaVuSans-6e" transform="translate(568.208984 0)"/>
     <use xlink:href="#DejaVuSans-20" transform="translate(631.587891 0)"/>
     <use xlink:href="#DejaVuSans-6f" transform="translate(663.375 0)"/>
     <use xlink:href="#DejaVuSans-66" transform="translate(724.556641 0)"/>
     <use xlink:href="#DejaVuSans-20" transform="translate(759.761719 0)"/>
     <use xlink:href="#DejaVuSans-73" transform="translate(791.548828 0)"/>
     <use xlink:href="#DejaVuSans-69" transform="translate(843.648438 0)"/>
     <use xlink:href="#DejaVuSans-6d" transform="translate(871.431641 0)"/>
     <use xlink:href="#DejaVuSans-69" transform="translate(968.84375 0)"/>
     <use xlink:href="#DejaVuSans-6c" transform="translate(996.626953 0)"/>
     <use xlink:href="#DejaVuSans-61" transform="translate(1024.410156 0)"/>
     <use xlink:href="#DejaVuSans-72" transform="translate(1085.689453 0)"/>
     <use xlink:href="#DejaVuSans-20" transform="translate(1126.802734 0)"/>
     <use xlink:href="#DejaVuSans-6c" transform="translate(1158.589844 0)"/>
     <use xlink:href="#DejaVuSans-69" transform="translate(1186.373047 0)"/>
     <use xlink:href="#DejaVuSans-6e" transform="translate(1214.15625 0)"/>
     <use xlink:href="#DejaVuSans-65" transform="translate(1277.535156 0)"/>
     <use xlink:href="#DejaVuSans-73" transform="translate(1339.058594 0)"/>
     <use xlink:href="#DejaVuSans-20" transform="translate(1391.158203 0)"/>
     <use xlink:href="#DejaVuSans-70" transform="translate(1422.945312 0)"/>
     <use xlink:href="#DejaVuSans-6c" transform="translate(1486.421875 0)"/>
     <use xlink:href="#DejaVuSans-6f" transform="translate(1514.205078 0)"/>
     <use xlink:href="#DejaVuSans-74" transform="translate(1575.386719 0)"/>
     <use xlink:href="#DejaVuSans-74" transform="translate(1614.595703 0)"/>
     <use xlink:href="#DejaVuSans-65" transform="translate(1653.804688 0)"/>
     <use xlink:href="#DejaVuSans-64" transform="translate(1715.328125 0)"/>
     <use xlink:href="#DejaVuSans-20" transform="translate(1778.804688 0)"/>
     <use xlink:href="#DejaVuSans-74" transform="translate(1810.591797 0)"/>
     <use xlink:href="#DejaVuSans-6f" transform="translate(1849.800781 0)"/>
     <use xlink:href="#DejaVuSans-67" transform="translate(1910.982422 0)"/>
     <use xlink:href="#DejaVuSans-65" transform="translate(1974.458984 0)"/>
     <use xlink:href="#DejaVuSans-74" transform="translate(2035.982422 0)"/>
     <use xlink:href="#DejaVuSans-68" transform="translate(2075.191406 0)"/>
     <use xlink:href="#DejaVuSans-65" transform="translate(2138.570312 0)"/>
     <use xlink:href="#DejaVuSans-72" transform="translate(2200.09375 0)"/>
    </g>
   </g>
  </g>
  <g id="text_12">
   <!-- SubPlots -->
   <g transform="translate(208.745385 16.318125) scale(0.12 -0.12)">
    <defs>
     <path id="DejaVuSans-53" d="M 3425 4513 
L 3425 3897 
Q 3066 4069 2747 4153 
Q 2428 4238 2131 4238 
Q 1616 4238 1336 4038 
Q 1056 3838 1056 3469 
Q 1056 3159 1242 3001 
Q 1428 2844 1947 2747 
L 2328 2669 
Q 3034 2534 3370 2195 
Q 3706 1856 3706 1288 
Q 3706 609 3251 259 
Q 2797 -91 1919 -91 
Q 1588 -91 1214 -16 
Q 841 59 441 206 
L 441 856 
Q 825 641 1194 531 
Q 1563 422 1919 422 
Q 2459 422 2753 634 
Q 3047 847 3047 1241 
Q 3047 1584 2836 1778 
Q 2625 1972 2144 2069 
L 1759 2144 
Q 1053 2284 737 2584 
Q 422 2884 422 3419 
Q 422 4038 858 4394 
Q 1294 4750 2059 4750 
Q 2388 4750 2728 4690 
Q 3069 4631 3425 4513 
z
" transform="scale(0.015625)"/>
     <path id="DejaVuSans-62" d="M 3116 1747 
Q 3116 2381 2855 2742 
Q 2594 3103 2138 3103 
Q 1681 3103 1420 2742 
Q 1159 2381 1159 1747 
Q 1159 1113 1420 752 
Q 1681 391 2138 391 
Q 2594 391 2855 752 
Q 3116 1113 3116 1747 
z
M 1159 2969 
Q 1341 3281 1617 3432 
Q 1894 3584 2278 3584 
Q 2916 3584 3314 3078 
Q 3713 2572 3713 1747 
Q 3713 922 3314 415 
Q 2916 -91 2278 -91 
Q 1894 -91 1617 61 
Q 1341 213 1159 525 
L 1159 0 
L 581 0 
L 581 4863 
L 1159 4863 
L 1159 2969 
z
" transform="scale(0.015625)"/>
     <path id="DejaVuSans-50" d="M 1259 4147 
L 1259 2394 
L 2053 2394 
Q 2494 2394 2734 2622 
Q 2975 2850 2975 3272 
Q 2975 3691 2734 3919 
Q 2494 4147 2053 4147 
L 1259 4147 
z
M 628 4666 
L 2053 4666 
Q 2838 4666 3239 4311 
Q 3641 3956 3641 3272 
Q 3641 2581 3239 2228 
Q 2838 1875 2053 1875 
L 1259 1875 
L 1259 0 
L 628 0 
L 628 4666 
z
" transform="scale(0.015625)"/>
    </defs>
    <use xlink:href="#DejaVuSans-53"/>
    <use xlink:href="#DejaVuSans-75" transform="translate(63.476562 0)"/>
    <use xlink:href="#DejaVuSans-62" transform="translate(126.855469 0)"/>
    <use xlink:href="#DejaVuSans-50" transform="translate(190.332031 0)"/>
    <use xlink:href="#DejaVuSans-6c" transform="translate(250.634766 0)"/>
    <use xlink:href="#DejaVuSans-6f" transform="translate(278.417969 0)"/>
    <use xlink:href="#DejaVuSans-74" transform="translate(339.599609 0)"/>
    <use xlink:href="#DejaVuSans-73" transform="translate(378.808594 0)"/>
   </g>
  </g>
 </g>
 <defs>
  <clipPath id="p53083bbd2e">
   <rect x="28.942187" y="39.932355" width="433.057333" height="290.18904"/>
  </clipPath>
 </defs>
</svg>
